<svg
        width="80"
        height="80"
        viewBox="0 0 80 80"
        fill="none"
        xmlns="http://www.w3.org/2000/svg"
      >
        <rect
          width="80"
          height="80"
          transform="translate(0 80) rotate(-90)"
          fill="#E40422"
        />
        <g clip-path="url(#clip0_302_5411)">
          <path
            d="M25.2266 42.6172L23.4922 40.8828C22.7578 40.1484 22.7578 38.9609 23.4922 38.2344L38.6719 23.0469C39.4062 22.3125 40.5937 22.3125 41.3203 23.0469L56.5078 38.2344C57.2422 38.9688 57.2422 40.1563 56.5078 40.8828L54.7734 42.6172C54.0312 43.3594 52.8203 43.3438 52.0937 42.5859L43.125 33.1719L43.125 55.625C43.125 56.6641 42.2891 57.5 41.25 57.5L38.75 57.5C37.7109 57.5 36.875 56.6641 36.875 55.625L36.875 33.1719L27.9062 42.5859C27.1797 43.3516 25.9687 43.3672 25.2266 42.6172Z"
            fill="white"
          />
        </g>
        <defs>
          <clipPath id="clip0_302_5411">
            <rect
              width="35"
              height="40"
              fill="white"
              transform="translate(20 57.5) rotate(-90)"
            />
          </clipPath>
        </defs>
      </svg>