<svg width="40" height="40" viewBox="0 0 40 40" fill="none" xmlns="http://www.w3.org/2000/svg">
<rect width="40" height="40" fill="#E40422"/>
<g clip-path="url(#clip0_302_8210)">
<path d="M18.6914 12.6133L19.5586 11.7461C19.9258 11.3789 20.5195 11.3789 20.8828 11.7461L28.4766 19.3359C28.8437 19.7031 28.8437 20.2969 28.4766 20.6602L20.8828 28.2539C20.5156 28.6211 19.9219 28.6211 19.5586 28.2539L18.6914 27.3867C18.3203 27.0156 18.3281 26.4102 18.707 26.0469L23.4141 21.5625H12.1875C11.668 21.5625 11.25 21.1445 11.25 20.625V19.375C11.25 18.8555 11.668 18.4375 12.1875 18.4375H23.4141L18.707 13.9531C18.3242 13.5898 18.3164 12.9844 18.6914 12.6133Z" fill="white"/>
</g>
<defs>
<clipPath id="clip0_302_8210">
<rect width="17.5" height="20" fill="white" transform="translate(11.25 10)"/>
</clipPath>
</defs>
</svg>
