<?xml version="1.0" encoding="UTF-8"?>
<svg xmlns="http://www.w3.org/2000/svg" width="150" height="78" viewBox="0 0 150 78" fill="none">
  <g clip-path="url(#clip0_2007_206)">
    <rect width="150" height="78" fill="white"></rect>
    <path d="M0 0.000488281V49.9999H150V0.000488281H0ZM100.001 49.0015H1.00013V1.00062H100.001V49.0015ZM149 49.0015H101.001V1.00062H149V49.0015Z" fill="black"></path>
    <path d="M85.6457 16.9338V27.9475C85.6457 28.0904 85.5505 28.1363 85.4782 27.9952L79.1987 16.8403C79.1604 16.7816 79.1081 16.7335 79.0465 16.7002C78.9849 16.6669 78.9159 16.6496 78.8459 16.6498H76.1471C76.1094 16.6483 76.0717 16.6546 76.0365 16.6684C76.0013 16.6821 75.9693 16.7029 75.9424 16.7296C75.9156 16.7562 75.8946 16.7881 75.8807 16.8232C75.8667 16.8584 75.8602 16.896 75.8614 16.9338V33.0135C75.8599 33.0514 75.8663 33.0892 75.8801 33.1245C75.8939 33.1599 75.9149 33.192 75.9418 33.2188C75.9686 33.2457 76.0007 33.2667 76.0361 33.2805C76.0714 33.2943 76.1092 33.3007 76.1471 33.2992H78.479C78.5169 33.3007 78.5548 33.2943 78.5901 33.2805C78.6255 33.2667 78.6575 33.2457 78.6844 33.2188C78.7112 33.192 78.7322 33.1599 78.7461 33.1245C78.7599 33.0892 78.7663 33.0514 78.7648 33.0135V22.0244C78.7648 21.8815 78.86 21.8339 78.9323 21.9768L85.2171 33.1087C85.2553 33.1674 85.3077 33.2155 85.3693 33.2488C85.4309 33.2821 85.4999 33.2994 85.5699 33.2992H88.2651C88.303 33.3004 88.3407 33.2939 88.3759 33.28C88.4111 33.266 88.4431 33.245 88.4699 33.2182C88.4967 33.1915 88.5177 33.1595 88.5316 33.1242C88.5455 33.089 88.5521 33.0513 88.5509 33.0135V16.9338C88.5521 16.8959 88.5455 16.8582 88.5316 16.823C88.5177 16.7878 88.4967 16.7558 88.4699 16.729C88.4431 16.7022 88.4111 16.6812 88.3759 16.6673C88.3407 16.6534 88.303 16.6468 88.2651 16.648H85.9315C85.8936 16.6465 85.8557 16.6529 85.8204 16.6667C85.785 16.6806 85.7529 16.7016 85.7261 16.7284C85.6993 16.7552 85.6783 16.7873 85.6644 16.8227C85.6506 16.858 85.6442 16.8959 85.6457 16.9338ZM68.8252 33.2992H71.1818C71.2197 33.3007 71.2575 33.2943 71.2929 33.2805C71.3282 33.2667 71.3603 33.2457 71.3871 33.2188C71.414 33.192 71.435 33.1599 71.4488 33.1245C71.4626 33.0892 71.469 33.0514 71.4675 33.0135V16.9338C71.469 16.8959 71.4626 16.858 71.4488 16.8227C71.435 16.7873 71.414 16.7552 71.3871 16.7284C71.3603 16.7016 71.3282 16.6806 71.2929 16.6667C71.2575 16.6529 71.2197 16.6465 71.1818 16.648H68.8252C68.7874 16.6468 68.7496 16.6534 68.7144 16.6673C68.6792 16.6812 68.6472 16.7022 68.6204 16.729C68.5936 16.7558 68.5726 16.7878 68.5587 16.823C68.5448 16.8582 68.5382 16.8959 68.5395 16.9338V33.0135C68.5382 33.0513 68.5448 33.089 68.5587 33.1242C68.5726 33.1595 68.5936 33.1915 68.6204 33.2182C68.6472 33.245 68.6792 33.266 68.7144 33.28C68.7496 33.2939 68.7874 33.3004 68.8252 33.2992ZM59.4272 30.3976V16.9338C59.4284 16.8959 59.4218 16.8582 59.4079 16.823C59.394 16.7878 59.373 16.7558 59.3462 16.729C59.3194 16.7022 59.2874 16.6812 59.2522 16.6673C59.217 16.6534 59.1793 16.6468 59.1414 16.648H56.7849C56.7469 16.6465 56.7091 16.6529 56.6738 16.6667C56.6384 16.6806 56.6063 16.7016 56.5795 16.7284C56.5526 16.7552 56.5317 16.7873 56.5178 16.8227C56.504 16.858 56.4976 16.8959 56.4991 16.9338V33.0135C56.4976 33.0514 56.504 33.0892 56.5178 33.1245C56.5317 33.1599 56.5526 33.192 56.5795 33.2188C56.6063 33.2457 56.6384 33.2667 56.6738 33.2805C56.7091 33.2943 56.7469 33.3007 56.7849 33.2992H64.8988C64.9367 33.3007 64.9745 33.2943 65.0099 33.2805C65.0452 33.2667 65.0773 33.2457 65.1041 33.2188C65.131 33.192 65.152 33.1599 65.1658 33.1245C65.1796 33.0892 65.186 33.0514 65.1845 33.0135V30.8262C65.186 30.7883 65.1796 30.7505 65.1658 30.7151C65.152 30.6798 65.131 30.6477 65.1041 30.6209C65.0773 30.594 65.0452 30.573 65.0099 30.5592C64.9745 30.5454 64.9367 30.539 64.8988 30.5405H59.57C59.5512 30.5415 59.5323 30.5385 59.5146 30.5318C59.497 30.5251 59.4809 30.5148 59.4674 30.5015C59.454 30.4882 59.4435 30.4723 59.4365 30.4547C59.4296 30.4371 59.4264 30.4182 59.4272 30.3994M44.0284 19.4032H46.1962C48.1241 19.4032 49.6711 20.4263 49.6711 22.543C49.6711 24.6596 48.1241 25.6827 46.1715 25.6827H44.0284C44.0095 25.6832 43.9908 25.6798 43.9734 25.6728C43.9559 25.6658 43.9401 25.6552 43.9268 25.6418C43.9136 25.6285 43.9033 25.6125 43.8965 25.5949C43.8896 25.5774 43.8865 25.5586 43.8872 25.5398V19.5426C43.8846 19.5234 43.8864 19.5039 43.8926 19.4856C43.8988 19.4673 43.9091 19.4507 43.9228 19.437C43.9364 19.4233 43.9531 19.413 43.9714 19.4068C43.9897 19.4007 44.0092 19.3988 44.0284 19.4015M49.5529 33.2922H52.5515C52.7896 33.2922 52.8619 33.1246 52.7191 32.9394L49.1472 28.1116C49.1336 28.0954 49.1239 28.0763 49.1189 28.0557C49.1138 28.0352 49.1136 28.0137 49.1182 27.9931C49.1228 27.9724 49.1321 27.9531 49.1454 27.9367C49.1587 27.9202 49.1756 27.907 49.1948 27.8982C51.3115 27.0409 52.7226 25.1624 52.7226 22.5465C52.7226 18.8423 49.9127 16.6463 46.3426 16.6463H41.2432C41.2052 16.645 41.1673 16.6516 41.1319 16.6657C41.0966 16.6797 41.0645 16.7009 41.0377 16.7278C41.0109 16.7548 40.9899 16.787 40.9761 16.8224C40.9623 16.8579 40.9559 16.8958 40.9574 16.9338V33.0135C40.9562 33.0513 40.9627 33.089 40.9767 33.1242C40.9906 33.1595 41.0116 33.1915 41.0384 33.2182C41.0652 33.245 41.0972 33.266 41.1324 33.28C41.1676 33.2939 41.2053 33.3004 41.2432 33.2992H43.6015C43.6393 33.3004 43.6771 33.2939 43.7123 33.28C43.7475 33.266 43.7795 33.245 43.8063 33.2182C43.8331 33.1915 43.8541 33.1595 43.868 33.1242C43.8819 33.089 43.8885 33.0513 43.8872 33.0135V28.5914C43.8862 28.5725 43.8892 28.5536 43.8959 28.5359C43.9026 28.5183 43.913 28.5022 43.9262 28.4888C43.9395 28.4753 43.9555 28.4648 43.973 28.4579C43.9906 28.4509 44.0095 28.4477 44.0284 28.4485H45.8381C45.9113 28.4552 45.9793 28.4892 46.0286 28.5437L49.2124 33.1105C49.2462 33.1689 49.2948 33.2173 49.3534 33.2508C49.412 33.2843 49.4784 33.3016 49.5458 33.301M36.6235 19.1245V16.9338C36.6247 16.8959 36.6182 16.8582 36.6043 16.823C36.5903 16.7878 36.5693 16.7558 36.5425 16.729C36.5158 16.7022 36.4838 16.6812 36.4485 16.6673C36.4133 16.6534 36.3756 16.6468 36.3378 16.648H27.6788C27.6409 16.6468 27.6032 16.6534 27.568 16.6673C27.5328 16.6812 27.5008 16.7022 27.474 16.729C27.4472 16.7558 27.4262 16.7878 27.4123 16.823C27.3984 16.8582 27.3918 16.8959 27.393 16.9338V33.0135C27.3918 33.0513 27.3984 33.089 27.4123 33.1242C27.4262 33.1595 27.4472 33.1915 27.474 33.2182C27.5008 33.245 27.5328 33.266 27.568 33.28C27.6032 33.2939 27.6409 33.3004 27.6788 33.2992H36.3448C36.3827 33.3004 36.4204 33.2939 36.4556 33.28C36.4908 33.266 36.5228 33.245 36.5496 33.2182C36.5764 33.1915 36.5974 33.1595 36.6113 33.1242C36.6252 33.089 36.6318 33.0513 36.6306 33.0135V30.8262C36.6318 30.7884 36.6252 30.7507 36.6113 30.7154C36.5974 30.6802 36.5764 30.6482 36.5496 30.6214C36.5228 30.5947 36.4908 30.5737 36.4556 30.5597C36.4204 30.5458 36.3827 30.5392 36.3448 30.5405H30.4411C30.4222 30.5415 30.4033 30.5385 30.3856 30.5318C30.368 30.5251 30.3519 30.5148 30.3384 30.5015C30.325 30.4882 30.3145 30.4723 30.3075 30.4547C30.3006 30.4371 30.2974 30.4182 30.2982 30.3994V26.4024C30.2974 26.3834 30.3006 26.3645 30.3075 26.3468C30.3145 26.3292 30.325 26.3131 30.3384 26.2997C30.3518 26.2863 30.3678 26.2758 30.3855 26.2689C30.4032 26.2619 30.4221 26.2588 30.4411 26.2595H36.3448C36.3827 26.261 36.4206 26.2546 36.4559 26.2408C36.4913 26.2269 36.5234 26.206 36.5502 26.1791C36.577 26.1523 36.598 26.1202 36.6119 26.0848C36.6257 26.0495 36.6321 26.0117 36.6306 25.9737V23.813C36.6318 23.7751 36.6252 23.7374 36.6113 23.7022C36.5974 23.667 36.5764 23.635 36.5496 23.6082C36.5228 23.5814 36.4908 23.5604 36.4556 23.5465C36.4204 23.5325 36.3827 23.526 36.3448 23.5272H30.4411C30.4218 23.5302 30.4021 23.5285 30.3835 23.5225C30.365 23.5165 30.3481 23.5062 30.3342 23.4925C30.3203 23.4788 30.3099 23.4621 30.3036 23.4436C30.2973 23.4251 30.2955 23.4054 30.2982 23.3861V19.5514C30.2974 19.5325 30.3006 19.5137 30.3075 19.4961C30.3145 19.4785 30.325 19.4626 30.3384 19.4493C30.3519 19.436 30.368 19.4257 30.3856 19.419C30.4033 19.4122 30.4222 19.4093 30.4411 19.4103H36.3448C36.3827 19.4115 36.4204 19.405 36.4556 19.391C36.4908 19.3771 36.5228 19.3561 36.5496 19.3293C36.5764 19.3025 36.5974 19.2705 36.6113 19.2353C36.6252 19.2001 36.6318 19.1624 36.6306 19.1245M18.0709 30.5405H15.5467C15.5278 30.5415 15.509 30.5385 15.4913 30.5318C15.4736 30.5251 15.4576 30.5148 15.4441 30.5015C15.4307 30.4882 15.4201 30.4723 15.4132 30.4547C15.4063 30.4371 15.4031 30.4182 15.4038 30.3994V26.4024C15.4012 26.383 15.4031 26.3633 15.4094 26.3447C15.4156 26.3262 15.4261 26.3094 15.4399 26.2955C15.4537 26.2817 15.4706 26.2713 15.4891 26.265C15.5076 26.2588 15.5273 26.2569 15.5467 26.2595H18.0709C19.6178 26.2595 20.475 27.1414 20.475 28.4009C20.475 29.6603 19.6178 30.5405 18.0709 30.5405ZM17.8327 19.4032C19.332 19.4032 20.1646 20.2111 20.1646 21.4476C20.1646 22.6841 19.332 23.5166 17.8327 23.5166H15.5397C15.5204 23.5196 15.5007 23.518 15.4821 23.5119C15.4636 23.5059 15.4467 23.4956 15.4328 23.4819C15.4189 23.4682 15.4085 23.4515 15.4022 23.433C15.3959 23.4145 15.3941 23.3948 15.3968 23.3755V19.5514C15.3941 19.5321 15.3959 19.5124 15.4022 19.4939C15.4085 19.4755 15.4189 19.4587 15.4328 19.445C15.4467 19.4313 15.4636 19.421 15.4821 19.415C15.5007 19.409 15.5204 19.4074 15.5397 19.4103L17.8327 19.4032ZM21.3076 24.635C21.9041 24.2707 22.3941 23.7559 22.7285 23.1422C23.0629 22.5285 23.2299 21.8376 23.2126 21.1389C23.2126 18.5936 21.4487 16.6427 18.2137 16.6427H12.7845C12.7462 16.6414 12.7081 16.6481 12.6726 16.6624C12.6371 16.6767 12.6049 16.6982 12.5782 16.7256C12.5515 16.753 12.5308 16.7856 12.5174 16.8215C12.504 16.8573 12.4982 16.8956 12.5005 16.9338V33.0135C12.499 33.0512 12.5053 33.0889 12.519 33.1241C12.5328 33.1593 12.5536 33.1913 12.5803 33.2182C12.6069 33.245 12.6388 33.266 12.6739 33.2799C12.709 33.2939 12.7467 33.3004 12.7845 33.2992H18.4289C21.7627 33.2992 23.5231 31.276 23.5231 28.6125C23.5231 26.8769 22.6905 25.5681 21.3094 24.8307C21.2141 24.7602 21.2141 24.6879 21.3094 24.6402" fill="#E40422"></path>
    <path d="M132.346 39.187C132.346 39.187 131.473 33.3891 131.058 30.9443L131.234 30.9073C131.318 30.8893 131.396 30.8519 131.462 30.7981C131.528 30.7443 131.58 30.6756 131.614 30.5977C131.649 30.5197 131.664 30.4348 131.66 30.3497C131.655 30.2646 131.63 30.1819 131.587 30.1082C130.607 28.399 130.252 26.2824 130.252 24.1657C130.254 22.9046 130.466 21.6528 130.88 20.4615C130.903 20.3945 130.926 20.3292 130.95 20.2622L131 20.1193C131.46 19.0877 131.757 17.9911 131.882 16.8684C132.013 15.3451 131.765 13.813 131.159 12.4093C131.132 12.3617 131.106 12.3141 131.077 12.2682C131.256 12.0832 131.368 11.8441 131.395 11.5886C131.423 11.3331 131.364 11.0757 131.229 10.8571C130.906 10.2997 130.243 10.0774 129.748 10.3632C129.696 10.3932 129.571 10.4796 129.518 10.5202C129.428 10.4531 129.375 10.4196 129.375 10.4196C129.375 10.4196 129.236 10.3279 129.116 10.2662C129.116 10.2662 129.07 10.2432 129.07 10.2415C128.55 10.0116 127.986 9.89438 127.417 9.89752C127.133 9.89743 126.849 9.92639 126.571 9.98395C125.99 10.105 125.442 10.3506 124.966 10.7036C124.8 10.7542 124.63 10.7867 124.458 10.8006L123.787 10.8324C123.472 10.8447 123.112 10.8324 123.112 10.8324C123.037 10.8319 122.964 10.8611 122.91 10.9136C122.857 10.9661 122.826 11.0377 122.824 11.1128C122.824 11.127 122.928 12.0477 122.928 12.0512C122.934 12.1644 122.966 12.2747 123.021 12.374C123.075 12.4732 123.152 12.5589 123.244 12.6245L123.267 12.6404C123.313 12.665 123.35 12.7032 123.373 12.7497C123.436 12.9309 123.548 13.0909 123.697 13.2119C123.743 13.2401 123.816 13.226 123.828 13.1748C123.957 12.6721 124.257 13.2136 124.826 12.905C124.973 12.8256 125.05 13.1819 124.989 13.3371L124.936 13.4712C124.878 13.6185 124.782 13.7479 124.658 13.8464C124.534 13.9449 124.387 14.0089 124.23 14.0321C123.978 14.0691 123.833 14.0938 123.837 14.1291C123.867 14.4131 123.837 14.6583 124.122 14.8347C124.162 14.857 124.204 14.8753 124.248 14.8893C124.69 15.0058 125.983 15.5014 124.339 17.4399C124.242 17.5527 124.15 17.6704 124.064 17.7927C124.029 17.842 123.999 17.8946 123.974 17.9497L123.939 18.0185L119 16.1717C118.829 16.092 118.681 15.9707 118.57 15.8189L118.083 14.9828C117.969 14.795 117.81 14.6394 117.619 14.531C117.428 14.4226 117.212 14.365 116.993 14.3637C116.764 14.3457 116.534 14.3457 116.305 14.3637C116.158 14.3637 116.074 14.406 116.042 14.4925C116.002 14.7051 116.04 14.925 116.15 15.1116L116.573 15.8895C116.61 15.9442 117.144 17.1401 117.144 17.1401C117.199 17.2871 117.29 17.4173 117.411 17.5176L122.477 21.3434L117.134 24.0087C117.058 24.05 116.974 24.0758 116.888 24.0846C116.801 24.0934 116.714 24.085 116.631 24.0598L116.153 23.9152C115.271 23.5254 114.62 23.797 114.234 24.1198L114.084 24.2627C114.052 24.2914 114.028 24.3276 114.014 24.3681C114 24.4086 113.996 24.452 114.004 24.4943C114.011 24.5365 114.029 24.5763 114.055 24.6098C114.082 24.6433 114.117 24.6696 114.156 24.686C114.156 24.686 115 25.1817 115.187 25.3087L116.499 26.0866C116.703 26.2047 116.943 26.2436 117.174 26.1959L122.362 25.1499C122.445 26.3806 122.654 27.5994 122.986 28.7871C121.614 30.1331 120.69 31.8694 120.341 33.7595C120.09 35.16 120.164 36.4283 120.554 37.9205C119.829 37.9611 119.131 38.067 118.55 38.4709C117.97 38.8748 117.884 39.5398 117.88 39.882L121.937 39.8908H122.279C122.402 39.8841 122.519 39.8389 122.614 39.7616C122.709 39.6843 122.777 39.5788 122.808 39.4604C122.845 39.3227 122.87 39.1823 122.884 39.0406C123.012 37.9572 123.334 36.9056 123.835 35.9362C124.27 35.1233 124.813 34.3727 125.449 33.7048C126.685 35.4081 128.243 36.8524 130.035 37.9558C129.449 37.9957 128.876 38.1497 128.349 38.4091C128.092 38.5639 127.879 38.7828 127.732 39.0444C127.585 39.306 127.508 39.6013 127.509 39.9014H131.705C131.841 39.9017 131.973 39.8595 132.084 39.7807C132.194 39.7019 132.277 39.5905 132.321 39.4622C132.33 39.4356 132.337 39.4085 132.342 39.3811C132.342 39.3616 132.342 39.3405 132.342 39.3211C132.349 39.2767 132.35 39.2317 132.346 39.187Z" fill="black"></path>
    <path d="M0 49V78H150V49H0ZM100.001 77.4209H1.00013V49.5801H100.001V77.4209ZM149 77.4209H100.001V63.7902V49.5801H149V77.4209Z" fill="black"></path>
    <path d="M21.08 61C21.5 61 21.86 61.08 22.16 61.24C22.4667 61.4 22.6967 61.62 22.85 61.9C23.01 62.18 23.09 62.4967 23.09 62.85C23.09 63.17 23.0133 63.4633 22.86 63.73C22.7067 63.99 22.5 64.1933 22.24 64.34C22.1733 64.38 22.1733 64.4167 22.24 64.45C22.5467 64.6033 22.79 64.8233 22.97 65.11C23.15 65.3967 23.24 65.72 23.24 66.08C23.24 66.64 23.0533 67.1 22.68 67.46C22.3067 67.82 21.78 68 21.1 68H19.08C19.0133 68 18.98 67.9667 18.98 67.9V61.1C18.98 61.0333 19.0133 61 19.08 61H21.08ZM19.77 61.71C19.7367 61.71 19.72 61.7267 19.72 61.76V64.03C19.72 64.0633 19.7367 64.08 19.77 64.08H20.99C21.4233 64.08 21.7533 63.9767 21.98 63.77C22.2067 63.5633 22.32 63.2733 22.32 62.9C22.32 62.5267 22.2067 62.2367 21.98 62.03C21.7533 61.8167 21.4233 61.71 20.99 61.71H19.77ZM19.77 64.79C19.7367 64.79 19.72 64.8067 19.72 64.84V67.24C19.72 67.2733 19.7367 67.29 19.77 67.29H21.03C21.5033 67.29 21.86 67.18 22.1 66.96C22.3467 66.74 22.47 66.4333 22.47 66.04C22.47 65.6467 22.3467 65.34 22.1 65.12C21.86 64.9 21.5033 64.79 21.03 64.79H19.77ZM26.6396 68.11C26.1796 68.11 25.7696 68.01 25.4096 67.81C25.0563 67.61 24.7796 67.3267 24.5796 66.96C24.3796 66.5867 24.2796 66.16 24.2796 65.68C24.2796 65.2 24.3763 64.7767 24.5696 64.41C24.7696 64.0433 25.0396 63.76 25.3796 63.56C25.7263 63.36 26.1129 63.26 26.5396 63.26C26.9596 63.26 27.3396 63.36 27.6796 63.56C28.0263 63.76 28.2963 64.0367 28.4896 64.39C28.6829 64.7367 28.7796 65.13 28.7796 65.57C28.7796 65.67 28.7763 65.7467 28.7696 65.8C28.7563 65.8533 28.7229 65.88 28.6696 65.88H25.1396C25.0596 65.88 25.0296 65.9233 25.0496 66.01C25.1029 66.45 25.2696 66.8 25.5496 67.06C25.8363 67.32 26.1996 67.45 26.6396 67.45C27.1396 67.45 27.5763 67.2567 27.9496 66.87C28.0229 66.7967 28.0796 66.7833 28.1196 66.83L28.4496 67.19C28.4963 67.23 28.4963 67.2733 28.4496 67.32C28.2096 67.5733 27.9329 67.77 27.6196 67.91C27.3129 68.0433 26.9863 68.11 26.6396 68.11ZM27.9096 65.3C27.9896 65.3 28.0196 65.26 27.9996 65.18C27.9329 64.8 27.7663 64.4967 27.4996 64.27C27.2396 64.0367 26.9196 63.92 26.5396 63.92C26.1596 63.92 25.8329 64.04 25.5596 64.28C25.2929 64.5133 25.1296 64.8167 25.0696 65.19L25.0596 65.24C25.0596 65.28 25.0929 65.3 25.1596 65.3H27.9096ZM31.9419 63.26C32.0085 63.26 32.0585 63.2633 32.0919 63.27C32.1519 63.27 32.1819 63.3033 32.1819 63.37V63.9C32.1819 63.96 32.1585 63.99 32.1119 63.99C32.0652 63.99 32.0152 63.9867 31.9619 63.98C31.9152 63.9667 31.8719 63.96 31.8319 63.96C31.3652 63.96 30.9985 64.1567 30.7319 64.55C30.6852 64.6167 30.6619 64.7 30.6619 64.8V67.9C30.6619 67.9667 30.6285 68 30.5619 68H30.0319C29.9652 68 29.9319 67.9667 29.9319 67.9V63.46C29.9319 63.3933 29.9652 63.36 30.0319 63.36H30.5119C30.5785 63.36 30.6119 63.3933 30.6119 63.46V63.82C30.6119 63.8467 30.6185 63.8633 30.6319 63.87C30.6452 63.8767 30.6619 63.87 30.6819 63.85C31.0085 63.4567 31.4285 63.26 31.9419 63.26ZM34.2555 67.39C34.3221 67.39 34.3555 67.4233 34.3555 67.49V67.94C34.3555 68.0067 34.3221 68.04 34.2555 68.04H34.0755C33.7621 68.04 33.5188 67.9667 33.3455 67.82C33.1721 67.6667 33.0855 67.4333 33.0855 67.12V60.86C33.0855 60.7933 33.1188 60.76 33.1855 60.76H33.7155C33.7821 60.76 33.8155 60.7933 33.8155 60.86V67.03C33.8155 67.27 33.9155 67.39 34.1155 67.39H34.2555ZM35.8783 62.28C35.7316 62.28 35.6016 62.2267 35.4883 62.12C35.3816 62.0067 35.3283 61.8767 35.3283 61.73C35.3283 61.5833 35.3816 61.4567 35.4883 61.35C35.6016 61.2433 35.7316 61.19 35.8783 61.19C36.0183 61.19 36.1416 61.2433 36.2483 61.35C36.3549 61.4567 36.4083 61.5833 36.4083 61.73C36.4083 61.8767 36.3549 62.0067 36.2483 62.12C36.1416 62.2267 36.0183 62.28 35.8783 62.28ZM35.5983 68C35.5316 68 35.4983 67.9667 35.4983 67.9V63.46C35.4983 63.3933 35.5316 63.36 35.5983 63.36H36.1283C36.1949 63.36 36.2283 63.3933 36.2283 63.46V67.9C36.2283 67.9667 36.1949 68 36.1283 68H35.5983ZM38.4744 67.9C38.4744 67.9667 38.441 68 38.3744 68H37.8444C37.7777 68 37.7444 67.9667 37.7444 67.9V63.46C37.7444 63.3933 37.7777 63.36 37.8444 63.36H38.3244C38.391 63.36 38.4244 63.3933 38.4244 63.46V63.79C38.4244 63.8167 38.431 63.8333 38.4444 63.84C38.4644 63.8467 38.4844 63.8367 38.5044 63.81C38.6644 63.63 38.841 63.4933 39.0344 63.4C39.2277 63.3067 39.4544 63.26 39.7144 63.26C40.2077 63.26 40.591 63.4033 40.8644 63.69C41.1377 63.9767 41.2744 64.3433 41.2744 64.79V67.9C41.2744 67.9667 41.241 68 41.1744 68H40.6444C40.5777 68 40.5444 67.9667 40.5444 67.9V64.91C40.5444 64.5833 40.461 64.3367 40.2944 64.17C40.1277 63.9967 39.8877 63.91 39.5744 63.91C39.3544 63.91 39.1544 63.9667 38.9744 64.08C38.7944 64.1933 38.6444 64.3567 38.5244 64.57C38.491 64.6367 38.4744 64.7067 38.4744 64.78V67.9ZM47.623 61C48.043 61 48.403 61.08 48.703 61.24C49.0096 61.4 49.2396 61.62 49.393 61.9C49.553 62.18 49.633 62.4967 49.633 62.85C49.633 63.17 49.5563 63.4633 49.403 63.73C49.2496 63.99 49.043 64.1933 48.783 64.34C48.7163 64.38 48.7163 64.4167 48.783 64.45C49.0896 64.6033 49.333 64.8233 49.513 65.11C49.693 65.3967 49.783 65.72 49.783 66.08C49.783 66.64 49.5963 67.1 49.223 67.46C48.8496 67.82 48.323 68 47.643 68H45.623C45.5563 68 45.523 67.9667 45.523 67.9V61.1C45.523 61.0333 45.5563 61 45.623 61H47.623ZM46.313 61.71C46.2796 61.71 46.263 61.7267 46.263 61.76V64.03C46.263 64.0633 46.2796 64.08 46.313 64.08H47.533C47.9663 64.08 48.2963 63.9767 48.523 63.77C48.7496 63.5633 48.863 63.2733 48.863 62.9C48.863 62.5267 48.7496 62.2367 48.523 62.03C48.2963 61.8167 47.9663 61.71 47.533 61.71H46.313ZM46.313 64.79C46.2796 64.79 46.263 64.8067 46.263 64.84V67.24C46.263 67.2733 46.2796 67.29 46.313 67.29H47.573C48.0463 67.29 48.403 67.18 48.643 66.96C48.8896 66.74 49.013 66.4333 49.013 66.04C49.013 65.6467 48.8896 65.34 48.643 65.12C48.403 64.9 48.0463 64.79 47.573 64.79H46.313ZM53.8242 63.46C53.8242 63.3933 53.8576 63.36 53.9242 63.36H54.4542C54.5209 63.36 54.5542 63.3933 54.5542 63.46V67.9C54.5542 67.9667 54.5209 68 54.4542 68H53.9742C53.9076 68 53.8742 67.9667 53.8742 67.9V67.57C53.8742 67.5433 53.8642 67.5267 53.8442 67.52C53.8309 67.5133 53.8109 67.5233 53.7842 67.55C53.4709 67.9167 53.0676 68.1 52.5742 68.1C52.0809 68.1 51.6976 67.9567 51.4242 67.67C51.1576 67.3833 51.0242 67.0167 51.0242 66.57V63.46C51.0242 63.3933 51.0576 63.36 51.1242 63.36H51.6542C51.7209 63.36 51.7542 63.3933 51.7542 63.46V66.45C51.7542 66.7767 51.8376 67.0267 52.0042 67.2C52.1709 67.3667 52.4109 67.45 52.7242 67.45C52.9442 67.45 53.1442 67.3933 53.3242 67.28C53.5042 67.1667 53.6542 67.0033 53.7742 66.79C53.8076 66.7233 53.8242 66.6533 53.8242 66.58V63.46ZM57.3145 68.11C56.9211 68.11 56.5878 68.01 56.3145 67.81C56.0478 67.61 55.8611 67.3433 55.7545 67.01L55.7445 66.97C55.7445 66.93 55.7678 66.9033 55.8145 66.89L56.2945 66.72L56.3345 66.71C56.3745 66.71 56.4045 66.7367 56.4245 66.79C56.4845 67.0033 56.5978 67.17 56.7645 67.29C56.9378 67.41 57.1211 67.47 57.3145 67.47C57.5945 67.47 57.8078 67.4033 57.9545 67.27C58.1011 67.13 58.1745 66.9533 58.1745 66.74C58.1745 66.5267 58.1011 66.36 57.9545 66.24C57.8145 66.12 57.6178 66.0367 57.3645 65.99L56.9645 65.91C56.6245 65.8433 56.3545 65.6933 56.1545 65.46C55.9545 65.22 55.8545 64.9333 55.8545 64.6C55.8545 64.3533 55.9178 64.1267 56.0445 63.92C56.1711 63.7133 56.3478 63.5533 56.5745 63.44C56.8078 63.32 57.0678 63.26 57.3545 63.26C57.7211 63.26 58.0311 63.3567 58.2845 63.55C58.5445 63.7367 58.7245 64.0067 58.8245 64.36L58.8345 64.4C58.8345 64.44 58.8078 64.47 58.7545 64.49L58.2845 64.61L58.2445 64.62C58.2045 64.62 58.1778 64.5933 58.1645 64.54C58.1111 64.34 58.0145 64.1833 57.8745 64.07C57.7411 63.9567 57.5678 63.9 57.3545 63.9C57.1211 63.9 56.9311 63.9633 56.7845 64.09C56.6445 64.2167 56.5745 64.3767 56.5745 64.57C56.5745 64.77 56.6311 64.9233 56.7445 65.03C56.8578 65.1367 57.0278 65.2133 57.2545 65.26L57.6445 65.34C58.0178 65.4133 58.3178 65.57 58.5445 65.81C58.7778 66.0433 58.8945 66.3533 58.8945 66.74C58.8945 67.14 58.7511 67.47 58.4645 67.73C58.1845 67.9833 57.8011 68.11 57.3145 68.11ZM60.4877 62.28C60.341 62.28 60.211 62.2267 60.0977 62.12C59.991 62.0067 59.9377 61.8767 59.9377 61.73C59.9377 61.5833 59.991 61.4567 60.0977 61.35C60.211 61.2433 60.341 61.19 60.4877 61.19C60.6277 61.19 60.751 61.2433 60.8577 61.35C60.9643 61.4567 61.0177 61.5833 61.0177 61.73C61.0177 61.8767 60.9643 62.0067 60.8577 62.12C60.751 62.2267 60.6277 62.28 60.4877 62.28ZM60.2077 68C60.141 68 60.1077 67.9667 60.1077 67.9V63.46C60.1077 63.3933 60.141 63.36 60.2077 63.36H60.7377C60.8043 63.36 60.8377 63.3933 60.8377 63.46V67.9C60.8377 67.9667 60.8043 68 60.7377 68H60.2077ZM63.0838 67.9C63.0838 67.9667 63.0504 68 62.9838 68H62.4538C62.3871 68 62.3538 67.9667 62.3538 67.9V63.46C62.3538 63.3933 62.3871 63.36 62.4538 63.36H62.9338C63.0004 63.36 63.0338 63.3933 63.0338 63.46V63.79C63.0338 63.8167 63.0404 63.8333 63.0538 63.84C63.0738 63.8467 63.0938 63.8367 63.1138 63.81C63.2738 63.63 63.4504 63.4933 63.6438 63.4C63.8371 63.3067 64.0638 63.26 64.3238 63.26C64.8171 63.26 65.2004 63.4033 65.4738 63.69C65.7471 63.9767 65.8838 64.3433 65.8838 64.79V67.9C65.8838 67.9667 65.8504 68 65.7838 68H65.2538C65.1871 68 65.1538 67.9667 65.1538 67.9V64.91C65.1538 64.5833 65.0704 64.3367 64.9038 64.17C64.7371 63.9967 64.4971 63.91 64.1838 63.91C63.9638 63.91 63.7638 63.9667 63.5838 64.08C63.4038 64.1933 63.2538 64.3567 63.1338 64.57C63.1004 64.6367 63.0838 64.7067 63.0838 64.78V67.9ZM69.3838 68.11C68.9238 68.11 68.5138 68.01 68.1538 67.81C67.8004 67.61 67.5238 67.3267 67.3238 66.96C67.1238 66.5867 67.0238 66.16 67.0238 65.68C67.0238 65.2 67.1204 64.7767 67.3138 64.41C67.5138 64.0433 67.7838 63.76 68.1238 63.56C68.4704 63.36 68.8571 63.26 69.2838 63.26C69.7038 63.26 70.0838 63.36 70.4238 63.56C70.7704 63.76 71.0404 64.0367 71.2338 64.39C71.4271 64.7367 71.5238 65.13 71.5238 65.57C71.5238 65.67 71.5204 65.7467 71.5138 65.8C71.5004 65.8533 71.4671 65.88 71.4138 65.88H67.8838C67.8038 65.88 67.7738 65.9233 67.7938 66.01C67.8471 66.45 68.0138 66.8 68.2938 67.06C68.5804 67.32 68.9438 67.45 69.3838 67.45C69.8838 67.45 70.3204 67.2567 70.6938 66.87C70.7671 66.7967 70.8238 66.7833 70.8638 66.83L71.1938 67.19C71.2404 67.23 71.2404 67.2733 71.1938 67.32C70.9538 67.5733 70.6771 67.77 70.3638 67.91C70.0571 68.0433 69.7304 68.11 69.3838 68.11ZM70.6538 65.3C70.7338 65.3 70.7638 65.26 70.7438 65.18C70.6771 64.8 70.5104 64.4967 70.2438 64.27C69.9838 64.0367 69.6638 63.92 69.2838 63.92C68.9038 63.92 68.5771 64.04 68.3038 64.28C68.0371 64.5133 67.8738 64.8167 67.8138 65.19L67.8038 65.24C67.8038 65.28 67.8371 65.3 67.9038 65.3H70.6538ZM73.916 68.11C73.5227 68.11 73.1893 68.01 72.916 67.81C72.6493 67.61 72.4627 67.3433 72.356 67.01L72.346 66.97C72.346 66.93 72.3693 66.9033 72.416 66.89L72.896 66.72L72.936 66.71C72.976 66.71 73.006 66.7367 73.026 66.79C73.086 67.0033 73.1993 67.17 73.366 67.29C73.5393 67.41 73.7227 67.47 73.916 67.47C74.196 67.47 74.4093 67.4033 74.556 67.27C74.7027 67.13 74.776 66.9533 74.776 66.74C74.776 66.5267 74.7027 66.36 74.556 66.24C74.416 66.12 74.2193 66.0367 73.966 65.99L73.566 65.91C73.226 65.8433 72.956 65.6933 72.756 65.46C72.556 65.22 72.456 64.9333 72.456 64.6C72.456 64.3533 72.5193 64.1267 72.646 63.92C72.7727 63.7133 72.9493 63.5533 73.176 63.44C73.4093 63.32 73.6693 63.26 73.956 63.26C74.3227 63.26 74.6327 63.3567 74.886 63.55C75.146 63.7367 75.326 64.0067 75.426 64.36L75.436 64.4C75.436 64.44 75.4093 64.47 75.356 64.49L74.886 64.61L74.846 64.62C74.806 64.62 74.7793 64.5933 74.766 64.54C74.7127 64.34 74.616 64.1833 74.476 64.07C74.3427 63.9567 74.1693 63.9 73.956 63.9C73.7227 63.9 73.5327 63.9633 73.386 64.09C73.246 64.2167 73.176 64.3767 73.176 64.57C73.176 64.77 73.2327 64.9233 73.346 65.03C73.4593 65.1367 73.6293 65.2133 73.856 65.26L74.246 65.34C74.6193 65.4133 74.9193 65.57 75.146 65.81C75.3793 66.0433 75.496 66.3533 75.496 66.74C75.496 67.14 75.3527 67.47 75.066 67.73C74.786 67.9833 74.4027 68.11 73.916 68.11ZM77.9492 68.11C77.5559 68.11 77.2226 68.01 76.9492 67.81C76.6826 67.61 76.4959 67.3433 76.3892 67.01L76.3792 66.97C76.3792 66.93 76.4026 66.9033 76.4492 66.89L76.9292 66.72L76.9692 66.71C77.0092 66.71 77.0392 66.7367 77.0592 66.79C77.1192 67.0033 77.2326 67.17 77.3992 67.29C77.5726 67.41 77.7559 67.47 77.9492 67.47C78.2292 67.47 78.4426 67.4033 78.5892 67.27C78.7359 67.13 78.8092 66.9533 78.8092 66.74C78.8092 66.5267 78.7359 66.36 78.5892 66.24C78.4492 66.12 78.2526 66.0367 77.9992 65.99L77.5992 65.91C77.2592 65.8433 76.9892 65.6933 76.7892 65.46C76.5892 65.22 76.4892 64.9333 76.4892 64.6C76.4892 64.3533 76.5526 64.1267 76.6792 63.92C76.8059 63.7133 76.9826 63.5533 77.2092 63.44C77.4426 63.32 77.7026 63.26 77.9892 63.26C78.3559 63.26 78.6659 63.3567 78.9192 63.55C79.1792 63.7367 79.3592 64.0067 79.4592 64.36L79.4692 64.4C79.4692 64.44 79.4426 64.47 79.3892 64.49L78.9192 64.61L78.8792 64.62C78.8392 64.62 78.8126 64.5933 78.7992 64.54C78.7459 64.34 78.6492 64.1833 78.5092 64.07C78.3759 63.9567 78.2026 63.9 77.9892 63.9C77.7559 63.9 77.5659 63.9633 77.4192 64.09C77.2792 64.2167 77.2092 64.3767 77.2092 64.57C77.2092 64.77 77.2659 64.9233 77.3792 65.03C77.4926 65.1367 77.6626 65.2133 77.8892 65.26L78.2792 65.34C78.6526 65.4133 78.9526 65.57 79.1792 65.81C79.4126 66.0433 79.5292 66.3533 79.5292 66.74C79.5292 67.14 79.3859 67.47 79.0992 67.73C78.8192 67.9833 78.4359 68.11 77.9492 68.11ZM86.631 68.17C85.9777 68.17 85.3743 68.01 84.821 67.69C84.2743 67.37 83.841 66.93 83.521 66.37C83.2077 65.81 83.051 65.1867 83.051 64.5C83.051 63.8133 83.2077 63.19 83.521 62.63C83.841 62.07 84.2743 61.63 84.821 61.31C85.3743 60.99 85.9777 60.83 86.631 60.83C87.2843 60.83 87.8843 60.99 88.431 61.31C88.9843 61.63 89.4177 62.07 89.731 62.63C90.051 63.19 90.211 63.8133 90.211 64.5C90.211 65.1867 90.051 65.81 89.731 66.37C89.4177 66.93 88.9843 67.37 88.431 67.69C87.8843 68.01 87.2843 68.17 86.631 68.17ZM86.631 67.44C87.1577 67.44 87.6343 67.3133 88.061 67.06C88.4877 66.8067 88.821 66.4567 89.061 66.01C89.3077 65.5567 89.431 65.0533 89.431 64.5C89.431 63.9467 89.3077 63.4467 89.061 63C88.821 62.5467 88.4877 62.1933 88.061 61.94C87.6343 61.6867 87.1577 61.56 86.631 61.56C86.1043 61.56 85.6277 61.6867 85.201 61.94C84.7743 62.1933 84.4377 62.5467 84.191 63C83.951 63.4467 83.831 63.9467 83.831 64.5C83.831 65.0533 83.951 65.5567 84.191 66.01C84.4377 66.4567 84.7743 66.8067 85.201 67.06C85.6277 67.3133 86.1043 67.44 86.631 67.44ZM91.7351 68C91.6684 68 91.6351 67.9667 91.6351 67.9V64.04C91.6351 64.0067 91.6184 63.99 91.5851 63.99H91.1851C91.1584 63.99 91.1351 63.9833 91.1151 63.97C91.0951 63.95 91.0851 63.9267 91.0851 63.9V63.46C91.0851 63.3933 91.1184 63.36 91.1851 63.36H91.5851C91.6184 63.36 91.6351 63.3433 91.6351 63.31V61.83C91.6351 61.4633 91.7284 61.1767 91.9151 60.97C92.1017 60.7567 92.3684 60.65 92.7151 60.65C92.8817 60.65 93.0651 60.6933 93.2651 60.78C93.3251 60.8133 93.3484 60.8533 93.3351 60.9L93.1951 61.37C93.1751 61.43 93.1317 61.4433 93.0651 61.41C92.9584 61.3567 92.8617 61.33 92.7751 61.33C92.6484 61.33 92.5484 61.3767 92.4751 61.47C92.4017 61.5633 92.3651 61.6967 92.3651 61.87V63.31C92.3651 63.3433 92.3817 63.36 92.4151 63.36H93.0351C93.1017 63.36 93.1351 63.3933 93.1351 63.46V63.9C93.1351 63.9267 93.1251 63.95 93.1051 63.97C93.0851 63.9833 93.0617 63.99 93.0351 63.99H92.4151C92.3817 63.99 92.3651 64.0067 92.3651 64.04V67.9C92.3651 67.9267 92.3551 67.95 92.3351 67.97C92.3217 67.99 92.3017 68 92.2751 68H91.7351ZM94.4109 68C94.3442 68 94.3109 67.9667 94.3109 67.9V64.04C94.3109 64.0067 94.2942 63.99 94.2609 63.99H93.8609C93.8342 63.99 93.8109 63.9833 93.7909 63.97C93.7709 63.95 93.7609 63.9267 93.7609 63.9V63.46C93.7609 63.3933 93.7942 63.36 93.8609 63.36H94.2609C94.2942 63.36 94.3109 63.3433 94.3109 63.31V61.83C94.3109 61.4633 94.4042 61.1767 94.5909 60.97C94.7775 60.7567 95.0442 60.65 95.3909 60.65C95.5575 60.65 95.7409 60.6933 95.9409 60.78C96.0009 60.8133 96.0242 60.8533 96.0109 60.9L95.8709 61.37C95.8509 61.43 95.8075 61.4433 95.7409 61.41C95.6342 61.3567 95.5375 61.33 95.4509 61.33C95.3242 61.33 95.2242 61.3767 95.1509 61.47C95.0775 61.5633 95.0409 61.6967 95.0409 61.87V63.31C95.0409 63.3433 95.0575 63.36 95.0909 63.36H95.7109C95.7775 63.36 95.8109 63.3933 95.8109 63.46V63.9C95.8109 63.9267 95.8009 63.95 95.7809 63.97C95.7609 63.9833 95.7375 63.99 95.7109 63.99H95.0909C95.0575 63.99 95.0409 64.0067 95.0409 64.04V67.9C95.0409 67.9267 95.0309 67.95 95.0109 67.97C94.9975 67.99 94.9775 68 94.9509 68H94.4109ZM97.1966 62.28C97.05 62.28 96.92 62.2267 96.8066 62.12C96.7 62.0067 96.6466 61.8767 96.6466 61.73C96.6466 61.5833 96.7 61.4567 96.8066 61.35C96.92 61.2433 97.05 61.19 97.1966 61.19C97.3366 61.19 97.46 61.2433 97.5666 61.35C97.6733 61.4567 97.7266 61.5833 97.7266 61.73C97.7266 61.8767 97.6733 62.0067 97.5666 62.12C97.46 62.2267 97.3366 62.28 97.1966 62.28ZM96.9166 68C96.85 68 96.8166 67.9667 96.8166 67.9V63.46C96.8166 63.3933 96.85 63.36 96.9166 63.36H97.4466C97.5133 63.36 97.5466 63.3933 97.5466 63.46V67.9C97.5466 67.9667 97.5133 68 97.4466 68H96.9166ZM98.7327 65.68C98.7327 65.2067 98.8294 64.7867 99.0227 64.42C99.2227 64.0533 99.4994 63.77 99.8527 63.57C100.206 63.3633 100.606 63.26 101.053 63.26C101.453 63.26 101.816 63.3467 102.143 63.52C102.476 63.6867 102.736 63.9267 102.923 64.24C102.929 64.2533 102.933 64.27 102.933 64.29C102.933 64.33 102.916 64.36 102.883 64.38L102.453 64.62L102.403 64.64C102.376 64.64 102.346 64.62 102.313 64.58C102.186 64.3733 102.013 64.2133 101.793 64.1C101.573 63.9867 101.326 63.93 101.053 63.93C100.573 63.93 100.189 64.0933 99.9027 64.42C99.6161 64.74 99.4727 65.16 99.4727 65.68C99.4727 66.2 99.6161 66.6233 99.9027 66.95C100.189 67.27 100.573 67.43 101.053 67.43C101.319 67.43 101.559 67.3733 101.773 67.26C101.993 67.1467 102.173 66.9867 102.313 66.78C102.353 66.72 102.399 66.7067 102.453 66.74L102.883 66.98C102.936 67.0133 102.949 67.06 102.923 67.12C102.763 67.44 102.513 67.6833 102.173 67.85C101.839 68.0167 101.466 68.1 101.053 68.1C100.606 68.1 100.206 68 99.8527 67.8C99.4994 67.5933 99.2227 67.3067 99.0227 66.94C98.8294 66.5733 98.7327 66.1533 98.7327 65.68ZM106.063 68.11C105.603 68.11 105.193 68.01 104.833 67.81C104.48 67.61 104.203 67.3267 104.003 66.96C103.803 66.5867 103.703 66.16 103.703 65.68C103.703 65.2 103.8 64.7767 103.993 64.41C104.193 64.0433 104.463 63.76 104.803 63.56C105.15 63.36 105.537 63.26 105.963 63.26C106.383 63.26 106.763 63.36 107.103 63.56C107.45 63.76 107.72 64.0367 107.913 64.39C108.107 64.7367 108.203 65.13 108.203 65.57C108.203 65.67 108.2 65.7467 108.193 65.8C108.18 65.8533 108.147 65.88 108.093 65.88H104.563C104.483 65.88 104.453 65.9233 104.473 66.01C104.527 66.45 104.693 66.8 104.973 67.06C105.26 67.32 105.623 67.45 106.063 67.45C106.563 67.45 107 67.2567 107.373 66.87C107.447 66.7967 107.503 66.7833 107.543 66.83L107.873 67.19C107.92 67.23 107.92 67.2733 107.873 67.32C107.633 67.5733 107.357 67.77 107.043 67.91C106.737 68.0433 106.41 68.11 106.063 68.11ZM107.333 65.3C107.413 65.3 107.443 65.26 107.423 65.18C107.357 64.8 107.19 64.4967 106.923 64.27C106.663 64.0367 106.343 63.92 105.963 63.92C105.583 63.92 105.257 64.04 104.983 64.28C104.717 64.5133 104.553 64.8167 104.493 65.19L104.483 65.24C104.483 65.28 104.517 65.3 104.583 65.3H107.333ZM109.866 66.83C110.052 66.83 110.206 66.8933 110.326 67.02C110.452 67.1467 110.516 67.3167 110.516 67.53C110.516 67.71 110.486 67.8733 110.426 68.02C110.372 68.1733 110.286 68.35 110.166 68.55L109.416 69.84C109.382 69.9067 109.336 69.92 109.276 69.88L108.936 69.66C108.882 69.6267 108.872 69.5833 108.906 69.53L109.676 68.21C109.689 68.19 109.696 68.1667 109.696 68.14C109.696 68.12 109.676 68.1 109.636 68.08C109.509 68.04 109.406 67.9667 109.326 67.86C109.252 67.7467 109.216 67.6167 109.216 67.47C109.216 67.2967 109.279 67.1467 109.406 67.02C109.532 66.8933 109.686 66.83 109.866 66.83ZM116.651 68.17C115.904 68.17 115.321 67.94 114.901 67.48C114.481 67.0133 114.271 66.39 114.271 65.61V61.1C114.271 61.0333 114.304 61 114.371 61H114.911C114.978 61 115.011 61.0333 115.011 61.1V65.54C115.011 66.1533 115.148 66.6267 115.421 66.96C115.701 67.2867 116.111 67.45 116.651 67.45C117.191 67.45 117.598 67.2867 117.871 66.96C118.151 66.6267 118.291 66.1533 118.291 65.54V61.1C118.291 61.0333 118.324 61 118.391 61H118.931C118.998 61 119.031 61.0333 119.031 61.1V65.61C119.031 66.39 118.821 67.0133 118.401 67.48C117.981 67.94 117.398 68.17 116.651 68.17ZM122.634 68.17C122.107 68.17 121.64 68.03 121.234 67.75C120.834 67.47 120.55 67.0833 120.384 66.59L120.374 66.55C120.374 66.51 120.397 66.48 120.444 66.46L120.954 66.25C120.967 66.2433 120.984 66.24 121.004 66.24C121.024 66.24 121.04 66.2467 121.054 66.26C121.067 66.2733 121.077 66.29 121.084 66.31C121.19 66.67 121.38 66.95 121.654 67.15C121.934 67.35 122.264 67.45 122.644 67.45C123.117 67.45 123.48 67.33 123.734 67.09C123.994 66.85 124.124 66.54 124.124 66.16C124.124 65.78 124.007 65.4767 123.774 65.25C123.547 65.0233 123.234 64.87 122.834 64.79L122.324 64.69C121.79 64.59 121.367 64.3767 121.054 64.05C120.747 63.7167 120.594 63.29 120.594 62.77C120.594 62.4167 120.684 62.0933 120.864 61.8C121.044 61.5 121.29 61.2633 121.604 61.09C121.924 60.9167 122.287 60.83 122.694 60.83C123.194 60.83 123.627 60.96 123.994 61.22C124.36 61.4733 124.627 61.8233 124.794 62.27C124.8 62.2767 124.804 62.29 124.804 62.31C124.804 62.35 124.78 62.38 124.734 62.4L124.214 62.62C124.2 62.6267 124.184 62.63 124.164 62.63C124.144 62.63 124.127 62.6233 124.114 62.61C124.1 62.5967 124.09 62.58 124.084 62.56C123.964 62.2467 123.777 62 123.524 61.82C123.277 61.64 123 61.55 122.694 61.55C122.287 61.55 121.964 61.6633 121.724 61.89C121.49 62.1167 121.374 62.4067 121.374 62.76C121.374 63.0733 121.467 63.3333 121.654 63.54C121.84 63.7467 122.117 63.8833 122.484 63.95L122.994 64.05C123.547 64.1633 124.004 64.39 124.364 64.73C124.724 65.07 124.904 65.53 124.904 66.11C124.904 66.4967 124.81 66.8467 124.624 67.16C124.444 67.4733 124.18 67.72 123.834 67.9C123.494 68.08 123.094 68.17 122.634 68.17ZM128.974 61C129.047 61 129.09 61.0367 129.104 61.11L131.164 67.89L131.174 67.93C131.174 67.9767 131.144 68 131.084 68H130.524C130.457 68 130.414 67.9733 130.394 67.92L129.954 66.42C129.934 66.3667 129.897 66.34 129.844 66.34H126.964C126.91 66.34 126.874 66.3667 126.854 66.42L126.414 67.92C126.394 67.9733 126.35 68 126.284 68H125.724C125.65 68 125.624 67.9633 125.644 67.89L127.704 61.11C127.717 61.0367 127.76 61 127.834 61H128.974ZM127.104 65.57C127.097 65.61 127.11 65.63 127.144 65.63H129.664C129.704 65.63 129.717 65.61 129.704 65.57L128.564 61.76C128.55 61.7267 128.53 61.71 128.504 61.71H128.304C128.277 61.71 128.257 61.7267 128.244 61.76L127.104 65.57Z" fill="black"></path>
  </g>
  <defs>
    <clipPath id="clip0_2007_206">
      <rect width="150" height="78" fill="white"></rect>
    </clipPath>
  </defs>
</svg>
