<?xml version="1.0" encoding="UTF-8"?>
<svg xmlns="http://www.w3.org/2000/svg" width="270" height="49" viewBox="0 0 270 49" fill="none">
  <g clip-path="url(#clip0_2007_773)">
    <path d="M269.525 0.499146H0.582031V48.3437H269.525V0.499146Z" fill="white"></path>
    <path d="M14.7083 21.6058C14.9712 21.74 15.189 21.9487 15.3345 22.206C15.4786 22.4707 15.5518 22.7683 15.547 23.0698C15.5508 23.3473 15.4793 23.6207 15.3401 23.8606C15.2085 24.0955 15.0151 24.2895 14.781 24.4215C14.7251 24.4552 14.7251 24.4888 14.781 24.5169C15.0529 24.6528 15.2828 24.8602 15.4464 25.117C15.6081 25.3818 15.6915 25.6872 15.6868 25.9977C15.6934 26.2297 15.6522 26.4606 15.5656 26.6758C15.479 26.8911 15.3489 27.0861 15.1836 27.2485C14.9893 27.4214 14.7628 27.5541 14.5171 27.6388C14.2714 27.7235 14.0115 27.7586 13.7522 27.742H11.9184C11.9059 27.743 11.8933 27.7411 11.8817 27.7366C11.87 27.7321 11.8595 27.725 11.8509 27.7158C11.8423 27.7067 11.8359 27.6957 11.8321 27.6838C11.8283 27.6718 11.8272 27.6591 11.8289 27.6467V21.4768C11.8272 21.4644 11.8283 21.4517 11.8321 21.4398C11.8359 21.4278 11.8423 21.4168 11.8509 21.4077C11.8595 21.3986 11.87 21.3915 11.8817 21.3869C11.8933 21.3824 11.9059 21.3805 11.9184 21.3815H13.7299C14.0695 21.3741 14.4056 21.4512 14.7083 21.6058ZM12.4998 22.077V24.1186C12.4989 24.1248 12.4994 24.131 12.5013 24.1369C12.5032 24.1428 12.5065 24.1481 12.5108 24.1525C12.5152 24.1569 12.5205 24.1601 12.5264 24.1621C12.5322 24.164 12.5385 24.1645 12.5446 24.1635H13.6628C13.9865 24.187 14.3069 24.0845 14.5574 23.8775C14.6627 23.777 14.7447 23.6547 14.7979 23.519C14.851 23.3834 14.8739 23.2377 14.8649 23.0922C14.8679 22.9471 14.8401 22.803 14.7832 22.6695C14.7263 22.536 14.6417 22.4162 14.535 22.3182C14.2845 22.1111 13.9642 22.0087 13.6404 22.0321H12.5222C12.5138 22.0358 12.507 22.0423 12.5029 22.0505C12.4989 22.0587 12.4978 22.0681 12.4998 22.077ZM12.4998 24.8815V27.0577C12.4989 27.0639 12.4994 27.0701 12.5013 27.076C12.5032 27.0819 12.5065 27.0872 12.5108 27.0916C12.5152 27.096 12.5205 27.0992 12.5264 27.1012C12.5322 27.1031 12.5385 27.1036 12.5446 27.1026H13.6628C14.0134 27.1269 14.3604 27.0189 14.6356 26.7997C14.8529 26.5739 14.9743 26.2723 14.9743 25.9584C14.9743 25.6445 14.8529 25.3429 14.6356 25.117C14.3604 24.8979 14.0134 24.7899 13.6628 24.8142H12.5446C12.5166 24.8254 12.4998 24.8422 12.4998 24.8759V24.8815Z" fill="black"></path>
    <path d="M17.6613 27.5681C17.3425 27.3859 17.081 27.1178 16.9065 26.794C16.7315 26.4342 16.6406 26.039 16.6406 25.6386C16.6406 25.2382 16.7315 24.8431 16.9065 24.4832C17.0759 24.1631 17.3291 23.8955 17.6389 23.7091C17.9574 23.5279 18.3183 23.435 18.6845 23.4399C19.0471 23.435 19.4043 23.528 19.7188 23.7091C20.0263 23.8884 20.2795 24.1482 20.4512 24.4607C20.6192 24.7939 20.7 25.1645 20.6861 25.5376C20.69 25.6068 20.69 25.6761 20.6861 25.7452C20.6821 25.766 20.671 25.7847 20.6546 25.798C20.6382 25.8114 20.6177 25.8185 20.5966 25.8181H17.4153C17.3407 25.8181 17.3128 25.8574 17.3314 25.9359C17.3634 26.2991 17.5264 26.6382 17.7899 26.8894C18.0583 27.1296 18.4089 27.2562 18.7683 27.2428C18.9916 27.2424 19.2123 27.1954 19.4164 27.1046C19.6205 27.0138 19.8035 26.8813 19.9536 26.7155C20.0207 26.6482 20.071 26.637 20.1102 26.6763L20.4065 27.0072C20.4512 27.0408 20.4512 27.0801 20.4065 27.125C20.1965 27.3491 19.9436 27.5284 19.6629 27.6522C19.3806 27.775 19.076 27.838 18.7683 27.8373C18.3823 27.8449 18.0009 27.7522 17.6613 27.5681ZM19.9984 25.1787C19.9537 24.8586 19.7948 24.5656 19.5511 24.3541C19.3114 24.1409 18.999 24.0284 18.6789 24.04C18.3567 24.0325 18.0434 24.1466 17.8011 24.3598C17.5495 24.5703 17.3826 24.8653 17.3314 25.1899V25.2404C17.3314 25.2796 17.3594 25.2965 17.4209 25.2965H19.9089C19.9928 25.2908 20.0207 25.2404 19.9984 25.1787Z" fill="black"></path>
    <path d="M23.6661 23.4512C23.7221 23.4512 23.7444 23.4512 23.7444 23.5409V24.0177C23.7444 24.0738 23.7444 24.1018 23.6829 24.1018H23.5543H23.4313C23.2305 24.097 23.0321 24.1466 22.857 24.2453C22.6819 24.344 22.5365 24.4882 22.4361 24.6627C22.3909 24.7284 22.3693 24.8075 22.3746 24.8871V27.6916C22.3765 27.7045 22.3753 27.7177 22.3712 27.7302C22.3671 27.7426 22.3601 27.7539 22.3509 27.7631C22.3417 27.7724 22.3304 27.7794 22.318 27.7835C22.3056 27.7876 22.2925 27.7888 22.2795 27.7869H21.8043C21.7428 27.7869 21.7148 27.7533 21.7148 27.6916V23.6194C21.7189 23.5995 21.7305 23.582 21.7472 23.5705C21.7639 23.559 21.7843 23.5544 21.8043 23.5577H22.2348C22.2472 23.556 22.2598 23.5571 22.2718 23.5609C22.2837 23.5648 22.2946 23.5712 22.3037 23.5798C22.3128 23.5884 22.3199 23.599 22.3244 23.6107C22.329 23.6224 22.3308 23.635 22.3299 23.6475V23.9784C22.3299 23.9784 22.3299 24.0177 22.3299 24.0233C22.3299 24.0289 22.3578 24.0233 22.3746 24.0233C22.5063 23.8507 22.6754 23.7105 22.8692 23.6133C23.0629 23.5161 23.2762 23.4645 23.4928 23.4624L23.6661 23.4512Z" fill="black"></path>
    <path d="M25.6735 27.2765V27.6859C25.6754 27.6982 25.6744 27.7107 25.6706 27.7224C25.6668 27.7342 25.6602 27.7449 25.6515 27.7536C25.6428 27.7624 25.6321 27.7689 25.6204 27.7728C25.6087 27.7766 25.5962 27.7776 25.584 27.7757H25.4219C25.1848 27.791 24.9503 27.7192 24.7621 27.5738C24.6771 27.4898 24.6118 27.3877 24.5712 27.2752C24.5306 27.1626 24.5156 27.0423 24.5273 26.9231V21.2637C24.5254 21.2514 24.5264 21.2389 24.5302 21.2272C24.534 21.2154 24.5406 21.2047 24.5493 21.196C24.558 21.1872 24.5687 21.1807 24.5804 21.1768C24.5921 21.173 24.6046 21.172 24.6168 21.1739H25.0976C25.1098 21.172 25.1223 21.173 25.134 21.1768C25.1457 21.1807 25.1564 21.1872 25.1651 21.196C25.1738 21.2047 25.1803 21.2154 25.1842 21.2272C25.188 21.2389 25.189 21.2514 25.1871 21.2637V26.8726C25.1871 27.0914 25.2765 27.198 25.461 27.198H25.584C25.5952 27.1963 25.6066 27.1972 25.6174 27.2004C25.6283 27.2036 25.6383 27.2091 25.6468 27.2166C25.6553 27.224 25.6621 27.2333 25.6667 27.2436C25.6713 27.2539 25.6736 27.2652 25.6735 27.2765Z" fill="black"></path>
    <path d="M26.6299 22.4023C26.5826 22.3566 26.5453 22.3016 26.5203 22.2408C26.4953 22.18 26.4831 22.1147 26.4845 22.0489C26.4833 21.9848 26.4956 21.9212 26.5207 21.8622C26.5457 21.8032 26.5829 21.7503 26.6299 21.7067C26.722 21.6145 26.8464 21.5622 26.9765 21.5609C27.0393 21.5612 27.1015 21.5742 27.1592 21.5993C27.2168 21.6244 27.2688 21.6609 27.312 21.7067C27.3589 21.7503 27.3961 21.8032 27.4211 21.8622C27.4462 21.9212 27.4585 21.9848 27.4573 22.0489C27.4587 22.1147 27.4465 22.18 27.4215 22.2408C27.3965 22.3016 27.3592 22.3566 27.312 22.4023C27.2697 22.4492 27.2178 22.4865 27.16 22.5116C27.1021 22.5368 27.0396 22.5492 26.9765 22.5481C26.9119 22.5487 26.8478 22.5361 26.7882 22.511C26.7286 22.4859 26.6747 22.4489 26.6299 22.4023ZM26.6299 27.6467V23.6194C26.6318 23.609 26.6359 23.5991 26.6418 23.5903C26.6477 23.5814 26.6553 23.5739 26.6642 23.5682C26.6731 23.5624 26.6831 23.5585 26.6935 23.5567C26.7039 23.5549 26.7146 23.5552 26.7249 23.5577H27.2057C27.2179 23.5558 27.2304 23.5568 27.2421 23.5606C27.2538 23.5645 27.2645 23.571 27.2732 23.5798C27.2819 23.5885 27.2885 23.5992 27.2923 23.611C27.2961 23.6227 27.2971 23.6352 27.2952 23.6475V27.6747C27.2952 27.7364 27.2952 27.77 27.2057 27.77H26.7249C26.6634 27.742 26.6354 27.7084 26.6354 27.6467H26.6299Z" fill="black"></path>
    <path d="M29.1923 27.742H28.7115C28.65 27.742 28.622 27.7083 28.622 27.6466V23.6194C28.6201 23.6072 28.6211 23.5946 28.6249 23.5829C28.6288 23.5711 28.6353 23.5604 28.644 23.5517C28.6527 23.5429 28.6634 23.5364 28.6751 23.5325C28.6869 23.5287 28.6993 23.5277 28.7115 23.5296H29.1476C29.1598 23.5277 29.1722 23.5287 29.184 23.5325C29.1957 23.5364 29.2064 23.5429 29.2151 23.5517C29.2238 23.5604 29.2303 23.5711 29.2342 23.5829C29.238 23.5946 29.239 23.6072 29.2371 23.6194V23.9223C29.2371 23.9223 29.2371 23.9615 29.2371 23.9671C29.2371 23.9727 29.2706 23.9671 29.2874 23.9671C29.4208 23.8122 29.5845 23.6862 29.7682 23.5969C29.9609 23.5079 30.1711 23.4638 30.3832 23.4679C30.5696 23.4532 30.757 23.4787 30.9327 23.5427C31.1084 23.6067 31.2684 23.7078 31.4019 23.839C31.5354 23.9703 31.6394 24.1288 31.7067 24.3037C31.774 24.4787 31.8032 24.6661 31.7922 24.8533V27.6578C31.7922 27.7195 31.7922 27.7532 31.7027 27.7532H31.2219C31.1604 27.7532 31.1324 27.7195 31.1324 27.6578V24.9375C31.1487 24.6897 31.0663 24.4456 30.9032 24.2588C30.8165 24.1781 30.7142 24.116 30.6026 24.0765C30.4911 24.0369 30.3727 24.0207 30.2546 24.0288C30.0566 24.0221 29.8613 24.077 29.6955 24.1859C29.5244 24.2967 29.384 24.4491 29.2874 24.629C29.2588 24.6885 29.2436 24.7536 29.2427 24.8197V27.6242C29.2818 27.7083 29.2538 27.742 29.1923 27.742Z" fill="black"></path>
    <path d="M38.5382 21.6057C38.7912 21.7437 38.9989 21.9521 39.1365 22.2059C39.2805 22.4706 39.3537 22.7682 39.3489 23.0697C39.3527 23.3472 39.2812 23.6206 39.1421 23.8605C39.0093 24.0945 38.8162 24.2883 38.583 24.4214C38.5215 24.4551 38.5215 24.4887 38.583 24.5168C38.8528 24.6535 39.0807 24.8609 39.2427 25.1169C39.4044 25.3817 39.4878 25.6871 39.4831 25.9976C39.4898 26.2296 39.4485 26.4605 39.3619 26.6757C39.2753 26.891 39.1453 27.086 38.9799 27.2484C38.7856 27.4213 38.5591 27.554 38.3134 27.6387C38.0678 27.7234 37.8078 27.7585 37.5486 27.7419H35.7483C35.7353 27.7438 35.7222 27.7427 35.7098 27.7385C35.6974 27.7344 35.6861 27.7274 35.6769 27.7182C35.6677 27.7089 35.6607 27.6976 35.6566 27.6852C35.6525 27.6728 35.6513 27.6596 35.6532 27.6466V21.4767C35.6513 21.4638 35.6525 21.4505 35.6566 21.4381C35.6607 21.4257 35.6677 21.4144 35.6769 21.4051C35.6861 21.3959 35.6974 21.3889 35.7098 21.3848C35.7222 21.3807 35.7353 21.3795 35.7483 21.3814H37.5542C37.8955 21.3747 38.2333 21.4517 38.5382 21.6057ZM36.3018 22.0769V24.1185C36.3008 24.1247 36.3013 24.1309 36.3032 24.1368C36.3051 24.1427 36.3084 24.148 36.3128 24.1524C36.3171 24.1568 36.3225 24.16 36.3283 24.162C36.3342 24.1639 36.3404 24.1644 36.3465 24.1634H37.4647C37.7902 24.1866 38.1121 24.0843 38.3649 23.8774C38.4693 23.7762 38.5508 23.6538 38.6038 23.5183C38.6569 23.3828 38.6803 23.2375 38.6724 23.0921C38.6801 22.9451 38.6566 22.7981 38.6036 22.6608C38.5506 22.5236 38.4693 22.3991 38.3649 22.2956C38.1074 22.0953 37.7835 22.0011 37.4591 22.032H36.3409C36.3364 22.0386 36.3339 22.0464 36.3339 22.0544C36.3339 22.0625 36.3364 22.0703 36.3409 22.0769H36.3018ZM36.3018 24.8814V27.0577C36.3008 27.0638 36.3013 27.07 36.3032 27.0759C36.3051 27.0818 36.3084 27.0871 36.3128 27.0915C36.3171 27.0959 36.3225 27.0991 36.3283 27.1011C36.3342 27.103 36.3404 27.1035 36.3465 27.1025H37.4647C37.8154 27.1279 38.1628 27.0198 38.4376 26.7996C38.6549 26.5738 38.7763 26.2722 38.7763 25.9583C38.7763 25.6444 38.6549 25.3428 38.4376 25.1169C38.1628 24.8968 37.8154 24.7887 37.4647 24.8141H36.3465C36.3465 24.8141 36.3409 24.8421 36.3409 24.8758L36.3018 24.8814Z" fill="black"></path>
    <path d="M43.3148 23.5577H43.7956C43.8078 23.5558 43.8203 23.5568 43.832 23.5606C43.8437 23.5644 43.8544 23.571 43.8631 23.5797C43.8718 23.5885 43.8784 23.5992 43.8822 23.611C43.886 23.6227 43.887 23.6352 43.8851 23.6474V27.6747C43.8851 27.7364 43.8851 27.77 43.7956 27.77H43.3595C43.347 27.771 43.3345 27.7691 43.3228 27.7646C43.3112 27.7601 43.3007 27.753 43.2921 27.7438C43.2835 27.7347 43.2771 27.7237 43.2733 27.7118C43.2695 27.6998 43.2684 27.6871 43.2701 27.6747V27.3774C43.2701 27.3774 43.2701 27.3381 43.2701 27.3325C43.2701 27.3269 43.2365 27.3325 43.2142 27.3325C43.0785 27.4964 42.9071 27.6266 42.7132 27.7132C42.5192 27.7998 42.308 27.8403 42.0959 27.8317C41.9055 27.8445 41.7146 27.8161 41.5362 27.7483C41.3577 27.6806 41.1958 27.5751 41.0616 27.4391C40.9372 27.3055 40.8405 27.1485 40.7772 26.9771C40.7139 26.8057 40.6851 26.6234 40.6926 26.4407V23.6362C40.6917 23.6242 40.6935 23.6122 40.6977 23.6009C40.7019 23.5897 40.7085 23.5794 40.7169 23.5709C40.7254 23.5624 40.7356 23.5558 40.7468 23.5516C40.7581 23.5474 40.7701 23.5456 40.782 23.5465H41.2629C41.275 23.5446 41.2875 23.5456 41.2992 23.5494C41.311 23.5532 41.3216 23.5598 41.3303 23.5685C41.3391 23.5773 41.3456 23.588 41.3494 23.5997C41.3532 23.6115 41.3542 23.624 41.3523 23.6362V26.3622C41.3438 26.4841 41.3596 26.6064 41.399 26.722C41.4384 26.8376 41.5005 26.9441 41.5816 27.0353C41.6674 27.1175 41.7695 27.181 41.8811 27.2215C41.9928 27.2621 42.1116 27.2789 42.2301 27.2708C42.4278 27.2747 42.6223 27.2201 42.7892 27.1138C42.9605 27.0032 43.101 26.8507 43.1974 26.6707C43.2259 26.6111 43.2412 26.546 43.2421 26.48V23.6755C43.235 23.6632 43.2313 23.6492 43.2315 23.635C43.2317 23.6207 43.2358 23.6068 43.2433 23.5947C43.2507 23.5826 43.2613 23.5728 43.2739 23.5663C43.2865 23.5598 43.3006 23.5568 43.3148 23.5577Z" fill="black"></path>
    <path d="M45.4557 27.5681C45.211 27.3864 45.0307 27.1309 44.9413 26.8389V26.8053C44.9421 26.788 44.9486 26.7715 44.9597 26.7584C44.9708 26.7452 44.986 26.736 45.0028 26.7324L45.4389 26.5809H45.4724C45.5116 26.5809 45.5395 26.5809 45.5563 26.6538C45.6051 26.8371 45.7157 26.9977 45.8694 27.1082C46.0125 27.2124 46.1845 27.2693 46.3614 27.2708C46.5643 27.2816 46.7639 27.2155 46.9205 27.0857C46.9862 27.0254 47.0382 26.9516 47.0729 26.8693C47.1077 26.7871 47.1243 26.6983 47.1218 26.609C47.126 26.5233 47.1106 26.4377 47.0766 26.359C47.0427 26.2802 46.9912 26.2103 46.9261 26.1546C46.7637 26.03 46.5703 25.9524 46.367 25.9303L46.0036 25.8574C45.7239 25.8004 45.4717 25.6502 45.2879 25.4311C45.1333 25.2365 45.0409 24.9995 45.0229 24.7512C45.005 24.503 45.0623 24.2551 45.1873 24.0401C45.3053 23.8499 45.4737 23.6965 45.6737 23.597C45.9008 23.4837 46.1527 23.4297 46.4062 23.4399C46.71 23.4297 47.0088 23.5204 47.256 23.6979C47.4941 23.884 47.6634 24.1446 47.7368 24.4383V24.472C47.7368 24.5112 47.7089 24.5393 47.6642 24.5561L47.2392 24.6627H47.2001C47.1665 24.6627 47.1386 24.6627 47.1274 24.5897C47.0901 24.4234 46.9998 24.2738 46.8702 24.1635C46.7353 24.0563 46.5669 24.0007 46.395 24.0064C46.2099 23.9998 46.0288 24.0617 45.8862 24.1803C45.8234 24.2342 45.7732 24.3013 45.7394 24.377C45.7055 24.4526 45.6888 24.5349 45.6905 24.6178C45.6849 24.6942 45.6961 24.771 45.7231 24.8426C45.7502 24.9143 45.7924 24.9792 45.847 25.0328C45.9757 25.1466 46.1354 25.2189 46.3055 25.2404L46.6578 25.3133C46.9694 25.3656 47.2569 25.5147 47.4796 25.7396C47.6898 25.9845 47.7991 26.3005 47.7856 26.6234C47.7722 26.9463 47.6368 27.2519 47.407 27.4784C47.1311 27.6929 46.7954 27.8158 46.4466 27.8299C46.0979 27.844 45.7534 27.7485 45.4613 27.5569L45.4557 27.5681Z" fill="black"></path>
    <path d="M48.8502 22.4023C48.8022 22.3569 48.7641 22.3021 48.7381 22.2413C48.7121 22.1805 48.6989 22.115 48.6992 22.0489C48.6991 21.9844 48.7124 21.9207 48.7385 21.8617C48.7645 21.8028 48.8025 21.75 48.8502 21.7067C48.9423 21.6145 49.0667 21.5622 49.1968 21.5609C49.2597 21.5612 49.3218 21.5742 49.3795 21.5993C49.4372 21.6244 49.4891 21.6609 49.5323 21.7067C49.5792 21.7503 49.6164 21.8032 49.6415 21.8622C49.6665 21.9212 49.6789 21.9848 49.6777 22.0489C49.6791 22.1147 49.6668 22.18 49.6418 22.2408C49.6168 22.3016 49.5795 22.3566 49.5323 22.4023C49.49 22.4492 49.4382 22.4865 49.3803 22.5116C49.3224 22.5368 49.2599 22.5492 49.1968 22.5481C49.1322 22.5487 49.0681 22.5361 49.0085 22.511C48.9489 22.4859 48.895 22.4489 48.8502 22.4023ZM48.8502 27.6467V23.6194C48.8483 23.6072 48.8493 23.5947 48.8531 23.5829C48.8569 23.5712 48.8634 23.5605 48.8722 23.5517C48.8809 23.543 48.8915 23.5364 48.9033 23.5326C48.915 23.5287 48.9275 23.5277 48.9396 23.5297H49.4205C49.4327 23.5277 49.4451 23.5287 49.4569 23.5326C49.4686 23.5364 49.4792 23.543 49.488 23.5517C49.4967 23.5605 49.5032 23.5712 49.507 23.5829C49.5109 23.5947 49.5118 23.6072 49.5099 23.6194V27.6467C49.5099 27.7084 49.5099 27.742 49.4205 27.742H48.9396C48.8837 27.742 48.8558 27.7084 48.8558 27.6467H48.8502Z" fill="black"></path>
    <path d="M51.4384 27.7419H50.9576C50.8961 27.7419 50.8681 27.7083 50.8681 27.6466V23.6193C50.8662 23.6071 50.8672 23.5946 50.871 23.5828C50.8749 23.5711 50.8814 23.5604 50.8901 23.5516C50.8988 23.5429 50.9095 23.5363 50.9212 23.5325C50.9329 23.5287 50.9454 23.5277 50.9576 23.5296H51.3937C51.4059 23.5277 51.4183 23.5287 51.4301 23.5325C51.4418 23.5363 51.4525 23.5429 51.4612 23.5516C51.4699 23.5604 51.4764 23.5711 51.4802 23.5828C51.4841 23.5946 51.4851 23.6071 51.4832 23.6193V23.9222C51.4832 23.9222 51.4832 23.9615 51.4832 23.9671C51.4832 23.9727 51.5167 23.9671 51.5335 23.9671C51.6581 23.7997 51.8162 23.6603 51.9975 23.5576C52.1902 23.4686 52.4005 23.4244 52.6126 23.4286C52.7989 23.4139 52.9863 23.4394 53.162 23.5034C53.3377 23.5674 53.4977 23.6684 53.6313 23.7997C53.7648 23.931 53.8687 24.0895 53.936 24.2644C54.0033 24.4394 54.0325 24.6268 54.0215 24.814V27.6185C54.0215 27.6802 54.0215 27.7139 53.9321 27.7139H53.4512C53.3897 27.7139 53.3618 27.6802 53.3618 27.6185V24.9374C53.378 24.6897 53.2956 24.4456 53.1325 24.2588C53.0456 24.1783 52.9433 24.1165 52.8318 24.0769C52.7203 24.0374 52.602 24.021 52.484 24.0288C52.2859 24.0221 52.0906 24.0769 51.9249 24.1858C51.7537 24.2966 51.6133 24.4491 51.5167 24.6289C51.4881 24.6885 51.4729 24.7536 51.472 24.8197V27.6241C51.4999 27.7083 51.472 27.7419 51.4384 27.7419Z" fill="black"></path>
    <path d="M56.0904 27.5681C55.7756 27.3864 55.5194 27.1177 55.3524 26.794C55.1665 26.4358 55.0723 26.0368 55.0784 25.633C55.0721 25.2327 55.1663 24.8373 55.3524 24.4832C55.5218 24.1631 55.775 23.8955 56.0848 23.7091C56.4033 23.5279 56.7642 23.435 57.1304 23.4399C57.493 23.435 57.8502 23.528 58.1647 23.7091C58.4718 23.8872 58.7235 24.1474 58.8916 24.4607C59.0718 24.7903 59.1625 25.1618 59.1543 25.5376C59.1543 25.6274 59.1543 25.6947 59.1543 25.7452C59.1492 25.7664 59.137 25.7852 59.1197 25.7985C59.1024 25.8118 59.0811 25.8187 59.0593 25.8181H55.8388C55.7661 25.8181 55.7438 25.8574 55.7605 25.9359C55.79 26.2998 55.9534 26.6397 56.219 26.8894C56.4868 27.1306 56.8379 27.2574 57.1975 27.2428C57.4207 27.2424 57.6415 27.1954 57.8456 27.1046C58.0497 27.0138 58.2326 26.8813 58.3828 26.7155C58.4499 26.6482 58.5002 26.637 58.5337 26.6763L58.8356 27.0072C58.8729 27.0408 58.8729 27.0801 58.8356 27.125C58.6248 27.3507 58.3697 27.5302 58.0864 27.6522C57.8063 27.7758 57.5034 27.8389 57.1975 27.8373C56.8115 27.8449 56.4301 27.7522 56.0904 27.5681ZM58.4275 25.1787C58.3804 24.8594 58.2219 24.5672 57.9802 24.3541C57.7393 24.1429 57.4278 24.0307 57.108 24.04C56.7841 24.0322 56.4689 24.1462 56.2246 24.3598C55.9829 24.5751 55.8245 24.869 55.7773 25.1899V25.2348C55.7773 25.274 55.8109 25.2908 55.8724 25.2908H58.3548C58.4163 25.2908 58.4443 25.2404 58.4275 25.1787Z" fill="black"></path>
    <path d="M60.3504 27.5681C60.1057 27.3864 59.9255 27.1309 59.836 26.8389V26.8053C59.8368 26.788 59.8433 26.7716 59.8544 26.7584C59.8655 26.7452 59.8807 26.7361 59.8975 26.7324L60.3336 26.5809H60.3672C60.4063 26.5809 60.4343 26.5809 60.451 26.6538C60.4998 26.8371 60.6105 26.9977 60.7641 27.1082C60.9069 27.2131 61.0791 27.2701 61.2561 27.2708C61.459 27.2816 61.6586 27.2155 61.8152 27.0857C61.8809 27.0254 61.9329 26.9516 61.9676 26.8693C62.0024 26.7871 62.019 26.6983 62.0165 26.609C62.0207 26.5233 62.0053 26.4378 61.9713 26.359C61.9374 26.2802 61.8859 26.2103 61.8208 26.1546C61.6584 26.03 61.465 25.9524 61.2617 25.9303L60.8983 25.8574C60.6136 25.8083 60.3547 25.6616 60.1659 25.4423C60.0112 25.2477 59.9188 25.0107 59.9009 24.7624C59.8829 24.5142 59.9402 24.2663 60.0652 24.0513C60.1832 23.8611 60.3516 23.7077 60.5517 23.6082C60.7687 23.5003 61.0084 23.4465 61.2506 23.4511C61.5528 23.44 61.85 23.5309 62.0948 23.7091C62.3363 23.8931 62.5079 24.1543 62.5812 24.4495V24.4832C62.5812 24.5224 62.5533 24.5505 62.5085 24.5673L62.0836 24.6739H62.0445C62.0109 24.6739 61.983 24.6739 61.9718 24.601C61.9345 24.4346 61.8442 24.285 61.7146 24.1747C61.5797 24.0676 61.4113 24.0119 61.2394 24.0176C61.0542 24.0105 60.8729 24.0724 60.7306 24.1915C60.6678 24.2454 60.6176 24.3126 60.5838 24.3882C60.5499 24.4639 60.5332 24.5461 60.5349 24.629C60.5293 24.7054 60.5405 24.7822 60.5675 24.8539C60.5946 24.9256 60.6368 24.9905 60.6914 25.0441C60.8201 25.1578 60.9798 25.2301 61.1499 25.2516L61.5021 25.3245C61.8138 25.3768 62.1013 25.5259 62.324 25.7508C62.5341 25.9958 62.6435 26.3117 62.63 26.6346C62.6165 26.9575 62.4812 27.2631 62.2514 27.4896C61.9598 27.735 61.5858 27.8594 61.2058 27.8373C60.8997 27.8391 60.6006 27.745 60.3504 27.5681Z" fill="black"></path>
    <path d="M63.9854 27.5681C63.7407 27.3875 63.562 27.1313 63.4766 26.8389V26.8053C63.4774 26.788 63.4839 26.7715 63.495 26.7583C63.5061 26.7452 63.5212 26.736 63.5381 26.7323L63.9742 26.5809H64.0077C64.0469 26.5809 64.0748 26.5809 64.0916 26.6538C64.1404 26.8371 64.251 26.9976 64.4047 27.1081C64.5478 27.2124 64.7198 27.2693 64.8967 27.2708C65.0996 27.2816 65.2992 27.2155 65.4558 27.0857C65.5215 27.0254 65.5735 26.9516 65.6082 26.8693C65.6429 26.787 65.6596 26.6982 65.6571 26.6089C65.6613 26.5232 65.6458 26.4377 65.6119 26.359C65.578 26.2802 65.5265 26.2103 65.4614 26.1546C65.299 26.0299 65.1056 25.9523 64.9023 25.9303L64.5389 25.8573C64.2546 25.807 63.9962 25.6605 63.8064 25.4423C63.6262 25.2256 63.5308 24.9504 63.5381 24.6682C63.5348 24.45 63.595 24.2356 63.7114 24.0513C63.8257 23.8601 63.9927 23.7062 64.1922 23.6081C64.4093 23.5003 64.649 23.4464 64.8911 23.4511C65.195 23.4409 65.4937 23.5316 65.741 23.7091C65.9791 23.8952 66.1483 24.1558 66.2218 24.4495V24.4831C66.2218 24.5224 66.1938 24.5504 66.1491 24.5673L65.7242 24.6738H65.6851C65.6515 24.6738 65.6291 24.6738 65.6124 24.6009C65.575 24.4346 65.4848 24.285 65.3552 24.1746C65.2203 24.0675 65.0519 24.0119 64.8799 24.0176C64.6948 24.011 64.5137 24.0728 64.3711 24.1915C64.3083 24.2454 64.2582 24.3125 64.2243 24.3882C64.1905 24.4638 64.1738 24.5461 64.1755 24.629C64.1699 24.7054 64.181 24.7822 64.2081 24.8538C64.2351 24.9255 64.2774 24.9904 64.332 25.044C64.4811 25.1654 64.6657 25.2343 64.8576 25.2404L65.2098 25.3133C65.5219 25.3645 65.8096 25.5137 66.0317 25.7396C66.1376 25.8526 66.2199 25.9858 66.2737 26.1312C66.3275 26.2767 66.3517 26.4315 66.3448 26.5865C66.3513 26.7547 66.32 26.9221 66.2532 27.0765C66.1864 27.2309 66.0859 27.3682 65.959 27.4783C65.6832 27.6929 65.3475 27.8158 64.9987 27.8298C64.6499 27.8439 64.3055 27.7485 64.0133 27.5569L63.9854 27.5681Z" fill="black"></path>
    <path d="M71.1008 27.4839C70.6081 27.1981 70.2022 26.7832 69.9266 26.2836C69.6491 25.7664 69.5039 25.1882 69.5039 24.6009C69.5039 24.0136 69.6491 23.4354 69.9266 22.9182C70.2007 22.419 70.6071 22.0055 71.1008 21.7235C71.5975 21.4371 72.1604 21.2864 72.7334 21.2864C73.3063 21.2864 73.8692 21.4371 74.366 21.7235C74.8597 22.0055 75.266 22.419 75.5401 22.9182C75.8176 23.4354 75.9628 24.0136 75.9628 24.6009C75.9628 25.1882 75.8176 25.7664 75.5401 26.2836C75.263 26.7839 74.8551 27.1989 74.3604 27.4839C73.8625 27.7671 73.3 27.9159 72.7278 27.9159C72.1555 27.9159 71.593 27.7671 71.0952 27.4839H71.1008ZM74.0249 26.923C74.4085 26.6811 74.7181 26.3375 74.9195 25.9302C75.1362 25.5078 75.2493 25.0396 75.2493 24.5644C75.2493 24.0893 75.1362 23.6211 74.9195 23.1987C74.7085 22.8016 74.3934 22.4699 74.0081 22.2395C73.6144 22.0153 73.1693 21.8975 72.7166 21.8975C72.2638 21.8975 71.8188 22.0153 71.425 22.2395C71.0385 22.4683 70.723 22.8004 70.5137 23.1987C70.2969 23.6211 70.1838 24.0893 70.1838 24.5644C70.1838 25.0396 70.2969 25.5078 70.5137 25.9302C70.723 26.3285 71.0385 26.6606 71.425 26.8894C71.8188 27.1136 72.2638 27.2314 72.7166 27.2314C73.1693 27.2314 73.6144 27.1136 74.0081 26.8894L74.0249 26.923Z" fill="black"></path>
    <path d="M77.265 27.6467V24.1467C77.266 24.1406 77.2655 24.1343 77.2636 24.1284C77.2616 24.1226 77.2584 24.1172 77.254 24.1128C77.2497 24.1085 77.2443 24.1052 77.2385 24.1033C77.2326 24.1013 77.2264 24.1008 77.2203 24.1018H76.8569C76.8371 24.1096 76.8151 24.1096 76.7954 24.1018C76.7912 24.0921 76.7891 24.0816 76.7891 24.071C76.7891 24.0604 76.7912 24.0499 76.7954 24.0401V23.6419C76.7945 23.6299 76.7963 23.6178 76.8005 23.6066C76.8047 23.5953 76.8112 23.5851 76.8197 23.5766C76.8282 23.5681 76.8384 23.5615 76.8496 23.5573C76.8609 23.553 76.8728 23.5513 76.8848 23.5521H77.2482C77.2482 23.5521 77.293 23.5521 77.293 23.5073V22.1443C77.2744 21.86 77.3643 21.5792 77.5446 21.359C77.638 21.2615 77.7513 21.1855 77.8767 21.1361C78.0022 21.0867 78.1369 21.0652 78.2714 21.073C78.4435 21.0783 78.6127 21.1183 78.769 21.1907C78.8249 21.1907 78.8417 21.2581 78.8305 21.2973L78.7075 21.7236C78.7075 21.7797 78.646 21.7909 78.5845 21.7629C78.5059 21.7181 78.4177 21.693 78.3273 21.6899C78.2752 21.6873 78.2232 21.6971 78.1755 21.7186C78.1279 21.74 78.086 21.7725 78.0534 21.8133C77.9787 21.9195 77.9432 22.0484 77.9527 22.1779V23.4848C77.9527 23.5185 77.9527 23.5297 77.9974 23.5297H78.5566C78.5685 23.5289 78.5805 23.5306 78.5917 23.5348C78.603 23.539 78.6132 23.5456 78.6216 23.5541C78.6301 23.5626 78.6367 23.5729 78.6409 23.5841C78.6451 23.5954 78.6468 23.6074 78.646 23.6194V24.0177C78.6462 24.0294 78.6438 24.041 78.639 24.0517C78.6342 24.0624 78.627 24.0718 78.6181 24.0794C78.5983 24.0872 78.5763 24.0872 78.5566 24.0794H77.9974C77.9914 24.0784 77.9851 24.0789 77.9793 24.0808C77.9734 24.0827 77.9681 24.086 77.9637 24.0904C77.9593 24.0948 77.9561 24.1001 77.9542 24.106C77.9523 24.1119 77.9518 24.1181 77.9527 24.1242V27.6242C77.9614 27.6458 77.9614 27.67 77.9527 27.6915C77.9464 27.7004 77.938 27.7076 77.9282 27.7125C77.9185 27.7174 77.9077 27.7198 77.8968 27.7196H77.4048C77.3921 27.7312 77.3762 27.7387 77.3591 27.7409C77.3421 27.7432 77.3247 27.7401 77.3095 27.7322C77.2942 27.7242 77.2818 27.7117 77.2738 27.6964C77.2659 27.6812 77.2628 27.6638 77.265 27.6467Z" fill="black"></path>
    <path d="M79.7721 27.6466V24.1466C79.7721 24.1466 79.7721 24.1017 79.7274 24.1017H79.3919C79.3704 24.1104 79.3464 24.1104 79.3248 24.1017C79.3159 24.0942 79.3087 24.0847 79.3039 24.074C79.2991 24.0634 79.2967 24.0517 79.2969 24.04V23.6418C79.2968 23.6297 79.2993 23.6178 79.3042 23.6068C79.3091 23.5957 79.3163 23.5859 79.3253 23.5779C79.3343 23.57 79.3449 23.564 79.3564 23.5605C79.3679 23.557 79.38 23.556 79.3919 23.5576H79.7498C79.7833 23.5576 79.7945 23.5576 79.7945 23.5128V22.1442C79.7775 21.8591 79.8695 21.5783 80.0517 21.3589C80.1435 21.261 80.2558 21.1845 80.3805 21.1351C80.5051 21.0856 80.6391 21.0644 80.7729 21.0729C80.9451 21.0775 81.1145 21.1176 81.2705 21.1906C81.3265 21.1906 81.3432 21.258 81.3321 21.2972L81.209 21.7235C81.209 21.7796 81.1475 21.7908 81.0916 21.7628C81.0114 21.7171 80.9211 21.692 80.8289 21.6898C80.7767 21.6872 80.7247 21.697 80.6771 21.7185C80.6294 21.7399 80.5876 21.7724 80.5549 21.8132C80.4803 21.9194 80.4447 22.0483 80.4542 22.1778V23.4847C80.4542 23.5184 80.4543 23.5296 80.5046 23.5296H81.0637C81.0759 23.5277 81.0883 23.5287 81.1 23.5325C81.1118 23.5363 81.1224 23.5429 81.1312 23.5516C81.1399 23.5604 81.1464 23.5711 81.1502 23.5828C81.1541 23.5946 81.155 23.6071 81.1531 23.6193V24.0176C81.1534 24.0293 81.151 24.0409 81.1461 24.0516C81.1413 24.0623 81.1341 24.0717 81.1252 24.0793C81.1054 24.0871 81.0834 24.0871 81.0637 24.0793H80.5046C80.471 24.0793 80.4542 24.0793 80.4542 24.1241V27.6241C80.4629 27.6457 80.4629 27.6699 80.4542 27.6914C80.4479 27.7003 80.4395 27.7075 80.4298 27.7124C80.42 27.7173 80.4092 27.7197 80.3983 27.7195H79.9119C79.8992 27.7311 79.8833 27.7386 79.8662 27.7408C79.8492 27.7431 79.8319 27.74 79.8166 27.7321C79.8014 27.7241 79.7889 27.7116 79.781 27.6963C79.773 27.6811 79.7699 27.6637 79.7721 27.6466Z" fill="black"></path>
    <path d="M82.0439 22.4022C81.9977 22.3558 81.9611 22.3007 81.9361 22.2401C81.9112 22.1794 81.8984 22.1145 81.8985 22.0489C81.8986 21.985 81.9116 21.9218 81.9366 21.863C81.9615 21.8042 81.998 21.7511 82.0439 21.7067C82.0902 21.6604 82.1451 21.6237 82.2055 21.5987C82.266 21.5736 82.3307 21.5608 82.3961 21.5609C82.5227 21.5633 82.6433 21.6157 82.7316 21.7067C82.7767 21.7514 82.8123 21.8047 82.8363 21.8635C82.8603 21.9223 82.8723 21.9853 82.8714 22.0489C82.8725 22.1141 82.8607 22.179 82.8367 22.2396C82.8127 22.3003 82.777 22.3555 82.7316 22.4022C82.6886 22.4483 82.6367 22.4851 82.579 22.5102C82.5212 22.5352 82.459 22.5482 82.3961 22.5481C82.3305 22.5495 82.2654 22.5372 82.2048 22.5121C82.1442 22.487 82.0894 22.4496 82.0439 22.4022ZM82.0439 27.6466V23.6194C82.043 23.6074 82.0448 23.5954 82.049 23.5841C82.0532 23.5728 82.0598 23.5626 82.0682 23.5541C82.0767 23.5456 82.0869 23.539 82.0981 23.5348C82.1094 23.5306 82.1214 23.5288 82.1333 23.5296H82.6142C82.6263 23.5277 82.6388 23.5287 82.6505 23.5326C82.6623 23.5364 82.6729 23.543 82.6816 23.5517C82.6904 23.5604 82.6969 23.5711 82.7007 23.5829C82.7045 23.5947 82.7055 23.6072 82.7036 23.6194V27.6466C82.7036 27.7083 82.6757 27.742 82.6142 27.742H82.1333C82.1213 27.7421 82.1094 27.7396 82.0984 27.7347C82.0874 27.7298 82.0776 27.7226 82.0697 27.7135C82.0617 27.7045 82.0558 27.6938 82.0523 27.6823C82.0488 27.6707 82.0479 27.6586 82.0495 27.6466H82.0439Z" fill="black"></path>
    <path d="M84.0125 24.4944C84.1811 24.1687 84.4392 23.8982 84.7561 23.7148C85.0868 23.5278 85.4613 23.433 85.8408 23.4399C86.1842 23.4363 86.5235 23.5151 86.8304 23.6699C87.1239 23.8179 87.3685 24.0477 87.5349 24.3318C87.5384 24.3465 87.5384 24.3619 87.5349 24.3766C87.5364 24.3927 87.5329 24.4089 87.5249 24.423C87.5169 24.4371 87.5048 24.4483 87.4902 24.4552L87.1044 24.6739H87.0596C87.0428 24.6724 87.0264 24.6671 87.0119 24.6584C86.9974 24.6496 86.985 24.6377 86.9758 24.6234C86.8651 24.4347 86.7019 24.2827 86.5061 24.1859C86.2979 24.0814 86.068 24.0276 85.8352 24.0289C85.6401 24.0221 85.4459 24.0582 85.2662 24.1347C85.0866 24.2113 84.9258 24.3264 84.7952 24.472C84.5454 24.8018 84.4101 25.2047 84.4101 25.619C84.4101 26.0333 84.5454 26.4362 84.7952 26.7661C84.9263 26.9106 85.0873 27.0247 85.267 27.1002C85.4466 27.1758 85.6405 27.2111 85.8352 27.2036C86.0639 27.2061 86.29 27.1542 86.4949 27.0521C86.69 26.9501 86.8556 26.7995 86.9758 26.6146C87.0149 26.5641 87.054 26.5473 87.1044 26.581L87.4902 26.7997C87.501 26.805 87.5106 26.8125 87.5185 26.8217C87.5263 26.8308 87.5323 26.8415 87.5359 26.853C87.5396 26.8646 87.5409 26.8767 87.5398 26.8888C87.5386 26.9008 87.5351 26.9125 87.5293 26.9231C87.3846 27.2139 87.1462 27.4472 86.8528 27.585C86.5364 27.741 86.1877 27.8198 85.8352 27.8149C85.4552 27.8202 85.0807 27.7234 84.7505 27.5345C84.4326 27.3549 84.1741 27.0858 84.0069 26.7604C83.8302 26.406 83.7383 26.0153 83.7383 25.619C83.7383 25.2228 83.8302 24.832 84.0069 24.4776L84.0125 24.4944Z" fill="black"></path>
    <path d="M89.2128 27.5681C88.8918 27.3889 88.6296 27.12 88.4581 26.794C88.2721 26.4358 88.178 26.0368 88.1841 25.633C88.176 25.2332 88.2683 24.8378 88.4525 24.4832C88.6218 24.1631 88.8751 23.8955 89.1849 23.7091C89.5034 23.5279 89.8643 23.435 90.2304 23.4399C90.593 23.435 90.9503 23.528 91.2648 23.7091C91.5719 23.8872 91.8235 24.1474 91.9916 24.4607C92.1719 24.7903 92.2625 25.1618 92.2544 25.5376C92.2544 25.6274 92.2544 25.6947 92.2544 25.7452C92.2493 25.7664 92.2371 25.7852 92.2198 25.7985C92.2024 25.8118 92.1811 25.8187 92.1594 25.8181H88.9668C88.8997 25.8181 88.8718 25.8574 88.8886 25.9359C88.918 26.2998 89.0814 26.6397 89.347 26.8894C89.6148 27.1306 89.9659 27.2574 90.3255 27.2428C90.5487 27.2424 90.7695 27.1954 90.9736 27.1046C91.1777 27.0138 91.3606 26.8813 91.5108 26.7155C91.5779 26.6482 91.6282 26.637 91.6618 26.6763L91.9637 27.0072C92.0009 27.0408 92.0009 27.0801 91.9637 27.125C91.7528 27.3507 91.4978 27.5302 91.2145 27.6522C90.9344 27.7758 90.6315 27.8389 90.3255 27.8373C89.9376 27.8459 89.5542 27.7531 89.2128 27.5681ZM91.5499 25.1787C91.5029 24.8594 91.3444 24.5672 91.1026 24.3541C90.8618 24.1429 90.5502 24.0307 90.2304 24.04C89.9065 24.0322 89.5914 24.1462 89.347 24.3598C89.1053 24.5751 88.947 24.869 88.8997 25.1899V25.2404C88.8997 25.2796 88.8997 25.2965 88.9892 25.2965H91.4772C91.5387 25.2908 91.5667 25.2404 91.5499 25.1787Z" fill="black"></path>
    <path d="M94.0826 26.8502C94.14 26.9127 94.1844 26.9861 94.2132 27.066C94.242 27.146 94.2546 27.2309 94.2503 27.3157C94.2525 27.4684 94.2279 27.6203 94.1776 27.7645C94.1076 27.9283 94.0273 28.0875 93.9372 28.2412L93.2551 29.4079C93.2551 29.4696 93.1824 29.4808 93.1321 29.4472L92.8246 29.2452C92.8134 29.241 92.8035 29.2342 92.7956 29.2252C92.7877 29.2162 92.7821 29.2054 92.7793 29.1938C92.7766 29.1822 92.7767 29.17 92.7797 29.1585C92.7827 29.1469 92.7885 29.1362 92.7966 29.1274L93.4899 27.9327C93.4981 27.911 93.4981 27.8871 93.4899 27.8654C93.4899 27.8654 93.4899 27.8318 93.434 27.8149C93.3215 27.7797 93.2247 27.7063 93.1601 27.6074C93.0871 27.5065 93.0497 27.3842 93.0538 27.2597C93.0534 27.1832 93.0685 27.1074 93.0983 27.0369C93.1281 26.9665 93.172 26.903 93.2272 26.8502C93.2817 26.7951 93.3466 26.7513 93.4181 26.7215C93.4896 26.6916 93.5663 26.6763 93.6437 26.6763C93.7211 26.6763 93.7978 26.6916 93.8693 26.7215C93.9408 26.7513 94.0057 26.7951 94.0602 26.8502H94.0826Z" fill="black"></path>
    <path d="M98.4649 27.2652C98.0737 26.7951 97.874 26.1941 97.9058 25.5825V21.4824C97.9058 21.4207 97.9058 21.387 97.9953 21.387H98.4873C98.4998 21.3861 98.5123 21.3879 98.524 21.3925C98.5356 21.397 98.5461 21.4041 98.5547 21.4132C98.5633 21.4224 98.5697 21.4333 98.5735 21.4453C98.5774 21.4573 98.5784 21.4699 98.5767 21.4824V25.5096C98.5463 25.9687 98.6791 26.4238 98.9513 26.7941C99.2495 27.0887 99.6511 27.2538 100.07 27.2538C100.488 27.2538 100.89 27.0887 101.188 26.7941C101.46 26.4238 101.593 25.9687 101.562 25.5096V21.4824C101.561 21.4694 101.562 21.4562 101.566 21.4438C101.57 21.4313 101.577 21.42 101.586 21.4108C101.595 21.4015 101.607 21.3946 101.619 21.3904C101.631 21.3863 101.645 21.3851 101.657 21.387H102.144C102.205 21.387 102.233 21.4207 102.233 21.4824V25.5713C102.265 26.1829 102.065 26.7839 101.674 27.254C101.245 27.657 100.68 27.8813 100.092 27.8813C99.5043 27.8813 98.9386 27.657 98.5096 27.254L98.4649 27.2652Z" fill="black"></path>
    <path d="M104.127 27.5121C103.763 27.2564 103.492 26.888 103.355 26.4632V26.4239C103.355 26.3903 103.355 26.3622 103.423 26.3454L103.881 26.1547H103.926C103.94 26.149 103.956 26.149 103.97 26.1547C103.983 26.1674 103.992 26.1827 103.998 26.1996C104.079 26.5062 104.263 26.7756 104.518 26.9624C104.778 27.1463 105.09 27.2425 105.407 27.2372C105.769 27.26 106.126 27.1414 106.403 26.9063C106.516 26.7981 106.605 26.6674 106.665 26.5225C106.725 26.3776 106.753 26.2217 106.749 26.0649C106.755 25.9134 106.731 25.7622 106.677 25.6205C106.623 25.4788 106.541 25.3495 106.436 25.2404C106.199 25.0177 105.901 24.8712 105.581 24.8197L105.111 24.7356C104.679 24.677 104.277 24.4804 103.965 24.1747C103.821 24.016 103.709 23.8302 103.637 23.628C103.565 23.4258 103.534 23.2112 103.546 22.9968C103.541 22.6839 103.627 22.3764 103.792 22.1106C103.954 21.8409 104.186 21.6201 104.463 21.4712C104.717 21.3244 105.001 21.2355 105.293 21.2109C105.586 21.1863 105.88 21.2265 106.155 21.3287C106.431 21.431 106.68 21.5927 106.886 21.8024C107.092 22.0122 107.25 22.2649 107.348 22.5425C107.352 22.5533 107.352 22.5654 107.348 22.5762C107.347 22.5956 107.34 22.6143 107.328 22.6294C107.316 22.6446 107.299 22.6554 107.28 22.6603L106.811 22.8566C106.811 22.8566 106.811 22.8566 106.766 22.8566C106.752 22.8622 106.736 22.8622 106.721 22.8566C106.719 22.8418 106.719 22.8266 106.721 22.8117C106.626 22.5424 106.453 22.3079 106.224 22.1387C106 21.9676 105.727 21.875 105.447 21.875C105.125 21.8598 104.81 21.9704 104.569 22.1835C104.464 22.2858 104.381 22.409 104.326 22.5452C104.271 22.6814 104.245 22.8276 104.25 22.9744C104.24 23.2336 104.33 23.4867 104.502 23.6811C104.704 23.8886 104.97 24.0211 105.256 24.0569L105.715 24.1467C106.179 24.23 106.609 24.444 106.956 24.7637C107.121 24.9258 107.249 25.1212 107.333 25.3368C107.417 25.5524 107.454 25.7833 107.443 26.0145C107.446 26.3493 107.359 26.6788 107.191 26.968C107.022 27.2537 106.776 27.4853 106.481 27.6354C106.144 27.8076 105.769 27.8924 105.391 27.8822C104.941 27.8954 104.499 27.7658 104.127 27.5121Z" fill="black"></path>
    <path d="M111.218 21.488L113.08 27.6579V27.6915C113.08 27.7364 113.052 27.7588 112.996 27.7588H112.493C112.468 27.7616 112.443 27.7559 112.422 27.7427C112.4 27.7295 112.384 27.7095 112.376 27.6859L111.979 26.3229C111.972 26.3012 111.959 26.2823 111.941 26.269C111.923 26.2558 111.9 26.2491 111.878 26.25H109.273C109.25 26.2491 109.228 26.2558 109.21 26.269C109.191 26.2823 109.178 26.3012 109.172 26.3229L108.775 27.6859C108.766 27.7095 108.75 27.7295 108.729 27.7427C108.707 27.7559 108.682 27.7616 108.658 27.7588H108.154C108.087 27.7588 108.059 27.7252 108.082 27.6579L109.943 21.488C109.944 21.4735 109.948 21.4592 109.954 21.4462C109.96 21.4331 109.969 21.4215 109.98 21.4121C109.991 21.4026 110.004 21.3955 110.018 21.3912C110.032 21.3869 110.046 21.3855 110.061 21.387H111.09C111.105 21.3837 111.121 21.3838 111.136 21.3873C111.151 21.3908 111.165 21.3976 111.178 21.4073C111.19 21.4169 111.2 21.4291 111.207 21.4431C111.214 21.457 111.218 21.4724 111.218 21.488ZM109.446 25.5881H111.727C111.761 25.5881 111.772 25.5713 111.761 25.5377L110.732 22.0769C110.728 22.0645 110.721 22.0535 110.711 22.0455C110.701 22.0374 110.689 22.0327 110.676 22.0321H110.497C110.484 22.0327 110.472 22.0374 110.462 22.0455C110.452 22.0535 110.445 22.0645 110.441 22.0769L109.412 25.5377C109.409 25.5713 109.42 25.5881 109.446 25.5881Z" fill="black"></path>
    <path d="M207.133 16.597V27.3886C207.133 27.5289 207.038 27.5737 206.97 27.4335L200.82 16.5016C200.782 16.4451 200.73 16.3987 200.669 16.3665C200.609 16.3343 200.542 16.3171 200.474 16.3165H197.84C197.803 16.3157 197.767 16.3225 197.733 16.3364C197.699 16.3502 197.668 16.371 197.643 16.3973C197.617 16.4235 197.597 16.4548 197.584 16.4892C197.571 16.5235 197.565 16.5602 197.566 16.597V32.3526C197.565 32.3894 197.571 32.426 197.584 32.4604C197.597 32.4947 197.617 32.526 197.643 32.5523C197.668 32.5786 197.699 32.5993 197.733 32.6132C197.767 32.6271 197.803 32.6338 197.84 32.633H200.16C200.198 32.6346 200.235 32.6285 200.269 32.6149C200.304 32.6014 200.335 32.5808 200.362 32.5544C200.388 32.5281 200.408 32.4965 200.422 32.4618C200.435 32.427 200.442 32.3898 200.44 32.3526V21.5834C200.44 21.4431 200.535 21.3983 200.602 21.5385L206.752 32.4479C206.791 32.506 206.843 32.5534 206.905 32.5857C206.966 32.6181 207.035 32.6343 207.105 32.633H209.732C209.77 32.6346 209.807 32.6285 209.841 32.6149C209.876 32.6014 209.907 32.5808 209.934 32.5544C209.96 32.5281 209.98 32.4965 209.994 32.4618C210.007 32.427 210.014 32.3898 210.012 32.3526V16.597C210.014 16.5597 210.007 16.5225 209.994 16.4878C209.98 16.4531 209.96 16.4215 209.934 16.3951C209.907 16.3688 209.876 16.3482 209.841 16.3346C209.807 16.3211 209.77 16.3149 209.732 16.3165H207.429C207.392 16.3149 207.355 16.3211 207.32 16.3346C207.285 16.3482 207.254 16.3688 207.228 16.3951C207.201 16.4215 207.181 16.4531 207.167 16.4878C207.154 16.5225 207.148 16.5597 207.149 16.597M190.7 32.633H193.004C193.041 32.6346 193.078 32.6285 193.113 32.6149C193.147 32.6014 193.179 32.5808 193.205 32.5544C193.231 32.5281 193.252 32.4965 193.265 32.4618C193.279 32.427 193.285 32.3898 193.283 32.3526V16.597C193.285 16.5597 193.279 16.5225 193.265 16.4878C193.252 16.4531 193.231 16.4215 193.205 16.3951C193.179 16.3688 193.147 16.3482 193.113 16.3346C193.078 16.3211 193.041 16.3149 193.004 16.3165H190.7C190.663 16.3149 190.626 16.3211 190.591 16.3346C190.557 16.3482 190.525 16.3688 190.499 16.3951C190.473 16.4215 190.452 16.4531 190.439 16.4878C190.425 16.5225 190.419 16.5597 190.421 16.597V32.3526C190.419 32.3898 190.425 32.427 190.439 32.4618C190.452 32.4965 190.473 32.5281 190.499 32.5544C190.525 32.5808 190.557 32.6014 190.591 32.6149C190.626 32.6285 190.663 32.6346 190.7 32.633ZM181.52 29.7893V16.597C181.521 16.5597 181.515 16.5225 181.502 16.4878C181.488 16.4531 181.468 16.4215 181.441 16.3951C181.415 16.3688 181.384 16.3482 181.349 16.3346C181.314 16.3211 181.277 16.3149 181.24 16.3165H178.914C178.878 16.3157 178.841 16.3225 178.807 16.3364C178.773 16.3502 178.742 16.371 178.717 16.3973C178.691 16.4235 178.671 16.4548 178.658 16.4892C178.645 16.5235 178.639 16.5602 178.64 16.597V32.3526C178.639 32.3894 178.645 32.426 178.658 32.4604C178.671 32.4947 178.691 32.526 178.717 32.5523C178.742 32.5786 178.773 32.5993 178.807 32.6132C178.841 32.6271 178.878 32.6338 178.914 32.633H186.848C186.885 32.6346 186.922 32.6285 186.957 32.6149C186.991 32.6014 187.023 32.5808 187.049 32.5544C187.076 32.5281 187.096 32.4965 187.11 32.4618C187.123 32.427 187.129 32.3898 187.128 32.3526V30.21C187.129 30.1727 187.123 30.1355 187.11 30.1008C187.096 30.066 187.076 30.0345 187.049 30.0081C187.023 29.9818 186.991 29.9612 186.957 29.9476C186.922 29.9341 186.885 29.9279 186.848 29.9295H181.637C181.619 29.9303 181.6 29.9272 181.583 29.9205C181.565 29.9137 181.55 29.9034 181.537 29.8902C181.523 29.877 181.513 29.8612 181.506 29.8439C181.5 29.8265 181.497 29.8079 181.497 29.7893M166.457 19.0201H168.571C170.455 19.0201 171.97 20.0241 171.97 22.0994C171.97 24.1747 170.455 25.1731 168.548 25.1731H166.457C166.439 25.1739 166.42 25.1708 166.403 25.164C166.386 25.1573 166.37 25.147 166.357 25.1338C166.344 25.1206 166.333 25.1048 166.327 25.0875C166.32 25.0701 166.317 25.0515 166.318 25.0329V19.1603C166.315 19.1412 166.316 19.1217 166.322 19.1034C166.328 19.0851 166.339 19.0685 166.352 19.0549C166.366 19.0412 166.382 19.031 166.401 19.0249C166.419 19.0189 166.438 19.0172 166.457 19.0201ZM171.853 32.633H174.782C175.017 32.633 175.084 32.4704 174.945 32.2853L171.456 27.5513C171.443 27.5356 171.433 27.5171 171.428 27.4972C171.424 27.4773 171.423 27.4566 171.428 27.4366C171.432 27.4166 171.441 27.3978 171.453 27.3817C171.466 27.3656 171.482 27.3527 171.5 27.3438C172.548 26.9395 173.444 26.2165 174.061 25.276C174.679 24.3356 174.988 23.2248 174.945 22.0994C174.945 18.4592 172.199 16.3165 168.71 16.3165H163.734C163.697 16.3149 163.66 16.3211 163.626 16.3346C163.591 16.3482 163.559 16.3688 163.533 16.3951C163.507 16.4215 163.486 16.4531 163.473 16.4878C163.459 16.5225 163.453 16.5597 163.455 16.597V32.3526C163.453 32.3898 163.459 32.427 163.473 32.4618C163.486 32.4965 163.507 32.5281 163.533 32.5544C163.559 32.5808 163.591 32.6014 163.626 32.6149C163.66 32.6285 163.697 32.6346 163.734 32.633H166.055C166.092 32.6346 166.129 32.6285 166.164 32.6149C166.198 32.6014 166.23 32.5808 166.256 32.5544C166.282 32.5281 166.303 32.4965 166.316 32.4618C166.33 32.427 166.336 32.3898 166.334 32.3526V28.0449C166.333 28.0263 166.337 28.0077 166.343 27.9903C166.35 27.9729 166.36 27.9572 166.373 27.944C166.387 27.9308 166.402 27.9205 166.42 27.9137C166.437 27.907 166.455 27.9039 166.474 27.9047H168.241C168.312 27.9131 168.377 27.947 168.425 28L171.545 32.4872C171.578 32.5446 171.625 32.5921 171.682 32.6247C171.739 32.6573 171.804 32.6737 171.869 32.6723M159.25 18.7396V16.597C159.252 16.5597 159.246 16.5225 159.232 16.4878C159.219 16.4531 159.198 16.4215 159.172 16.3951C159.146 16.3688 159.114 16.3482 159.08 16.3346C159.045 16.3211 159.008 16.3149 158.971 16.3165H150.506C150.469 16.3149 150.432 16.3211 150.397 16.3346C150.362 16.3482 150.331 16.3688 150.305 16.3951C150.278 16.4215 150.258 16.4531 150.244 16.4878C150.231 16.5225 150.225 16.5597 150.226 16.597V32.3526C150.225 32.3898 150.231 32.427 150.244 32.4618C150.258 32.4965 150.278 32.5281 150.305 32.5544C150.331 32.5808 150.362 32.6014 150.397 32.6149C150.432 32.6285 150.469 32.6346 150.506 32.633H158.971C159.008 32.6346 159.045 32.6285 159.08 32.6149C159.114 32.6014 159.146 32.5808 159.172 32.5544C159.198 32.5281 159.219 32.4965 159.232 32.4618C159.246 32.427 159.252 32.3898 159.25 32.3526V30.21C159.252 30.1727 159.246 30.1355 159.232 30.1008C159.219 30.066 159.198 30.0345 159.172 30.0081C159.146 29.9818 159.114 29.9612 159.08 29.9476C159.045 29.9341 159.008 29.9279 158.971 29.9295H153.195C153.177 29.9303 153.158 29.9272 153.141 29.9205C153.123 29.9137 153.108 29.9034 153.095 29.8902C153.081 29.877 153.071 29.8612 153.064 29.8439C153.058 29.8265 153.055 29.8079 153.055 29.7893V25.863C153.055 25.8444 153.058 25.8258 153.064 25.8084C153.071 25.791 153.081 25.7753 153.095 25.7621C153.108 25.7489 153.123 25.7386 153.141 25.7318C153.158 25.7251 153.177 25.722 153.195 25.7228H158.96C158.997 25.7244 159.034 25.7182 159.068 25.7047C159.103 25.6911 159.135 25.6705 159.161 25.6442C159.187 25.6178 159.208 25.5862 159.221 25.5515C159.235 25.5168 159.241 25.4796 159.239 25.4423V23.3334C159.241 23.2961 159.235 23.2589 159.221 23.2242C159.208 23.1894 159.187 23.1579 159.161 23.1315C159.135 23.1052 159.103 23.0846 159.068 23.071C159.034 23.0575 158.997 23.0513 158.96 23.0529H153.195C153.176 23.0557 153.157 23.0541 153.139 23.048C153.12 23.042 153.104 23.0317 153.09 23.0181C153.076 23.0045 153.066 22.9878 153.06 22.9695C153.054 22.9512 153.053 22.9318 153.055 22.9127V19.1603C153.055 19.1417 153.058 19.1231 153.064 19.1057C153.071 19.0883 153.081 19.0725 153.095 19.0594C153.108 19.0462 153.123 19.0359 153.141 19.0291C153.158 19.0223 153.177 19.0193 153.195 19.0201H158.96C158.997 19.0216 159.034 19.0155 159.068 19.0019C159.103 18.9884 159.135 18.9678 159.161 18.9414C159.187 18.9151 159.208 18.8835 159.221 18.8488C159.235 18.814 159.241 18.7769 159.239 18.7396M141.107 29.9576H138.658C138.64 29.9583 138.621 29.9553 138.604 29.9485C138.587 29.9417 138.571 29.9314 138.558 29.9182C138.545 29.9051 138.534 29.8893 138.528 29.8719C138.521 29.8545 138.518 29.836 138.519 29.8173V25.891C138.516 25.872 138.517 25.8525 138.523 25.8342C138.529 25.8159 138.54 25.7993 138.553 25.7856C138.567 25.772 138.583 25.7617 138.602 25.7557C138.62 25.7497 138.639 25.748 138.658 25.7508H141.124C142.639 25.7508 143.472 26.6146 143.472 27.8486C143.472 29.0826 142.639 29.9463 141.124 29.9463M140.895 19.0201C142.36 19.0201 143.17 19.8165 143.17 21.0281C143.17 22.2396 142.354 23.0529 140.895 23.0529H138.658C138.639 23.0557 138.62 23.0541 138.602 23.048C138.583 23.042 138.567 23.0317 138.553 23.0181C138.54 23.0045 138.529 22.9878 138.523 22.9695C138.517 22.9512 138.516 22.9318 138.519 22.9127V19.1603C138.517 19.1414 138.519 19.1224 138.526 19.1046C138.532 19.0868 138.542 19.0707 138.556 19.0573C138.569 19.0439 138.585 19.0336 138.603 19.0272C138.621 19.0208 138.64 19.0183 138.658 19.0201H140.895ZM144.289 24.1467C144.871 23.7909 145.35 23.2873 145.677 22.6866C146.004 22.0859 146.167 21.4093 146.15 20.7252C146.15 18.2292 144.428 16.3165 141.264 16.3165H135.963C135.926 16.3149 135.889 16.3211 135.855 16.3346C135.82 16.3482 135.788 16.3688 135.762 16.3951C135.736 16.4215 135.715 16.4531 135.702 16.4878C135.688 16.5225 135.682 16.5597 135.684 16.597V32.3526C135.682 32.3898 135.688 32.427 135.702 32.4618C135.715 32.4965 135.736 32.5281 135.762 32.5544C135.788 32.5808 135.82 32.6014 135.855 32.6149C135.889 32.6285 135.926 32.6346 135.963 32.633H141.454C144.708 32.633 146.43 30.6531 146.43 28.0449C146.457 27.2847 146.268 26.5324 145.885 25.8759C145.502 25.2195 144.94 24.6858 144.266 24.3374C144.171 24.2644 144.171 24.1971 144.266 24.1467" fill="#E40422"></path>
    <path d="M252.757 38.4047C252.757 38.4047 251.901 32.7228 251.499 30.3277L251.672 30.2885C251.751 30.2663 251.824 30.2271 251.886 30.1735C251.948 30.12 251.998 30.0534 252.031 29.9785C252.065 29.9036 252.082 29.8222 252.08 29.7401C252.079 29.658 252.06 29.5771 252.024 29.5032C251.091 27.7136 250.638 25.7109 250.71 23.6923C250.709 22.4537 250.913 21.2234 251.314 20.0521C251.314 19.9848 251.359 19.9231 251.387 19.8558C251.415 19.7885 251.426 19.7268 251.432 19.7156C251.886 18.7058 252.178 17.6307 252.298 16.5297C252.429 15.0377 252.188 13.5365 251.599 12.1603L251.521 12.02C251.697 11.8404 251.808 11.6067 251.835 11.3564C251.862 11.1061 251.805 10.8539 251.672 10.6402C251.536 10.3908 251.312 10.2023 251.043 10.1128C250.774 10.0233 250.481 10.0394 250.224 10.1579L250 10.3149L249.861 10.214C249.861 10.214 249.721 10.1242 249.603 10.0625H249.559C248.791 9.7288 247.94 9.64066 247.121 9.81011C246.551 9.92577 246.015 10.1672 245.55 10.5168C245.387 10.5637 245.221 10.5956 245.052 10.6122L244.398 10.6402C244.091 10.6402 243.738 10.6402 243.738 10.6402C243.664 10.6402 243.593 10.6698 243.541 10.7224C243.488 10.775 243.459 10.8463 243.459 10.9207C243.459 10.9207 243.559 11.835 243.559 11.8406C243.567 11.9507 243.599 12.0579 243.652 12.1547C243.705 12.2515 243.778 12.3356 243.867 12.4015C243.913 12.4244 243.95 12.4618 243.973 12.508C244.036 12.686 244.146 12.8432 244.292 12.9624C244.303 12.9691 244.315 12.9734 244.327 12.9751C244.34 12.9767 244.353 12.9756 244.365 12.9719C244.377 12.9682 244.388 12.9619 244.398 12.9535C244.408 12.9451 244.415 12.9347 244.42 12.9231C244.543 12.4295 244.834 12.9624 245.393 12.6595C245.539 12.5809 245.611 12.9287 245.55 13.0801L245.5 13.2148C245.444 13.3618 245.351 13.4913 245.229 13.59C245.107 13.6886 244.961 13.7527 244.806 13.7757C244.56 13.8093 244.42 13.8374 244.42 13.871C244.454 14.1515 244.42 14.387 244.7 14.5553C244.739 14.5778 244.78 14.5965 244.823 14.6114C245.259 14.7236 246.5 15.2116 244.912 17.1074C244.912 17.1074 244.761 17.2813 244.644 17.4495C244.611 17.4999 244.581 17.5524 244.555 17.6066L244.521 17.6739L239.702 15.8622C239.533 15.7835 239.387 15.6639 239.277 15.5144L238.801 14.6955C238.69 14.5127 238.534 14.3612 238.348 14.2553C238.162 14.1493 237.953 14.0924 237.739 14.0898C237.516 14.0729 237.291 14.0729 237.068 14.0898C236.923 14.0898 236.839 14.129 236.811 14.2132C236.769 14.4206 236.805 14.6362 236.912 14.8189L237.325 15.5817C237.364 15.6378 237.884 16.8101 237.884 16.8101C237.941 16.9528 238.031 17.0798 238.147 17.1803L243.095 20.9327L237.896 23.5577C237.745 23.6385 237.568 23.6566 237.404 23.6082L236.94 23.4624C236.641 23.3072 236.304 23.2437 235.97 23.2796C235.636 23.3155 235.32 23.4493 235.061 23.6643L234.916 23.8045C234.884 23.8325 234.86 23.8681 234.846 23.908C234.832 23.948 234.828 23.9908 234.836 24.0325C234.843 24.0742 234.861 24.1133 234.888 24.146C234.914 24.1788 234.949 24.2041 234.988 24.2196C234.988 24.2196 235.81 24.7075 235.995 24.8309L237.275 25.5938C237.475 25.7063 237.709 25.7441 237.935 25.7003L243 24.6739C243.082 25.8811 243.288 27.0766 243.615 28.2412C242.44 29.3769 241.597 30.8134 241.177 32.3953C240.757 33.9771 240.777 35.644 241.234 37.2156C240.541 37.2105 239.862 37.4052 239.277 37.7765C239.069 37.9404 238.902 38.1503 238.789 38.3896C238.675 38.6289 238.618 38.8913 238.622 39.1563H242.581H242.916C243.037 39.1516 243.152 39.1082 243.246 39.0324C243.34 38.9566 243.406 38.8525 243.436 38.7356C243.473 38.6014 243.499 38.4645 243.515 38.3261C243.637 37.2628 243.952 36.2307 244.443 35.2805C244.86 34.4628 245.387 33.7061 246.008 33.0313C247.214 34.6986 248.733 36.1126 250.481 37.1931C249.908 37.2324 249.348 37.3829 248.832 37.6362C248.58 37.7873 248.372 38.002 248.229 38.2589C248.086 38.5158 248.012 38.8059 248.016 39.1002H252.114C252.247 39.0996 252.376 39.0577 252.484 38.9804C252.592 38.903 252.674 38.794 252.718 38.6683V38.5898C252.72 38.5712 252.72 38.5523 252.718 38.5337C252.737 38.4927 252.75 38.4493 252.757 38.4047Z" fill="black"></path>
    <path d="M270 0H0V49H270V0ZM0.978443 0.98157H123.468V48.0184H0.978443V0.98157ZM221.156 48.0184H124.43V0.98157H221.156V48.0184ZM269.027 48.0184H222.135V0.98157H269.027V48.0184Z" fill="black"></path>
  </g>
  <defs>
    <clipPath id="clip0_2007_773">
      <rect width="270" height="49" fill="white"></rect>
    </clipPath>
  </defs>
</svg>
