<svg width="30" height="30" viewBox="0 0 30 30" fill="none" xmlns="http://www.w3.org/2000/svg">
<path d="M28.8462 7H1.15385C0.847827 7 0.554342 7.12116 0.337954 7.33683C0.121566 7.55249 0 7.845 0 8.15V27.7C0 28.31 0.243131 28.895 0.675907 29.3263C1.10868 29.7577 1.69565 30 2.30769 30H27.6923C28.3043 30 28.8913 29.7577 29.3241 29.3263C29.7569 28.895 30 28.31 30 27.7V8.15C30 7.845 29.8784 7.55249 29.662 7.33683C29.4457 7.12116 29.1522 7 28.8462 7ZM15 19.2403L4.12067 9.3H25.8793L15 19.2403ZM10.7755 18.5L2.30769 26.2352V10.7648L10.7755 18.5ZM12.4832 20.0597L14.2139 21.6481C14.4268 21.8429 14.7053 21.951 14.9942 21.951C15.2832 21.951 15.5616 21.8429 15.7745 21.6481L17.5053 20.0597L25.8707 27.7H4.12067L12.4832 20.0597ZM19.2245 18.5L27.6923 10.7634V26.2366L19.2245 18.5Z" fill="black"/>
</svg>
