<?xml version="1.0" encoding="UTF-8"?>
<svg xmlns="http://www.w3.org/2000/svg" width="40" height="40" viewBox="0 0 40 40" fill="none">
  <path d="M19.9993 5C11.716 5 5 11.716 5 19.9993C5 28.3083 11.6917 35 20.0007 35C28.284 35 35 28.284 35 20.0007C35 11.6917 28.3083 5 19.9993 5ZM31.091 13.4375H27.5424C27.4243 13.4375 27.3194 13.3618 27.2799 13.2507C26.8125 11.9187 26.214 10.6365 25.4931 9.42292C25.1731 8.88519 24.8297 8.36177 24.4639 7.85417C24.4035 7.77083 24.4889 7.65972 24.5854 7.69583C26.3285 8.34444 27.9264 9.36528 29.2806 10.7194C30.0257 11.4637 30.6792 12.2943 31.2271 13.1938C31.2924 13.3007 31.216 13.4375 31.091 13.4375ZM21.3333 7.02986C21.7931 7.48542 23.8688 9.66736 25.2625 13.2007C25.3069 13.3139 25.2222 13.4375 25.1007 13.4375H14.9C14.7771 13.4375 14.6938 13.3139 14.7389 13.1993C15.1137 12.2457 15.5633 11.3231 16.0833 10.4403C17.2042 8.54236 18.3403 7.35417 18.6667 7.02986C18.7257 6.97153 18.8021 6.93611 18.8847 6.93056C19.1313 6.9125 19.6812 6.875 19.9993 6.875C20.3181 6.875 20.8701 6.91319 21.116 6.93125C21.1986 6.9375 21.275 6.97222 21.3333 7.02986ZM26.5625 20C26.5625 21.634 26.3444 23.1347 26.0063 24.4792C25.9757 24.6021 25.8639 24.6875 25.7368 24.6875H14.2604C14.1333 24.6875 14.0222 24.6021 13.991 24.4792C13.6507 23.1229 13.4368 21.6257 13.4368 20C13.4368 18.366 13.6549 16.8653 13.9931 15.5208C14.0236 15.3979 14.1354 15.3125 14.2625 15.3125H25.7389C25.866 15.3125 25.9771 15.3979 26.0083 15.5208C26.3493 16.8771 26.5625 18.3743 26.5625 20ZM10.7194 10.7194C12.0736 9.36528 13.6715 8.34444 15.4146 7.69583C15.5111 7.65972 15.5958 7.77083 15.5361 7.85417C15.2056 8.3125 14.8562 8.83611 14.5069 9.42292C13.9076 10.4306 13.2569 11.7188 12.7201 13.2507C12.7013 13.3053 12.6658 13.3526 12.6188 13.3861C12.5717 13.4196 12.5154 13.4375 12.4576 13.4375H8.90903C8.78403 13.4375 8.70764 13.3007 8.77292 13.1938C9.31389 12.3049 9.96458 11.4736 10.7194 10.7194ZM7.975 15.3125H11.8958C12.0076 15.3125 12.0896 15.416 12.0646 15.525C11.7556 16.8861 11.5618 18.3833 11.5618 20C11.5618 21.6167 11.7556 23.1139 12.0646 24.475C12.0896 24.584 12.0076 24.6875 11.8958 24.6875H7.975C7.82778 24.6875 7.69722 24.5938 7.64722 24.4549C7.13958 23.0451 6.875 21.5431 6.875 20C6.875 18.4569 7.13958 16.9549 7.64722 15.5451C7.69722 15.4063 7.82778 15.3125 7.975 15.3125ZM8.90903 26.5625H12.4576C12.5757 26.5625 12.6806 26.6382 12.7201 26.7493C13.2569 28.2806 13.9076 29.5694 14.5069 30.5771C14.8562 31.1639 15.2056 31.6875 15.5361 32.1458C15.5965 32.2292 15.5111 32.3403 15.4146 32.3042C13.6715 31.6556 12.0736 30.6347 10.7194 29.2806C9.97429 28.5363 9.32081 27.7057 8.77292 26.8063C8.70764 26.6993 8.78403 26.5625 8.90903 26.5625ZM18.6667 32.9701C18.2063 32.5139 16.1313 30.3326 14.7375 26.7993C14.6931 26.6861 14.7778 26.5625 14.8993 26.5625H25.1C25.2229 26.5625 25.3063 26.6861 25.2611 26.8007C24.8863 27.7543 24.4367 28.6769 23.9167 29.5597C22.7965 31.4576 21.6604 32.6458 21.3333 32.9701C21.2746 33.0284 21.1971 33.0639 21.1146 33.0701C20.8681 33.0882 20.3181 33.1257 20 33.1257C19.6813 33.1257 19.1299 33.0875 18.8833 33.0694C18.8014 33.0625 18.725 33.0278 18.6667 32.9701ZM29.2806 29.2806C27.9264 30.6347 26.3285 31.6556 24.5854 32.3042C24.4889 32.3403 24.4035 32.2292 24.4639 32.1458C25.656 30.4912 26.6042 28.6737 27.2792 26.7493C27.2981 26.6947 27.3335 26.6474 27.3805 26.6139C27.4276 26.5804 27.4839 26.5625 27.5417 26.5625H31.0903C31.2153 26.5625 31.2917 26.6993 31.2264 26.8063C30.6791 27.7059 30.0259 28.5366 29.2806 29.2806ZM32.025 24.6875H28.1042C27.9924 24.6875 27.9104 24.584 27.9354 24.475C28.2444 23.1139 28.4382 21.6167 28.4382 20C28.4382 18.3833 28.2444 16.8861 27.9354 15.525C27.9104 15.416 27.9924 15.3125 28.1042 15.3125H32.025C32.1722 15.3125 32.3028 15.4063 32.3528 15.5451C32.8604 16.9549 33.125 18.4569 33.125 20C33.125 21.5431 32.8604 23.0451 32.3528 24.4549C32.3028 24.5938 32.1722 24.6875 32.025 24.6875Z" fill="black"></path>
</svg>
