<svg width="30" height="30" viewBox="0 0 30 30" fill="none" xmlns="http://www.w3.org/2000/svg">
<path d="M6.98298 9.65234H0.960433C0.693143 9.65234 0.476562 9.86902 0.476562 10.1362V29.4841C0.476562 29.7514 0.693143 29.968 0.960433 29.968H6.98298C7.25027 29.968 7.46685 29.7514 7.46685 29.4841V10.1362C7.46685 9.86902 7.25027 9.65234 6.98298 9.65234Z" fill="black"/>
<path d="M3.97413 0.0332031C1.78277 0.0332031 0 1.81404 0 4.00298C0 6.19288 1.78277 7.9744 3.97413 7.9744C6.16374 7.9744 7.94507 6.19278 7.94507 4.00298C7.94516 1.81404 6.16374 0.0332031 3.97413 0.0332031Z" fill="black"/>
<path d="M22.3023 9.16992C19.8834 9.16992 18.0953 10.2098 17.0108 11.3913V10.1347C17.0108 9.86747 16.7942 9.65079 16.5269 9.65079H10.7593C10.492 9.65079 10.2754 9.86747 10.2754 10.1347V29.4825C10.2754 29.7498 10.492 29.9664 10.7593 29.9664H16.7686C17.0359 29.9664 17.2525 29.7498 17.2525 29.4825V19.9098C17.2525 16.6841 18.1287 15.4273 20.3774 15.4273C22.8263 15.4273 23.0209 17.442 23.0209 20.0758V29.4826C23.0209 29.7499 23.2375 29.9665 23.5048 29.9665H29.5164C29.7837 29.9665 30.0003 29.7499 30.0003 29.4826V18.87C30.0003 14.0734 29.0857 9.16992 22.3023 9.16992Z" fill="black"/>
</svg>
