<?xml version="1.0" encoding="UTF-8"?>
<svg xmlns="http://www.w3.org/2000/svg" width="40" height="40" viewBox="0 0 40 40" fill="none">
  <path fill-rule="evenodd" clip-rule="evenodd" d="M4.44444 40H35.5556C38.0102 40 40 38.0102 40 35.5556V4.44444C40 1.98985 38.0102 0 35.5556 0H4.44444C1.98985 0 0 1.98985 0 4.44444V35.5556C0 38.0102 1.98985 40 4.44444 40Z" fill="#007EBB"></path>
  <path fill-rule="evenodd" clip-rule="evenodd" d="M34.4444 34.4446H28.5087V24.3346C28.5087 21.5628 27.4554 20.0137 25.2615 20.0137C22.8748 20.0137 21.6278 21.6257 21.6278 24.3346V34.4446H15.9074V15.1853H21.6278V17.7795C21.6278 17.7795 23.3478 14.5969 27.4348 14.5969C31.5198 14.5969 34.4444 17.0915 34.4444 22.2508V34.4446ZM9.08297 12.6634C7.13448 12.6634 5.55556 11.0721 5.55556 9.10956C5.55556 7.14697 7.13448 5.55566 9.08297 5.55566C11.0315 5.55566 12.6094 7.14697 12.6094 9.10956C12.6094 11.0721 11.0315 12.6634 9.08297 12.6634ZM6.1292 34.4446H12.0941V15.1853H6.1292V34.4446Z" fill="white"></path>
</svg>
