<?xml version="1.0" encoding="UTF-8"?>
<svg xmlns="http://www.w3.org/2000/svg" width="149" height="100" viewBox="0 0 149 100" fill="none">
  <g clip-path="url(#clip0_2007_241)">
    <path d="M148.503 0.5H0.496094V99.5H148.503V0.5Z" fill="white"></path>
    <path d="M0 0V100H149V0H0ZM0.993282 0.999949H99.3333V49H0.993282V0.999949ZM148.007 99H0.993282V50.0001H148.007V99ZM148.007 49H100.327V0.999949H148.007L148.007 49Z" fill="black"></path>
    <path d="M85.076 16.9361V27.9488C85.076 28.0917 84.9812 28.139 84.9102 27.9963L78.6675 16.8409C78.5966 16.722 78.4547 16.6507 78.3127 16.6507H75.6406C75.4748 16.6507 75.3567 16.7696 75.3567 16.9363V33.0152C75.3567 33.1816 75.4748 33.3008 75.6406 33.3008H77.9578C78.1235 33.3008 78.2416 33.1816 78.2416 33.0152V22.0262C78.2416 21.8833 78.3364 21.836 78.4074 21.9782L84.65 33.1098C84.721 33.229 84.8629 33.3004 85.005 33.3004H87.6772C87.8429 33.3004 87.9612 33.1812 87.9612 33.0149V16.9361C87.9612 16.7695 87.8431 16.6506 87.6772 16.6506H85.3595C85.1941 16.6506 85.076 16.7693 85.076 16.9361ZM68.3678 33.3004H70.7094C70.8748 33.3004 70.9929 33.1812 70.9929 33.0149V16.9361C70.9929 16.7695 70.8748 16.6506 70.7094 16.6506H68.3678C68.2024 16.6506 68.0843 16.7695 68.0843 16.9361V33.015C68.0843 33.1812 68.2024 33.3004 68.3678 33.3004ZM59.032 30.3987V16.9361C59.032 16.7695 58.9139 16.6506 58.7485 16.6506H56.4069C56.2415 16.6506 56.1234 16.7695 56.1234 16.9361V33.015C56.1234 33.1814 56.2415 33.3006 56.4069 33.3006H64.4709C64.6367 33.3006 64.7549 33.1814 64.7549 33.015V30.8268C64.7549 30.6604 64.6368 30.5412 64.4709 30.5412H59.1739C59.0796 30.541 59.032 30.4701 59.032 30.3987ZM43.7368 19.4095H45.8891C47.8041 19.4095 49.3415 20.4325 49.3415 22.5494C49.3415 24.6664 47.8041 25.6889 45.8652 25.6889H43.7368C43.6425 25.6889 43.5952 25.6175 43.5952 25.546V19.5522C43.5954 19.4574 43.6425 19.4095 43.7368 19.4095ZM49.2235 33.3004H52.2029C52.4396 33.3004 52.5102 33.1338 52.3686 32.9434L48.8214 28.115C48.7738 28.0435 48.7738 27.9486 48.8686 27.9012C50.9732 27.045 52.3686 25.1656 52.3686 22.5494C52.3686 18.8387 49.5778 16.6504 46.0306 16.6504H40.9703C40.8046 16.6504 40.6865 16.7693 40.6865 16.936V33.0149C40.6865 33.1812 40.8046 33.3004 40.9703 33.3004H43.3113C43.4767 33.3004 43.5954 33.1812 43.5954 33.0149V28.5907C43.5954 28.4958 43.6658 28.448 43.7369 28.448H45.5344C45.6054 28.448 45.6764 28.496 45.7235 28.5434L48.8924 33.1098C48.9633 33.2292 49.0814 33.3004 49.2235 33.3004ZM36.3874 19.1244V16.9361C36.3874 16.7695 36.2694 16.6506 36.1034 16.6506H27.4959C27.3302 16.6506 27.2121 16.7695 27.2121 16.9361V33.015C27.2121 33.1814 27.3302 33.3006 27.4959 33.3006H36.1034C36.2692 33.3006 36.3874 33.1814 36.3874 33.015V30.8268C36.3874 30.6604 36.2694 30.5412 36.1034 30.5412H30.239C30.1443 30.5412 30.0971 30.4703 30.0971 30.3988V26.4024C30.0971 26.3075 30.1681 26.2597 30.239 26.2597H36.1034C36.2692 26.2597 36.3874 26.1408 36.3874 25.9747V23.8102C36.3874 23.6435 36.2694 23.5246 36.1034 23.5246H30.239C30.1443 23.5246 30.0971 23.4772 30.0971 23.3817V19.5523C30.0971 19.4574 30.1681 19.4095 30.239 19.4095H36.1034C36.2694 19.4095 36.3874 19.2908 36.3874 19.1244ZM17.9514 30.541H15.4446C15.3503 30.541 15.303 30.4701 15.303 30.3987V26.4024C15.303 26.3075 15.3502 26.2597 15.4446 26.2597H17.9514C19.4887 26.2597 20.34 27.1399 20.34 28.4005C20.34 29.6848 19.4887 30.541 17.9514 30.541ZM17.715 19.4095C19.2047 19.4095 20.0322 20.2184 20.0322 21.455C20.0322 22.6922 19.2047 23.5246 17.715 23.5246H15.4446C15.3503 23.5246 15.303 23.4772 15.303 23.3817V19.5523C15.303 19.4574 15.3502 19.4095 15.4446 19.4095H17.715ZM21.1674 24.6426C22.3497 23.8816 23.0592 22.6924 23.0592 21.1462C23.0592 18.6013 21.3093 16.6507 18.0933 16.6507H12.7015C12.5362 16.6507 12.418 16.7696 12.418 16.9363V33.0152C12.418 33.1816 12.5361 33.3008 12.7015 33.3008H18.3062C21.6166 33.3008 23.3665 31.2787 23.3665 28.615C23.3665 26.8785 22.539 25.5704 21.1674 24.8331C21.0726 24.7613 21.0726 24.69 21.1674 24.6426Z" fill="#E40422"></path>
    <path d="M131.464 39.1868C131.464 39.1868 130.596 33.3894 130.186 30.9452C130.302 30.9214 130.365 30.9073 130.365 30.9073C130.746 30.8409 130.889 30.4026 130.719 30.1079C129.736 28.4048 129.385 26.2825 129.385 24.1733C129.385 22.8733 129.6 21.6237 129.999 20.4601C130.021 20.3934 130.046 20.3271 130.07 20.2611C130.084 20.2206 130.113 20.1309 130.118 20.117C130.383 19.5365 130.86 18.2773 131.001 16.8667C131.116 15.7248 130.972 14.7726 130.773 13.8803C130.679 13.4483 130.437 12.738 130.283 12.4083C130.257 12.3601 130.23 12.3132 130.203 12.267C130.558 11.9082 130.627 11.3357 130.354 10.8601C130.033 10.3024 129.374 10.0815 128.882 10.3676C128.83 10.3976 128.708 10.4835 128.654 10.5234C128.565 10.4571 128.512 10.4237 128.512 10.4237C128.51 10.4218 128.374 10.3322 128.254 10.2692C128.254 10.2689 128.209 10.2461 128.209 10.2454C127.703 10.02 127.155 9.90039 126.567 9.90039C126.279 9.90039 125.998 9.93038 125.726 9.98717C125.139 10.1103 124.598 10.3601 124.132 10.7074C123.889 10.7859 123.627 10.8037 123.627 10.8037L122.961 10.836C122.648 10.8492 122.29 10.8337 122.29 10.8337C122.134 10.8337 122.007 10.9617 122.007 11.1194C122.007 11.1335 122.109 12.0553 122.11 12.0583C122.135 12.289 122.231 12.5069 122.423 12.6319L122.445 12.6476C122.507 12.6889 122.538 12.7221 122.551 12.7574C122.624 12.9581 122.773 13.1586 122.874 13.2197C122.92 13.2481 122.99 13.2341 123.004 13.1818C123.13 12.6798 123.428 13.2216 123.994 12.9124C124.141 12.8329 124.218 13.1886 124.157 13.344L124.104 13.4786C123.987 13.7779 123.718 13.9928 123.4 14.039C123.149 14.0757 123.005 14.1014 123.008 14.1364C123.038 14.4209 123.005 14.6654 123.292 14.8361C123.376 14.8814 123.417 14.8922 123.417 14.8922C123.857 15.0084 125.141 15.5037 123.509 17.4421C123.509 17.4421 123.354 17.6163 123.235 17.7896C123.2 17.8391 123.17 17.8919 123.144 17.9464L123.11 18.016L118.205 16.1678C118.057 16.1102 117.867 15.9477 117.776 15.817L117.293 14.9811C116.993 14.5632 116.731 14.4045 116.21 14.3616C115.834 14.3306 115.528 14.3593 115.528 14.3593C115.382 14.3669 115.297 14.4013 115.266 14.487C115.232 14.5798 115.229 14.8137 115.372 15.1058L115.794 15.884C115.831 15.9394 116.361 17.1343 116.361 17.1343C116.414 17.2817 116.505 17.4116 116.625 17.5116C116.636 17.5207 121.661 21.3433 121.661 21.3433L116.354 24.0087C116.201 24.0921 116.021 24.111 115.855 24.0602C115.66 24.0007 115.381 23.9154 115.379 23.915C114.511 23.5256 113.857 23.7965 113.474 24.1196C113.471 24.1226 113.324 24.2629 113.324 24.2629C113.18 24.408 113.233 24.6052 113.397 24.6864C113.397 24.6864 114.235 25.182 114.419 25.309L115.723 26.0865C115.926 26.2047 116.164 26.2437 116.394 26.1964L121.546 25.1503C121.671 27.1361 122.168 28.7869 122.168 28.7869C121.239 29.6856 119.959 31.4034 119.538 33.7591C119.288 35.1595 119.37 36.4288 119.749 37.9208C119.03 37.9605 118.335 38.0678 117.758 38.4713C117.209 38.8555 117.097 39.5397 117.094 39.8816L121.117 39.8906L121.458 39.8886C121.881 39.883 121.99 39.4605 121.991 39.4593C122.032 39.3312 122.046 39.1637 122.065 39.0391C122.193 38.2286 122.295 37.3873 123.01 35.9338C123.589 34.7596 124.612 33.7025 124.613 33.7025C124.615 33.7058 126.306 36.2259 129.164 37.9543C128.616 37.9893 127.908 38.1715 127.488 38.4068C126.822 38.7793 126.638 39.545 126.654 39.9004H130.822C131.108 39.9004 131.348 39.714 131.434 39.4598C131.443 39.4337 131.45 39.4064 131.456 39.3787C131.46 39.3589 131.463 39.3388 131.464 39.3189C131.469 39.2759 131.469 39.2314 131.464 39.1868Z" fill="black"></path>
    <path d="M12.3133 64.1429C12.2958 64.0899 12.3133 64.0547 12.3659 64.0282L12.8129 63.843C12.8654 63.8165 12.9092 63.843 12.9266 63.8959C13.1107 64.5311 13.6276 64.9015 14.2934 64.9015C15.152 64.9015 15.59 64.4076 15.59 63.7636C15.59 63.0757 15.1344 62.6876 14.4599 62.5554L14.0131 62.4672C13.1018 62.2908 12.4973 61.7087 12.4973 60.7737C12.4973 59.8386 13.2509 59.0625 14.3372 59.0625C15.2222 59.0625 15.888 59.5564 16.1771 60.3325C16.1946 60.3854 16.1771 60.4207 16.1244 60.4472L15.6688 60.6412C15.6163 60.6676 15.5725 60.6412 15.5549 60.5883C15.3447 60.0415 14.8804 59.6975 14.3372 59.6975C13.6013 59.6975 13.1806 60.1561 13.1806 60.7647C13.1806 61.3115 13.4962 61.6907 14.1532 61.8142L14.6 61.9024C15.4761 62.0788 16.2735 62.6256 16.2735 63.7192C16.2735 64.7422 15.5199 65.5362 14.2847 65.5362C13.3648 65.5363 12.6112 65.016 12.3133 64.1429Z" fill="black"></path>
    <path d="M17.0958 63.3405C17.0958 62.0439 17.9544 61.2061 19.0759 61.2061C20.1974 61.2061 21.0383 62.0617 21.0383 63.2435C21.0383 63.3053 21.0383 63.3758 21.0295 63.4464C21.0208 63.4905 20.9945 63.5169 20.9419 63.5169H17.8492C17.7879 63.5169 17.7529 63.5434 17.7704 63.6316C17.8669 64.399 18.3838 64.9018 19.1635 64.9018C19.6453 64.9018 20.0308 64.6813 20.3112 64.3902C20.3727 64.3285 20.4165 64.3109 20.4603 64.3549L20.7492 64.6724C20.7842 64.7077 20.7842 64.7518 20.7492 64.7871C20.3374 65.2193 19.7855 65.4838 19.1635 65.4838C17.9544 65.4838 17.0958 64.637 17.0958 63.3405ZM20.355 62.8996C20.2412 62.2381 19.7505 61.7883 19.0759 61.7883C18.4099 61.7883 17.893 62.2557 17.7879 62.9086C17.7702 62.9791 17.7879 63.0056 17.8668 63.0056H20.2759C20.3462 63.0054 20.3725 62.9789 20.355 62.8996Z" fill="black"></path>
    <path d="M22.5989 65.3867H22.1346C22.082 65.3867 22.047 65.3514 22.047 65.2985V61.3824C22.047 61.3295 22.082 61.2942 22.1346 61.2942H22.5551C22.6077 61.2942 22.6427 61.3295 22.6427 61.3824V61.6735C22.6427 61.7176 22.6778 61.7352 22.7128 61.6911C22.9756 61.3913 23.2998 61.2061 23.7728 61.2061C24.6752 61.2061 25.1397 61.8058 25.1397 62.5556V65.2986C25.1397 65.3516 25.1046 65.3868 25.0521 65.3868H24.5878C24.5352 65.3868 24.5002 65.3516 24.5002 65.2986V62.6614C24.5002 62.0882 24.1935 61.7795 23.6504 61.7795C23.2649 61.7795 22.9406 61.9912 22.7303 62.3616C22.6953 62.4321 22.6865 62.4762 22.6865 62.5468V65.2986C22.6865 65.3514 22.6515 65.3867 22.5989 65.3867Z" fill="black"></path>
    <path d="M26.1368 63.3405C26.1368 62.0617 27.0041 61.2061 28.1343 61.2061C28.7125 61.2061 29.1594 61.4001 29.4573 61.753C29.4834 61.7795 29.5099 61.7619 29.5099 61.7266V61.3826C29.5099 61.3297 29.5449 61.2944 29.5975 61.2944H30.0267C30.0793 61.2944 30.1143 61.3297 30.1143 61.3826V65.2986C30.1143 65.3515 30.0793 65.3868 30.0267 65.3868H29.5975C29.5449 65.3868 29.5099 65.3515 29.5099 65.2986V64.9547C29.5099 64.9194 29.4836 64.9018 29.4573 64.9282C29.133 65.2545 28.7125 65.475 28.1343 65.475C27.0041 65.475 26.1368 64.6195 26.1368 63.3405ZM29.4396 64.2401C29.4659 64.1872 29.4746 64.1519 29.4746 64.0814V62.5997C29.4746 62.5291 29.4659 62.4939 29.4396 62.4409C29.2206 62.0529 28.7826 61.7883 28.2306 61.7883C27.3633 61.7883 26.7851 62.4145 26.7851 63.3407C26.7851 64.2668 27.3633 64.8929 28.2306 64.8929C28.7826 64.8929 29.2383 64.637 29.4396 64.2401Z" fill="black"></path>
    <path d="M31.7177 59.6976L32.1907 59.4419C32.2521 59.4154 32.2959 59.4419 32.2959 59.5036V61.2498C32.2959 61.2763 32.3134 61.2939 32.3397 61.2939H32.8215C32.8741 61.2939 32.9091 61.3292 32.9091 61.3821V61.7614C32.9091 61.8143 32.8741 61.8496 32.8215 61.8496H32.3397C32.3134 61.8496 32.2959 61.8672 32.2959 61.8937V65.2981C32.2959 65.3511 32.2608 65.3863 32.2083 65.3863H31.7439C31.6914 65.3863 31.6563 65.3511 31.6563 65.2981V61.8937C31.6563 61.8672 31.6388 61.8496 31.6125 61.8496H31.1307C31.0781 61.8496 31.0431 61.8143 31.0431 61.7614V61.3821C31.0431 61.3292 31.0781 61.2939 31.1307 61.2939H31.6125C31.6388 61.2939 31.6563 61.2763 31.6563 61.2498V59.8035C31.6563 59.7594 31.6739 59.7153 31.7177 59.6976Z" fill="black"></path>
    <path d="M33.4943 63.3396C33.4943 62.0429 34.3528 61.2051 35.4743 61.2051C36.5959 61.2051 37.4367 62.0607 37.4367 63.2425C37.4367 63.3043 37.4367 63.3748 37.428 63.4454C37.4192 63.4895 37.3929 63.5159 37.3404 63.5159H34.2475C34.1862 63.5159 34.1511 63.5424 34.1687 63.6306C34.2652 64.3981 34.7821 64.9008 35.5618 64.9008C36.0436 64.9008 36.4291 64.6803 36.7094 64.3893C36.7709 64.3275 36.8147 64.3099 36.8585 64.354L37.1475 64.6715C37.1825 64.7067 37.1825 64.7508 37.1475 64.7861C36.7357 65.2183 36.1838 65.4829 35.5618 65.4829C34.3528 65.4829 33.4943 64.636 33.4943 63.3396ZM36.7532 62.8986C36.6395 62.2371 36.1487 61.7873 35.4742 61.7873C34.8082 61.7873 34.2913 62.2548 34.1862 62.9076C34.1685 62.9781 34.1862 63.0046 34.265 63.0046H36.6742C36.7445 63.0044 36.7709 62.978 36.7532 62.8986Z" fill="black"></path>
    <path d="M45.7696 62.2999C45.7696 64.1874 44.5343 65.3869 42.7996 65.3869H40.9686C40.916 65.3869 40.881 65.3516 40.881 65.2987V59.3011C40.881 59.2482 40.916 59.2129 40.9686 59.2129H42.7996C44.5345 59.2129 45.7696 60.4123 45.7696 62.2999ZM41.5731 64.7607H42.7735C44.1138 64.7607 45.0863 63.9052 45.0863 62.2999C45.0863 60.6946 44.1138 59.8391 42.7735 59.8391H41.5731C41.5468 59.8391 41.5293 59.8567 41.5293 59.8832V64.7164C41.5293 64.7429 41.5468 64.7607 41.5731 64.7607Z" fill="black"></path>
    <path d="M46.6017 63.3396C46.6017 62.0429 47.4602 61.2051 48.5818 61.2051C49.7033 61.2051 50.5441 62.0607 50.5441 63.2425C50.5441 63.3043 50.5441 63.3748 50.5354 63.4454C50.5266 63.4895 50.5003 63.5159 50.4478 63.5159H47.3551C47.2938 63.5159 47.2587 63.5424 47.2762 63.6306C47.3728 64.3981 47.8897 64.9008 48.6694 64.9008C49.1512 64.9008 49.5367 64.6803 49.817 64.3893C49.8785 64.3275 49.9223 64.3099 49.9661 64.354L50.255 64.6715C50.2901 64.7067 50.2901 64.7508 50.255 64.7861C49.8433 65.2183 49.2914 65.4829 48.6694 65.4829C47.4604 65.4829 46.6017 64.636 46.6017 63.3396ZM49.8608 62.8986C49.7471 62.2371 49.2563 61.7873 48.5818 61.7873C47.9158 61.7873 47.3989 62.2548 47.2938 62.9076C47.2761 62.9781 47.2938 63.0046 47.3726 63.0046H49.7818C49.8521 63.0044 49.8785 62.978 49.8608 62.8986Z" fill="black"></path>
    <path d="M52.1028 67.1235H51.6385C51.5859 67.1235 51.5509 67.0882 51.5509 67.0353V61.3816C51.5509 61.3287 51.5859 61.2935 51.6385 61.2935H52.059C52.1116 61.2935 52.1466 61.3287 52.1466 61.3816V61.6903C52.1466 61.7521 52.1817 61.7609 52.2255 61.708C52.5146 61.3728 52.9526 61.2051 53.522 61.2051C54.6611 61.2051 55.5284 62.0607 55.5284 63.3396C55.5284 64.6184 54.6611 65.474 53.522 65.474C52.9789 65.474 52.5584 65.2977 52.2693 65.0066C52.2167 64.9537 52.1904 64.9802 52.1904 65.0331V67.0353C52.1904 67.0882 52.1554 67.1235 52.1028 67.1235ZM54.8801 63.3397C54.8801 62.4137 54.3017 61.7873 53.4344 61.7873C52.8825 61.7873 52.427 62.0343 52.2255 62.44C52.1992 62.4929 52.1904 62.5282 52.1904 62.5811V64.0982C52.1904 64.1511 52.1992 64.1864 52.2255 64.2393C52.427 64.645 52.8825 64.892 53.4344 64.892C54.3019 64.8921 54.8801 64.2658 54.8801 63.3397Z" fill="black"></path>
    <path d="M56.2814 63.3396C56.2814 62.0607 57.1487 61.2051 58.2788 61.2051C58.857 61.2051 59.304 61.3991 59.6018 61.7521C59.6279 61.7785 59.6544 61.7609 59.6544 61.7256V61.3816C59.6544 61.3287 59.6894 61.2934 59.742 61.2934H60.1713C60.2238 61.2934 60.2589 61.3287 60.2589 61.3816V65.2977C60.2589 65.3506 60.2238 65.3858 60.1713 65.3858H59.742C59.6894 65.3858 59.6544 65.3506 59.6544 65.2977V64.9537C59.6544 64.9184 59.6281 64.9008 59.6018 64.9272C59.2775 65.2536 58.857 65.474 58.2788 65.474C57.1489 65.474 56.2814 64.6186 56.2814 63.3396ZM59.5843 64.2391C59.6106 64.1862 59.6194 64.1509 59.6194 64.0804V62.5987C59.6194 62.5282 59.6106 62.4929 59.5843 62.44C59.3653 62.0519 58.9273 61.7873 58.3753 61.7873C57.508 61.7873 56.9298 62.4135 56.9298 63.3397C56.9298 64.2658 57.508 64.892 58.3753 64.892C58.9273 64.892 59.383 64.636 59.5843 64.2391Z" fill="black"></path>
    <path d="M63.4942 61.2149C63.5469 61.2149 63.573 61.2501 63.573 61.3031V61.7705C63.573 61.8322 63.538 61.8587 63.4766 61.8411C63.4066 61.8322 63.3275 61.8234 63.2664 61.8234C62.8106 61.8234 62.504 62.0439 62.3027 62.3438C62.25 62.4231 62.2412 62.4849 62.2412 62.5642V65.2985C62.2412 65.3514 62.2062 65.3866 62.1536 65.3866H61.6893C61.6367 65.3866 61.6017 65.3514 61.6017 65.2985V61.3824C61.6017 61.3295 61.6367 61.2942 61.6893 61.2942H62.1098C62.1624 61.2942 62.1974 61.3295 62.1974 61.3824V61.6999C62.1974 61.744 62.2237 61.7617 62.2589 61.7264C62.4867 61.453 62.8459 61.2061 63.3627 61.2061C63.4066 61.2061 63.4504 61.2061 63.4942 61.2149Z" fill="black"></path>
    <path d="M64.6493 59.6976L65.1222 59.4419C65.1837 59.4154 65.2275 59.4419 65.2275 59.5036V61.2498C65.2275 61.2763 65.245 61.2939 65.2713 61.2939H65.7531C65.8057 61.2939 65.8407 61.3292 65.8407 61.3821V61.7614C65.8407 61.8143 65.8057 61.8496 65.7531 61.8496H65.2713C65.245 61.8496 65.2275 61.8672 65.2275 61.8937V65.2981C65.2275 65.3511 65.1925 65.3863 65.1399 65.3863H64.6756C64.623 65.3863 64.588 65.3511 64.588 65.2981V61.8937C64.588 61.8672 64.5705 61.8496 64.5442 61.8496H64.0623C64.0098 61.8496 63.9747 61.8143 63.9747 61.7614V61.3821C63.9747 61.3292 64.0098 61.2939 64.0623 61.2939H64.5442C64.5705 61.2939 64.588 61.2763 64.588 61.2498V59.8035C64.588 59.7594 64.6055 59.7153 64.6493 59.6976Z" fill="black"></path>
    <path d="M67.3196 65.3857H66.8553C66.8027 65.3857 66.7677 65.3504 66.7677 65.2975V61.3815C66.7677 61.3286 66.8027 61.2933 66.8553 61.2933H67.2758C67.3284 61.2933 67.3634 61.3286 67.3634 61.3815V61.6725C67.3634 61.7166 67.3985 61.7342 67.4335 61.6901C67.6876 61.3903 68.0292 61.2051 68.4935 61.2051C69.0807 61.2051 69.4749 61.4697 69.6939 61.8313C69.7202 61.8754 69.7465 61.8754 69.7815 61.8313C70.0706 61.4697 70.4037 61.2051 70.9556 61.2051C71.8492 61.2051 72.3135 61.8048 72.3135 62.5546V65.2977C72.3135 65.3506 72.2785 65.3859 72.2259 65.3859H71.7616C71.7091 65.3859 71.674 65.3506 71.674 65.2977V62.6605C71.674 62.0784 71.3586 61.7785 70.8155 61.7785C70.4125 61.7785 70.1234 61.9814 69.9131 62.343C69.8783 62.4047 69.8606 62.4841 69.8606 62.5546V65.2977C69.8606 65.3506 69.8255 65.3859 69.7729 65.3859H69.3086C69.2561 65.3859 69.221 65.3506 69.221 65.2977V62.6605C69.221 62.0872 68.9144 61.7785 68.3712 61.7785C67.9858 61.7785 67.6615 61.9902 67.4512 62.3606C67.4162 62.4312 67.4074 62.4753 67.4074 62.5546V65.2977C67.4072 65.3504 67.372 65.3857 67.3196 65.3857Z" fill="black"></path>
    <path d="M73.3068 63.3396C73.3068 62.0429 74.1653 61.2051 75.2868 61.2051C76.4084 61.2051 77.2492 62.0607 77.2492 63.2425C77.2492 63.3043 77.2492 63.3748 77.2405 63.4454C77.2317 63.4895 77.2054 63.5159 77.1529 63.5159H74.0602C73.9989 63.5159 73.9638 63.5424 73.9813 63.6306C74.0779 64.3981 74.5948 64.9008 75.3744 64.9008C75.8563 64.9008 76.2418 64.6803 76.5221 64.3893C76.5836 64.3275 76.6274 64.3099 76.6712 64.354L76.9601 64.6715C76.9952 64.7067 76.9952 64.7508 76.9601 64.7861C76.5484 65.2183 75.9965 65.4829 75.3744 65.4829C74.1653 65.4829 73.3068 64.636 73.3068 63.3396ZM76.5659 62.8986C76.4522 62.2371 75.9614 61.7873 75.2868 61.7873C74.6209 61.7873 74.104 62.2548 73.9989 62.9076C73.9812 62.9781 73.9989 63.0046 74.0777 63.0046H76.4869C76.5571 63.0044 76.5834 62.978 76.5659 62.8986Z" fill="black"></path>
    <path d="M78.8079 65.3857H78.3436C78.291 65.3857 78.256 65.3504 78.256 65.2975V61.3815C78.256 61.3286 78.291 61.2933 78.3436 61.2933H78.7641C78.8167 61.2933 78.8517 61.3286 78.8517 61.3815V61.6725C78.8517 61.7166 78.8867 61.7342 78.9218 61.6901C79.1846 61.3903 79.5087 61.2051 79.9818 61.2051C80.8842 61.2051 81.3487 61.8048 81.3487 62.5546V65.2977C81.3487 65.3506 81.3136 65.3859 81.2611 65.3859H80.7967C80.7442 65.3859 80.7091 65.3506 80.7091 65.2977V62.6605C80.7091 62.0872 80.4025 61.7785 79.8594 61.7785C79.4739 61.7785 79.1496 61.9902 78.9393 62.3606C78.9043 62.4312 78.8955 62.4753 78.8955 62.5458V65.2977C78.8955 65.3504 78.8605 65.3857 78.8079 65.3857Z" fill="black"></path>
    <path d="M82.8622 59.6976L83.3351 59.4419C83.3966 59.4154 83.4404 59.4419 83.4404 59.5036V61.2498C83.4404 61.2763 83.4579 61.2939 83.4842 61.2939H83.966C84.0186 61.2939 84.0536 61.3292 84.0536 61.3821V61.7614C84.0536 61.8143 84.0186 61.8496 83.966 61.8496H83.4842C83.4579 61.8496 83.4404 61.8672 83.4404 61.8937V65.2981C83.4404 65.3511 83.4054 65.3863 83.3528 65.3863H82.8885C82.8359 65.3863 82.8009 65.3511 82.8009 65.2981V61.8937C82.8009 61.8672 82.7833 61.8496 82.7571 61.8496H82.2752C82.2227 61.8496 82.1876 61.8143 82.1876 61.7614V61.3821C82.1876 61.3292 82.2227 61.2939 82.2752 61.2939H82.7571C82.7833 61.2939 82.8009 61.2763 82.8009 61.2498V59.8035C82.8007 59.7594 82.8184 59.7153 82.8622 59.6976Z" fill="black"></path>
    <path d="M12.7339 76.7107V73.3062C12.7339 73.2797 12.7162 73.2621 12.6901 73.2621H12.3397C12.2871 73.2621 12.2521 73.2268 12.2521 73.1827V72.7947C12.2521 72.7418 12.2871 72.7065 12.3397 72.7065H12.6901C12.7162 72.7065 12.7339 72.6888 12.7339 72.6624V71.3571C12.7339 70.7221 13.0581 70.3164 13.6801 70.3164C13.8553 70.3164 14.0217 70.3693 14.1619 70.4311C14.2145 70.4575 14.2407 70.484 14.2232 70.5369L14.1007 70.9514C14.0831 71.0131 14.0392 71.0131 13.9869 70.9867C13.8993 70.9426 13.8116 70.9161 13.7328 70.9161C13.5138 70.9161 13.3736 71.0749 13.3736 71.3924V72.6624C13.3736 72.6888 13.3911 72.7065 13.4174 72.7065H13.9606C14.0133 72.7065 14.0482 72.7418 14.0482 72.7947V73.1827C14.0482 73.2268 14.0133 73.2621 13.9606 73.2621H13.4174C13.3911 73.2621 13.3736 73.2797 13.3736 73.3062V76.7107C13.3736 76.7636 13.3386 76.7989 13.2948 76.7989H12.8217C12.769 76.7989 12.7339 76.7634 12.7339 76.7107Z" fill="black"></path>
    <path d="M14.5724 74.7526C14.5724 73.5797 15.4397 72.6182 16.6224 72.6182C17.8051 72.6182 18.6725 73.5797 18.6725 74.7526C18.6725 75.9256 17.8051 76.8871 16.6224 76.8871C15.4397 76.8871 14.5724 75.9256 14.5724 74.7526ZM18.0243 74.7526C18.0243 73.906 17.4546 73.2092 16.6224 73.2092C15.7901 73.2092 15.2207 73.906 15.2207 74.7526C15.2207 75.5993 15.7901 76.2961 16.6224 76.2961C17.4546 76.2961 18.0243 75.5993 18.0243 74.7526Z" fill="black"></path>
    <path d="M21.6094 72.627C21.6621 72.627 21.6882 72.6623 21.6882 72.7152V73.1826C21.6882 73.2443 21.6532 73.2708 21.5919 73.2532C21.5218 73.2443 21.4428 73.2355 21.3816 73.2355C20.9259 73.2355 20.6193 73.456 20.4179 73.7559C20.3652 73.8352 20.3564 73.897 20.3564 73.9764V76.7106C20.3564 76.7635 20.3214 76.7988 20.2688 76.7988H19.8045C19.752 76.7988 19.7169 76.7635 19.7169 76.7106V72.7946C19.7169 72.7416 19.752 72.7064 19.8045 72.7064H20.225C20.2776 72.7064 20.3126 72.7416 20.3126 72.7946V73.1121C20.3126 73.1562 20.3389 73.1738 20.3741 73.1385C20.6019 72.8651 20.9611 72.6182 21.478 72.6182C21.5218 72.6182 21.5656 72.6182 21.6094 72.627Z" fill="black"></path>
    <path d="M24.8065 70.625H27.794C27.8466 70.625 27.8816 70.6603 27.8816 70.7132V71.163C27.8816 71.2159 27.8466 71.2512 27.794 71.2512H25.411C25.3847 71.2512 25.3672 71.2688 25.3672 71.2953V73.2975C25.3672 73.3239 25.3847 73.3416 25.411 73.3416H27.794C27.8466 73.3416 27.8816 73.3768 27.8816 73.4298V73.8795C27.8816 73.9325 27.8466 73.9677 27.794 73.9677H25.411C25.3847 73.9677 25.3672 73.9854 25.3672 74.0118V76.1287C25.3672 76.155 25.3847 76.1728 25.411 76.1728H27.794C27.8466 76.1728 27.8816 76.2079 27.8816 76.261V76.7108C27.8816 76.7637 27.8466 76.799 27.794 76.799H24.8065C24.7539 76.799 24.7189 76.7637 24.7189 76.7108V70.7132C24.7189 70.6601 24.7539 70.625 24.8065 70.625Z" fill="black"></path>
    <path d="M30.7809 72.6182C31.473 72.6182 32.0863 72.9268 32.4194 73.4825C32.4455 73.5354 32.4281 73.5795 32.3843 73.6059L32.0076 73.8176C31.9638 73.8441 31.92 73.8352 31.885 73.7823C31.6659 73.4207 31.2629 73.2091 30.7811 73.2091C29.9399 73.2091 29.3969 73.8352 29.3969 74.7525C29.3969 75.6697 29.9401 76.2959 30.7811 76.2959C31.2629 76.2959 31.6484 76.0754 31.885 75.7226C31.92 75.6697 31.9638 75.6609 32.0076 75.6873L32.3843 75.899C32.4281 75.9255 32.4456 75.9696 32.4194 76.0225C32.1302 76.6047 31.4732 76.8868 30.7809 76.8868C29.5981 76.8868 28.7483 76.0311 28.7483 74.7523C28.7483 73.4737 29.5981 72.6182 30.7809 72.6182Z" fill="black"></path>
    <path d="M33.094 74.7526C33.094 73.5797 33.9613 72.6182 35.144 72.6182C36.3267 72.6182 37.1942 73.5797 37.1942 74.7526C37.1942 75.9256 36.3267 76.8871 35.144 76.8871C33.9613 76.8871 33.094 75.9256 33.094 74.7526ZM36.5459 74.7526C36.5459 73.906 35.9762 73.2092 35.144 73.2092C34.3117 73.2092 33.7423 73.906 33.7423 74.7526C33.7423 75.5993 34.3117 76.2961 35.144 76.2961C35.9762 76.2961 36.5459 75.5993 36.5459 74.7526Z" fill="black"></path>
    <path d="M38.7884 76.7988H38.3241C38.2715 76.7988 38.2365 76.7635 38.2365 76.7106V72.7946C38.2365 72.7416 38.2715 72.7064 38.3241 72.7064H38.7446C38.7971 72.7064 38.8322 72.7416 38.8322 72.7946V73.0856C38.8322 73.1297 38.8672 73.1473 38.9023 73.1032C39.1651 72.8034 39.4892 72.6182 39.9623 72.6182C40.8646 72.6182 41.3291 73.2179 41.3291 73.9677V76.7107C41.3291 76.7637 41.2941 76.7989 41.2415 76.7989H40.7772C40.7247 76.7989 40.6896 76.7637 40.6896 76.7107V74.0736C40.6896 73.5003 40.383 73.1916 39.8398 73.1916C39.4544 73.1916 39.13 73.4033 38.9198 73.7737C38.8847 73.8442 38.876 73.8883 38.876 73.9589V76.7107C38.876 76.7633 38.8409 76.7988 38.7884 76.7988Z" fill="black"></path>
    <path d="M42.3186 74.7526C42.3186 73.5797 43.1859 72.6182 44.3686 72.6182C45.5513 72.6182 46.4188 73.5797 46.4188 74.7526C46.4188 75.9256 45.5513 76.8871 44.3686 76.8871C43.1859 76.8871 42.3186 75.9256 42.3186 74.7526ZM45.7705 74.7526C45.7705 73.906 45.2009 73.2092 44.3686 73.2092C43.5363 73.2092 42.9669 73.906 42.9669 74.7526C42.9669 75.5993 43.5363 76.2961 44.3686 76.2961C45.2009 76.2961 45.7705 75.5993 45.7705 74.7526Z" fill="black"></path>
    <path d="M48.013 76.7988H47.5487C47.4961 76.7988 47.4611 76.7635 47.4611 76.7106V72.7946C47.4611 72.7416 47.4961 72.7064 47.5487 72.7064H47.9692C48.0217 72.7064 48.0568 72.7416 48.0568 72.7946V73.0856C48.0568 73.1297 48.0918 73.1473 48.1269 73.1032C48.3809 72.8034 48.7226 72.6182 49.1869 72.6182C49.774 72.6182 50.1683 72.8827 50.3873 73.2443C50.4136 73.2884 50.4399 73.2884 50.4749 73.2443C50.764 72.8827 51.0971 72.6182 51.649 72.6182C52.5426 72.6182 53.0069 73.2179 53.0069 73.9677V76.7107C53.0069 76.7637 52.9719 76.7989 52.9193 76.7989H52.455C52.4024 76.7989 52.3674 76.7637 52.3674 76.7107V74.0736C52.3674 73.4915 52.052 73.1916 51.5088 73.1916C51.1058 73.1916 50.8167 73.3944 50.6065 73.756C50.5716 73.8178 50.5539 73.8972 50.5539 73.9677V76.7107C50.5539 76.7637 50.5189 76.7989 50.4663 76.7989H50.002C49.9494 76.7989 49.9144 76.7637 49.9144 76.7107V74.0736C49.9144 73.5003 49.6078 73.1916 49.0646 73.1916C48.6791 73.1916 48.3548 73.4033 48.1446 73.7737C48.1095 73.8442 48.1008 73.8883 48.1008 73.9677V76.7107C48.1006 76.7633 48.0655 76.7988 48.013 76.7988Z" fill="black"></path>
    <path d="M54.1368 71.2682C54.1368 71.0125 54.3559 70.792 54.6187 70.792C54.864 70.792 55.083 71.0125 55.083 71.2682C55.083 71.524 54.864 71.7533 54.6187 71.7533C54.3559 71.7535 54.1368 71.5242 54.1368 71.2682ZM54.2856 76.7104V72.7944C54.2856 72.7414 54.3206 72.7062 54.3732 72.7062H54.8375C54.8901 72.7062 54.9251 72.7414 54.9251 72.7944V76.7104C54.9251 76.7633 54.8901 76.7986 54.8375 76.7986H54.3732C54.3206 76.7986 54.2856 76.7631 54.2856 76.7104Z" fill="black"></path>
    <path d="M57.9996 72.6182C58.6917 72.6182 59.3049 72.9268 59.638 73.4825C59.6641 73.5354 59.6467 73.5795 59.6029 73.6059L59.2262 73.8176C59.1824 73.8441 59.1386 73.8352 59.1036 73.7823C58.8846 73.4207 58.4816 73.2091 57.9997 73.2091C57.1585 73.2091 56.6156 73.8352 56.6156 74.7525C56.6156 75.6697 57.1587 76.2959 57.9997 76.2959C58.4816 76.2959 58.867 76.0754 59.1036 75.7226C59.1386 75.6697 59.1824 75.6609 59.2262 75.6873L59.6029 75.899C59.6467 75.9255 59.6643 75.9696 59.638 76.0225C59.3489 76.6047 58.6918 76.8868 57.9996 76.8868C56.8167 76.8868 55.9669 76.0311 55.9669 74.7523C55.9671 73.4737 56.8167 72.6182 57.9996 72.6182Z" fill="black"></path>
    <path d="M65.3568 70.722L67.1617 76.702C67.1793 76.7637 67.1529 76.799 67.0917 76.799H66.601C66.5484 76.799 66.5046 76.7725 66.4873 76.7284L66.1018 75.4055C66.0841 75.3526 66.058 75.3349 66.0053 75.3349H63.4822C63.4296 75.3349 63.4033 75.3528 63.3858 75.4055L63.0003 76.7284C62.9826 76.7725 62.9388 76.799 62.8865 76.799H62.3959C62.3344 76.799 62.3083 76.7637 62.3258 76.702L64.1306 70.722C64.1482 70.6426 64.192 70.625 64.2445 70.625H65.2433C65.2956 70.6252 65.3394 70.6426 65.3568 70.722ZM63.6397 74.7088H65.8476C65.8737 74.7088 65.8914 74.6911 65.8826 74.6558L64.8837 71.2955C64.875 71.269 64.8662 71.2514 64.8311 71.2514H64.6559C64.6209 71.2514 64.6121 71.269 64.6034 71.2955L63.6047 74.6558C63.5959 74.6911 63.6134 74.7088 63.6397 74.7088Z" fill="black"></path>
    <path d="M68.1363 76.7107V73.3062C68.1363 73.2797 68.1186 73.2621 68.0925 73.2621H67.742C67.6895 73.2621 67.6544 73.2268 67.6544 73.1827V72.7947C67.6544 72.7418 67.6895 72.7065 67.742 72.7065H68.0925C68.1186 72.7065 68.1363 72.6888 68.1363 72.6624V71.3571C68.1363 70.7221 68.4604 70.3164 69.0824 70.3164C69.2576 70.3164 69.4241 70.3693 69.5642 70.4311C69.6168 70.4575 69.6431 70.484 69.6256 70.5369L69.5031 70.9514C69.4854 71.0131 69.4416 71.0131 69.3892 70.9867C69.3016 70.9426 69.214 70.9161 69.1351 70.9161C68.9161 70.9161 68.776 71.0749 68.776 71.3924V72.6624C68.776 72.6888 68.7935 72.7065 68.8198 72.7065H69.3629C69.4157 72.7065 69.4505 72.7418 69.4505 72.7947V73.1827C69.4505 73.2268 69.4157 73.2621 69.3629 73.2621H68.8198C68.7935 73.2621 68.776 73.2797 68.776 73.3062V76.7107C68.776 76.7636 68.7409 76.7989 68.6971 76.7989H68.224C68.1713 76.7989 68.1363 76.7634 68.1363 76.7107Z" fill="black"></path>
    <path d="M70.482 76.7107V73.3062C70.482 73.2797 70.4643 73.2621 70.4382 73.2621H70.0877C70.0352 73.2621 70.0001 73.2268 70.0001 73.1827V72.7947C70.0001 72.7418 70.0352 72.7065 70.0877 72.7065H70.4382C70.4643 72.7065 70.482 72.6888 70.482 72.6624V71.3571C70.482 70.7221 70.8061 70.3164 71.4281 70.3164C71.6033 70.3164 71.7698 70.3693 71.9099 70.4311C71.9625 70.4575 71.9888 70.484 71.9713 70.5369L71.8488 70.9514C71.8311 71.0131 71.7873 71.0131 71.7349 70.9867C71.6473 70.9426 71.5597 70.9161 71.4808 70.9161C71.2618 70.9161 71.1217 71.0749 71.1217 71.3924V72.6624C71.1217 72.6888 71.1392 72.7065 71.1655 72.7065H71.7086C71.7614 72.7065 71.7962 72.7418 71.7962 72.7947V73.1827C71.7962 73.2268 71.7614 73.2621 71.7086 73.2621H71.1655C71.1392 73.2621 71.1217 73.2797 71.1217 73.3062V76.7107C71.1217 76.7636 71.0866 76.7989 71.0428 76.7989H70.5697C70.5172 76.7989 70.482 76.7634 70.482 76.7107Z" fill="black"></path>
    <path d="M72.34 74.7526C72.34 73.4738 73.2073 72.6182 74.3374 72.6182C74.9156 72.6182 75.3626 72.8122 75.6604 73.1651C75.6865 73.1916 75.713 73.174 75.713 73.1387V72.7947C75.713 72.7418 75.748 72.7065 75.8006 72.7065H76.2299C76.2824 72.7065 76.3175 72.7418 76.3175 72.7947V76.7107C76.3175 76.7637 76.2824 76.7989 76.2299 76.7989H75.8006C75.748 76.7989 75.713 76.7637 75.713 76.7107V76.3668C75.713 76.3315 75.6867 76.3139 75.6604 76.3403C75.3361 76.6668 74.9156 76.8873 74.3374 76.8873C73.2073 76.8871 72.34 76.0315 72.34 74.7526ZM75.6429 75.6524C75.6692 75.5993 75.6779 75.5642 75.6779 75.4937V74.012C75.6779 73.9414 75.6692 73.9062 75.6429 73.8532C75.4239 73.4652 74.9859 73.2006 74.4339 73.2006C73.5666 73.2006 72.9884 73.8268 72.9884 74.753C72.9884 75.679 73.5666 76.3054 74.4339 76.3054C74.9859 76.305 75.4414 76.0493 75.6429 75.6524Z" fill="black"></path>
    <path d="M77.5079 71.2682C77.5079 71.0125 77.727 70.792 77.9898 70.792C78.2351 70.792 78.4541 71.0125 78.4541 71.2682C78.4541 71.524 78.2351 71.7533 77.9898 71.7533C77.727 71.7535 77.5079 71.5242 77.5079 71.2682ZM77.6569 76.7104V72.7944C77.6569 72.7414 77.6919 72.7062 77.7445 72.7062H78.2088C78.2613 72.7062 78.2964 72.7414 78.2964 72.7944V76.7104C78.2964 76.7633 78.2613 76.7986 78.2088 76.7986H77.7445C77.6919 76.7986 77.6569 76.7631 77.6569 76.7104Z" fill="black"></path>
    <path d="M81.5215 72.627C81.5742 72.627 81.6003 72.6623 81.6003 72.7152V73.1826C81.6003 73.2443 81.5653 73.2708 81.504 73.2532C81.4339 73.2443 81.3549 73.2355 81.2937 73.2355C80.838 73.2355 80.5314 73.456 80.3301 73.7559C80.2773 73.8352 80.2686 73.897 80.2686 73.9764V76.7106C80.2686 76.7635 80.2335 76.7988 80.1809 76.7988H79.7166C79.6641 76.7988 79.629 76.7635 79.629 76.7106V72.7946C79.629 72.7416 79.6641 72.7064 79.7166 72.7064H80.1371C80.1897 72.7064 80.2248 72.7416 80.2248 72.7946V73.1121C80.2248 73.1562 80.251 73.1738 80.2862 73.1385C80.514 72.8651 80.8732 72.6182 81.3901 72.6182C81.4339 72.6182 81.4777 72.6182 81.5215 72.627Z" fill="black"></path>
    <path d="M82.0907 75.9248C82.0732 75.8719 82.0907 75.8366 82.1432 75.8188L82.5638 75.6689C82.6163 75.6513 82.6601 75.6777 82.6776 75.7306C82.7914 76.1277 83.1332 76.3304 83.4573 76.3304C83.9653 76.3304 84.2108 76.0481 84.2108 75.6865C84.2108 75.2808 83.9129 75.1044 83.5011 75.0251L83.1507 74.9545C82.555 74.8399 82.1781 74.3813 82.1781 73.7992C82.1781 73.1377 82.7214 72.6172 83.4922 72.6172C84.1231 72.6172 84.605 72.9611 84.7802 73.5873C84.7979 73.6491 84.7714 73.6843 84.7189 73.702L84.3069 73.8078C84.2544 73.8255 84.2106 73.799 84.2018 73.7461C84.1142 73.4021 83.8689 73.1816 83.492 73.1816C83.0803 73.1816 82.8089 73.4286 82.8089 73.7727C82.8089 74.1343 83.019 74.3019 83.4044 74.3813L83.7461 74.4518C84.3683 74.5753 84.8413 74.9722 84.8413 75.6865C84.8413 76.3744 84.3245 76.895 83.4572 76.895C82.7391 76.895 82.2747 76.4895 82.0907 75.9248Z" fill="black"></path>
    <path d="M86.9181 76.384C86.9181 76.7457 86.7692 77.0103 86.6115 77.2837L85.9544 78.4214C85.9281 78.4745 85.8843 78.492 85.8318 78.4567L85.5339 78.2627C85.4813 78.2274 85.4813 78.1921 85.5076 78.148L86.1824 76.9837C86.2174 76.9219 86.2086 76.8955 86.1473 76.8692C85.9283 76.7987 85.7794 76.5868 85.7794 76.331C85.7794 76.0224 86.0333 75.7666 86.3488 75.7666C86.664 75.7666 86.9181 75.9961 86.9181 76.384Z" fill="black"></path>
    <path d="M90.369 70.625H93.3565C93.4091 70.625 93.4441 70.6603 93.4441 70.7132V71.163C93.4441 71.2159 93.4091 71.2512 93.3565 71.2512H90.9735C90.9472 71.2512 90.9297 71.2688 90.9297 71.2953V73.2975C90.9297 73.3239 90.9472 73.3416 90.9735 73.3416H93.3565C93.4091 73.3416 93.4441 73.3768 93.4441 73.4298V73.8795C93.4441 73.9325 93.4091 73.9677 93.3565 73.9677H90.9735C90.9472 73.9677 90.9297 73.9854 90.9297 74.0118V76.1287C90.9297 76.155 90.9472 76.1728 90.9735 76.1728H93.3565C93.4091 76.1728 93.4441 76.2079 93.4441 76.261V76.7108C93.4441 76.7637 93.4091 76.799 93.3565 76.799H90.369C90.3164 76.799 90.2814 76.7637 90.2814 76.7108V70.7132C90.2814 70.6601 90.3166 70.625 90.369 70.625Z" fill="black"></path>
    <path d="M95.1885 76.7988H94.7242C94.6716 76.7988 94.6366 76.7635 94.6366 76.7106V72.7946C94.6366 72.7416 94.6716 72.7064 94.7242 72.7064H95.1447C95.1973 72.7064 95.2323 72.7416 95.2323 72.7946V73.0856C95.2323 73.1297 95.2674 73.1473 95.3024 73.1032C95.5652 72.8034 95.8894 72.6182 96.3625 72.6182C97.2648 72.6182 97.7293 73.2179 97.7293 73.9677V76.7107C97.7293 76.7637 97.6942 76.7989 97.6417 76.7989H97.1774C97.1248 76.7989 97.0898 76.7637 97.0898 76.7107V74.0736C97.0898 73.5003 96.7831 73.1916 96.24 73.1916C95.8545 73.1916 95.5302 73.4033 95.3199 73.7737C95.2849 73.8442 95.2761 73.8883 95.2761 73.9589V76.7107C95.2761 76.7633 95.2411 76.7988 95.1885 76.7988Z" fill="black"></path>
    <path d="M98.7286 74.7526C98.7286 73.456 99.5872 72.6182 100.709 72.6182C101.83 72.6182 102.671 73.4738 102.671 74.6556C102.671 74.7174 102.671 74.7879 102.662 74.8585C102.654 74.9026 102.627 74.929 102.575 74.929H99.4821C99.4207 74.929 99.3857 74.9555 99.4032 75.0437C99.4998 75.811 100.017 76.3139 100.796 76.3139C101.278 76.3139 101.664 76.0934 101.944 75.8023C102.005 75.7406 102.049 75.723 102.093 75.7671L102.382 76.0847C102.417 76.1198 102.417 76.1639 102.382 76.1992C101.97 76.6314 101.418 76.896 100.796 76.896C99.5872 76.8958 98.7286 76.0493 98.7286 74.7526ZM101.988 74.3115C101.874 73.65 101.383 73.2003 100.709 73.2003C100.043 73.2003 99.5257 73.6677 99.4206 74.3205C99.4029 74.391 99.4206 74.4175 99.4994 74.4175H101.909C101.979 74.4175 102.005 74.3911 101.988 74.3115Z" fill="black"></path>
    <path d="M105.57 72.627C105.623 72.627 105.649 72.6623 105.649 72.7152V73.1826C105.649 73.2443 105.614 73.2708 105.553 73.2532C105.483 73.2443 105.404 73.2355 105.343 73.2355C104.887 73.2355 104.58 73.456 104.379 73.7559C104.326 73.8352 104.317 73.897 104.317 73.9764V76.7106C104.317 76.7635 104.282 76.7988 104.23 76.7988H103.765C103.713 76.7988 103.678 76.7635 103.678 76.7106V72.7946C103.678 72.7416 103.713 72.7064 103.765 72.7064H104.186C104.239 72.7064 104.274 72.7416 104.274 72.7946V73.1121C104.274 73.1562 104.3 73.1738 104.335 73.1385C104.563 72.8651 104.922 72.6182 105.439 72.6182C105.483 72.6182 105.527 72.6182 105.57 72.627Z" fill="black"></path>
    <path d="M106.437 77.9447C106.402 77.9006 106.402 77.8565 106.437 77.8214L106.734 77.4949C106.769 77.4508 106.813 77.4508 106.857 77.4949C107.111 77.8036 107.496 78.024 108.04 78.024C108.846 78.024 109.345 77.6624 109.345 76.8687V76.2602C109.345 76.2161 109.301 76.1982 109.257 76.2423C108.96 76.5334 108.539 76.7098 107.996 76.7098C106.901 76.7098 106.051 75.8896 106.051 74.6547C106.051 73.4376 106.918 72.6172 108.031 72.6172C108.574 72.6172 109.003 72.7936 109.301 73.1111C109.345 73.1552 109.38 73.1375 109.38 73.0846V72.7936C109.38 72.7407 109.424 72.7054 109.468 72.7054H109.897C109.95 72.7054 109.985 72.7407 109.985 72.7936V76.9213C109.985 78.0149 109.17 78.6148 108.04 78.6148C107.321 78.6149 106.787 78.3417 106.437 77.9447ZM109.31 75.5015C109.345 75.4486 109.354 75.4045 109.354 75.3428V73.9757C109.354 73.914 109.345 73.8699 109.31 73.817C109.082 73.4554 108.671 73.1996 108.119 73.1996C107.277 73.1996 106.708 73.7993 106.708 74.6548C106.708 75.5281 107.277 76.1189 108.119 76.1189C108.671 76.1189 109.082 75.8631 109.31 75.5015Z" fill="black"></path>
    <path d="M113.812 72.7061H114.294C114.364 72.7061 114.39 72.7413 114.373 72.8031L112.331 78.4655C112.314 78.5186 112.27 78.5361 112.226 78.5361H111.753C111.674 78.5361 111.648 78.5008 111.674 78.4214L112.252 76.8075C112.279 76.7371 112.279 76.693 112.252 76.6222L110.851 72.8119C110.824 72.7502 110.86 72.7061 110.921 72.7061H111.42C111.464 72.7061 111.508 72.7237 111.525 72.7766L112.559 75.7666C112.585 75.8371 112.638 75.8371 112.664 75.7666L113.698 72.7766C113.715 72.7237 113.759 72.7061 113.812 72.7061Z" fill="black"></path>
    <path d="M12.297 86.1648C12.297 84.8858 13.1643 84.0303 14.2944 84.0303C14.8726 84.0303 15.3196 84.2243 15.6175 84.5771C15.6436 84.6035 15.67 84.5861 15.67 84.5508V84.2068C15.67 84.1539 15.7051 84.1186 15.7576 84.1186H16.1869C16.2395 84.1186 16.2745 84.1539 16.2745 84.2068V88.1228C16.2745 88.1758 16.2395 88.211 16.1869 88.211H15.7576C15.7051 88.211 15.67 88.1758 15.67 88.1228V87.7789C15.67 87.7436 15.6437 87.726 15.6175 87.7524C15.2931 88.0789 14.8726 88.2994 14.2944 88.2994C13.1643 88.2992 12.297 87.4436 12.297 86.1648ZM15.5998 87.0645C15.626 87.0114 15.6348 86.9763 15.6348 86.9058V85.4241C15.6348 85.3535 15.626 85.3181 15.5998 85.2653C15.3807 84.8773 14.9427 84.6127 14.3908 84.6127C13.5235 84.6127 12.9453 85.2391 12.9453 86.1651C12.9453 87.0911 13.5235 87.7175 14.3908 87.7175C14.9427 87.7172 15.3984 87.4614 15.5998 87.0645Z" fill="black"></path>
    <path d="M18.1653 88.2109H17.701C17.6484 88.2109 17.6134 88.1756 17.6134 88.1227V84.2067C17.6134 84.1537 17.6484 84.1185 17.701 84.1185H18.1215C18.1741 84.1185 18.2091 84.1537 18.2091 84.2067V84.4975C18.2091 84.5416 18.2442 84.5594 18.2792 84.5153C18.542 84.2155 18.8662 84.0303 19.3393 84.0303C20.2416 84.0303 20.7061 84.63 20.7061 85.3796V88.1227C20.7061 88.1756 20.671 88.2109 20.6185 88.2109H20.1542C20.1016 88.2109 20.0666 88.1756 20.0666 88.1227V85.4855C20.0666 84.9122 19.7599 84.6035 19.2168 84.6035C18.8313 84.6035 18.507 84.8152 18.2967 85.1856C18.2617 85.2562 18.2529 85.3003 18.2529 85.371V88.1228C18.2529 88.1756 18.2177 88.2109 18.1653 88.2109Z" fill="black"></path>
    <path d="M25.1306 81.8252H25.5949C25.6475 81.8252 25.6825 81.8605 25.6825 81.9134V88.1226C25.6825 88.1755 25.6475 88.2108 25.5949 88.2108H25.1657C25.1131 88.2108 25.078 88.1755 25.078 88.1226V87.814C25.078 87.752 25.043 87.7434 24.9992 87.7961C24.7101 88.1226 24.2721 88.299 23.7026 88.299C22.5725 88.299 21.7052 87.4434 21.7052 86.1645C21.7052 84.8855 22.5725 84.0301 23.7026 84.0301C24.246 84.0301 24.6663 84.2064 24.9642 84.4973C25.0169 84.5504 25.043 84.5238 25.043 84.471V81.9132C25.043 81.8605 25.078 81.8252 25.1306 81.8252ZM25.0078 87.0643C25.0341 87.0112 25.0428 86.9761 25.0428 86.923V85.4059C25.0428 85.353 25.0341 85.3177 25.0078 85.2648C24.78 84.8767 24.3507 84.6121 23.7988 84.6121C22.9315 84.6121 22.3533 85.2385 22.3533 86.1645C22.3533 87.0906 22.9315 87.7169 23.7988 87.7169C24.3507 87.7169 24.7802 87.4524 25.0078 87.0643Z" fill="black"></path>
    <path d="M33.2779 84.1981C33.2779 85.521 32.4194 86.3588 30.9649 86.3588H30.1414C30.1152 86.3588 30.0976 86.3766 30.0976 86.4029V88.1229C30.0976 88.1758 30.0626 88.2111 30.01 88.2111H29.5369C29.4844 88.2111 29.4493 88.1758 29.4493 88.1229V82.1253C29.4493 82.0724 29.4844 82.0371 29.5369 82.0371H30.9649C32.4192 82.0371 33.2779 82.875 33.2779 84.1981ZM30.1413 85.7326H30.9036C31.9812 85.7326 32.5944 85.2211 32.5944 84.1981C32.5944 83.1748 31.9812 82.6633 30.9036 82.6633H30.1413C30.115 82.6633 30.0975 82.6811 30.0975 82.7074V85.6885C30.0975 85.715 30.115 85.7326 30.1413 85.7326Z" fill="black"></path>
    <path d="M36.5819 84.1191H37.0462C37.0988 84.1191 37.1338 84.1544 37.1338 84.2073V88.1233C37.1338 88.1763 37.0988 88.2115 37.0462 88.2115H36.6257C36.5731 88.2115 36.5381 88.1763 36.5381 88.1233V87.8323C36.5381 87.7882 36.5031 87.7706 36.4593 87.8147C36.2052 88.1145 35.881 88.2997 35.3992 88.2997C34.5055 88.2997 34.0411 87.7 34.0411 86.9504V84.2073C34.0411 84.1544 34.0762 84.1191 34.1287 84.1191H34.5931C34.6456 84.1191 34.6807 84.1544 34.6807 84.2073V86.8445C34.6807 87.4178 34.9873 87.7265 35.5306 87.7265C35.9161 87.7265 36.2402 87.5148 36.4505 87.1442C36.4855 87.0738 36.4943 87.0297 36.4943 86.959V84.2072C36.4943 84.1544 36.5293 84.1191 36.5819 84.1191Z" fill="black"></path>
    <path d="M39.1025 84.471C39.1025 84.5239 39.1288 84.5504 39.1814 84.4973C39.4792 84.2064 39.8999 84.0301 40.4429 84.0301C41.5732 84.0301 42.4405 84.8855 42.4405 86.1645C42.4405 87.4434 41.5732 88.299 40.4429 88.299C39.8735 88.299 39.4354 88.1226 39.1463 87.7961C39.1025 87.7432 39.0675 87.752 39.0675 87.814V88.1226C39.0675 88.1755 39.0326 88.2108 38.9799 88.2108H38.5506C38.4981 88.2108 38.463 88.1755 38.463 88.1226V81.9134C38.463 81.8605 38.4981 81.8252 38.5506 81.8252H39.0149C39.0675 81.8252 39.1025 81.8605 39.1025 81.9134V84.471ZM41.7922 86.1644C41.7922 85.2383 41.2139 84.612 40.3466 84.612C39.7946 84.612 39.3652 84.8765 39.1376 85.2646C39.1113 85.3175 39.1025 85.3528 39.1025 85.4057V86.9228C39.1025 86.9759 39.1113 87.011 39.1376 87.0641C39.3654 87.4522 39.7946 87.7168 40.3466 87.7168C41.2139 87.7168 41.7922 87.0904 41.7922 86.1644Z" fill="black"></path>
    <path d="M44.5698 87.7612V88.1581C44.5698 88.211 44.5347 88.2463 44.4821 88.2463H44.3245C43.7901 88.2463 43.4572 87.9993 43.4572 87.4347V81.9134C43.4572 81.8605 43.4922 81.8252 43.5448 81.8252H44.0091C44.0616 81.8252 44.0967 81.8605 44.0967 81.9134V87.3553C44.0967 87.5495 44.1666 87.673 44.3595 87.673H44.4821C44.5347 87.673 44.5698 87.7081 44.5698 87.7612Z" fill="black"></path>
    <path d="M45.42 82.6813C45.42 82.4256 45.6391 82.2051 45.9019 82.2051C46.1472 82.2051 46.3662 82.4256 46.3662 82.6813C46.3662 82.9371 46.1472 83.1664 45.9019 83.1664C45.6391 83.1664 45.42 82.9371 45.42 82.6813ZM45.5688 88.1233V84.2073C45.5688 84.1544 45.6038 84.1191 45.6564 84.1191H46.1207C46.1733 84.1191 46.2083 84.1544 46.2083 84.2073V88.1233C46.2083 88.1762 46.1733 88.2115 46.1207 88.2115H45.6564C45.6038 88.2115 45.5688 88.1762 45.5688 88.1233Z" fill="black"></path>
    <path d="M49.2828 84.0303C49.9749 84.0303 50.5881 84.339 50.9212 84.8946C50.9473 84.9475 50.9299 84.9916 50.8861 85.0179L50.5094 85.2295C50.4656 85.256 50.4218 85.2474 50.3868 85.1944C50.1678 84.8327 49.7648 84.621 49.2829 84.621C48.4417 84.621 47.8988 85.2474 47.8988 86.1646C47.8988 87.0818 48.4419 87.708 49.2829 87.708C49.7648 87.708 50.1502 87.4875 50.3868 87.1347C50.4218 87.0818 50.4656 87.073 50.5094 87.0994L50.8861 87.3111C50.9299 87.3376 50.9475 87.3817 50.9212 87.4346C50.6321 88.0168 49.975 88.2989 49.2828 88.2989C48.0999 88.2989 47.2501 87.4432 47.2501 86.1644C47.2503 84.8856 48.0999 84.0303 49.2828 84.0303Z" fill="black"></path>
    <path d="M54.4432 82.0371H57.4308C57.4833 82.0371 57.5184 82.0724 57.5184 82.1253V82.5751C57.5184 82.628 57.4833 82.6633 57.4308 82.6633H55.0477C55.0214 82.6633 55.0039 82.6811 55.0039 82.7074V84.7096C55.0039 84.736 55.0214 84.7537 55.0477 84.7537H57.4308C57.4833 84.7537 57.5184 84.789 57.5184 84.8419V85.2918C57.5184 85.3448 57.4833 85.38 57.4308 85.38H55.0477C55.0214 85.38 55.0039 85.3977 55.0039 85.4241V87.541C55.0039 87.5673 55.0214 87.5851 55.0477 87.5851H57.4308C57.4833 87.5851 57.5184 87.6202 57.5184 87.6733V88.1231C57.5184 88.176 57.4833 88.2113 57.4308 88.2113H54.4432C54.3906 88.2113 54.3556 88.176 54.3556 88.1231V82.1255C54.3556 82.0724 54.3906 82.0371 54.4432 82.0371Z" fill="black"></path>
    <path d="M59.2591 88.2118H58.7948C58.7422 88.2118 58.7072 88.1766 58.7072 88.1236V84.2076C58.7072 84.1547 58.7422 84.1194 58.7948 84.1194H59.2153C59.2678 84.1194 59.3029 84.1547 59.3029 84.2076V84.4985C59.3029 84.5426 59.3379 84.5604 59.373 84.5163C59.6358 84.2165 59.9599 84.0312 60.433 84.0312C61.3353 84.0312 61.7998 84.631 61.7998 85.3806V88.1236C61.7998 88.1766 61.7648 88.2118 61.7122 88.2118H61.2479C61.1953 88.2118 61.1603 88.1766 61.1603 88.1236V85.4865C61.1603 84.9132 60.8537 84.6045 60.3105 84.6045C59.9251 84.6045 59.6007 84.8162 59.3905 85.1866C59.3554 85.2572 59.3467 85.3012 59.3467 85.372V88.1238C59.3467 88.1766 59.3115 88.2118 59.2591 88.2118Z" fill="black"></path>
    <path d="M63.3173 82.5218L63.7903 82.2661C63.8517 82.2396 63.8955 82.2661 63.8955 82.328V84.0742C63.8955 84.1005 63.913 84.1183 63.9393 84.1183H64.4211C64.4737 84.1183 64.5087 84.1536 64.5087 84.2065V84.5858C64.5087 84.6387 64.4737 84.674 64.4211 84.674H63.9393C63.913 84.674 63.8955 84.6916 63.8955 84.7181V88.1225C63.8955 88.1755 63.8604 88.2107 63.8079 88.2107H63.3436C63.291 88.2107 63.2559 88.1755 63.2559 88.1225V84.7181C63.2559 84.6916 63.2384 84.674 63.2121 84.674H62.7303C62.6777 84.674 62.6427 84.6387 62.6427 84.5858V84.2065C62.6427 84.1536 62.6777 84.1183 62.7303 84.1183H63.2121C63.2384 84.1183 63.2559 84.1005 63.2559 84.0742V82.6277C63.2558 82.5834 63.2735 82.5393 63.3173 82.5218Z" fill="black"></path>
    <path d="M65.0939 86.1648C65.0939 84.8681 65.9524 84.0303 67.074 84.0303C68.1955 84.0303 69.0363 84.8858 69.0363 86.0677C69.0363 86.1295 69.0363 86.2 69.0276 86.2704C69.0188 86.3145 68.9925 86.341 68.94 86.341H65.8473C65.786 86.341 65.7509 86.3674 65.7684 86.4556C65.865 87.2229 66.3819 87.7256 67.1616 87.7256C67.6434 87.7256 68.0289 87.5051 68.3092 87.2141C68.3707 87.1524 68.4145 87.1347 68.4583 87.1788L68.7472 87.4965C68.7823 87.5316 68.7823 87.5757 68.7472 87.611C68.3355 88.0431 67.7836 88.3077 67.1616 88.3077C65.9526 88.3081 65.0939 87.4614 65.0939 86.1648ZM68.353 85.7238C68.2393 85.0621 67.7485 84.6124 67.074 84.6124C66.408 84.6124 65.8911 85.0798 65.786 85.7326C65.7683 85.8032 65.786 85.8296 65.8648 85.8296H68.274C68.3442 85.8296 68.3705 85.8032 68.353 85.7238Z" fill="black"></path>
    <path d="M71.9374 84.0393C71.9901 84.0393 72.0162 84.0745 72.0162 84.1275V84.5949C72.0162 84.6566 71.9812 84.6831 71.9199 84.6653C71.8498 84.6565 71.7708 84.6476 71.7096 84.6476C71.2539 84.6476 70.9473 84.8681 70.7459 85.168C70.6932 85.2474 70.6844 85.3091 70.6844 85.3885V88.1227C70.6844 88.1756 70.6494 88.2109 70.5968 88.2109H70.1325C70.08 88.2109 70.0449 88.1756 70.0449 88.1227V84.2067C70.0449 84.1537 70.08 84.1185 70.1325 84.1185H70.553C70.6056 84.1185 70.6406 84.1537 70.6406 84.2067V84.5242C70.6406 84.5683 70.6669 84.5861 70.7021 84.5506C70.9299 84.277 71.2891 84.0303 71.806 84.0303C71.8498 84.0306 71.8936 84.0306 71.9374 84.0393Z" fill="black"></path>
    <path d="M73.3821 89.9485H72.9178C72.8652 89.9485 72.8302 89.9132 72.8302 89.8603V84.2067C72.8302 84.1537 72.8652 84.1185 72.9178 84.1185H73.3383C73.3909 84.1185 73.4259 84.1537 73.4259 84.2067V84.5153C73.4259 84.5771 73.461 84.5859 73.5048 84.533C73.7939 84.198 74.2319 84.0303 74.8013 84.0303C75.9404 84.0303 76.8077 84.8858 76.8077 86.1648C76.8077 87.4436 75.9404 88.2992 74.8013 88.2992C74.2582 88.2992 73.8377 88.1228 73.5486 87.8318C73.496 87.7789 73.4697 87.8055 73.4697 87.8583V89.8605C73.4697 89.9132 73.4347 89.9485 73.3821 89.9485ZM76.1596 86.1648C76.1596 85.2387 75.5812 84.6124 74.7139 84.6124C74.162 84.6124 73.7064 84.8593 73.5049 85.265C73.4787 85.3179 73.4699 85.3532 73.4699 85.4061V86.9232C73.4699 86.9763 73.4787 87.0114 73.5049 87.0645C73.7064 87.4702 74.162 87.7172 74.7139 87.7172C75.5812 87.7172 76.1596 87.0908 76.1596 86.1648Z" fill="black"></path>
    <path d="M79.7422 84.0393C79.7949 84.0393 79.8211 84.0745 79.8211 84.1275V84.5949C79.8211 84.6566 79.786 84.6831 79.7247 84.6653C79.6546 84.6565 79.5756 84.6476 79.5144 84.6476C79.0587 84.6476 78.7521 84.8681 78.5508 85.168C78.498 85.2474 78.4893 85.3091 78.4893 85.3885V88.1227C78.4893 88.1756 78.4542 88.2109 78.4017 88.2109H77.9373C77.8848 88.2109 77.8497 88.1756 77.8497 88.1227V84.2067C77.8497 84.1537 77.8848 84.1185 77.9373 84.1185H78.3579C78.4104 84.1185 78.4455 84.1537 78.4455 84.2067V84.5242C78.4455 84.5683 78.4717 84.5861 78.507 84.5506C78.7347 84.277 79.0939 84.0303 79.6108 84.0303C79.6546 84.0306 79.6984 84.0306 79.7422 84.0393Z" fill="black"></path>
    <path d="M80.4884 82.6813C80.4884 82.4256 80.7074 82.2051 80.9702 82.2051C81.2155 82.2051 81.4346 82.4256 81.4346 82.6813C81.4346 82.9371 81.2155 83.1664 80.9702 83.1664C80.7074 83.1664 80.4884 82.9371 80.4884 82.6813ZM80.6373 88.1233V84.2073C80.6373 84.1544 80.6724 84.1191 80.7249 84.1191H81.1893C81.2418 84.1191 81.2769 84.1544 81.2769 84.2073V88.1233C81.2769 88.1762 81.2418 88.2115 81.1893 88.2115H80.7249C80.6724 88.2115 80.6373 88.1762 80.6373 88.1233Z" fill="black"></path>
    <path d="M82.327 87.3387C82.3095 87.2858 82.327 87.2505 82.3796 87.2327L82.8001 87.0828C82.8526 87.0651 82.8964 87.0916 82.914 87.1445C83.0277 87.5416 83.3695 87.7442 83.6937 87.7442C84.2016 87.7442 84.4471 87.462 84.4471 87.1004C84.4471 86.6947 84.1492 86.5183 83.7375 86.439L83.387 86.3686C82.7913 86.2539 82.4144 85.7951 82.4144 85.2131C82.4144 84.5516 82.9578 84.0312 83.7285 84.0312C84.3595 84.0312 84.8413 84.3752 85.0165 85.0014C85.0342 85.0631 85.0078 85.0984 84.9552 85.116L84.5433 85.2219C84.4907 85.2397 84.4469 85.2131 84.4381 85.1601C84.3505 84.8162 84.1052 84.5957 83.7284 84.5957C83.3166 84.5957 83.0452 84.8425 83.0452 85.1866C83.0452 85.5484 83.2553 85.7159 83.6407 85.7951L83.9824 85.8657C84.6046 85.9892 85.0777 86.386 85.0777 87.1004C85.0777 87.7883 84.5608 88.3089 83.6935 88.3089C82.9753 88.3089 82.511 87.9032 82.327 87.3387Z" fill="black"></path>
    <path d="M85.8497 86.1648C85.8497 84.8681 86.7083 84.0303 87.8298 84.0303C88.9514 84.0303 89.7922 84.8858 89.7922 86.0677C89.7922 86.1295 89.7922 86.2 89.7834 86.2704C89.7747 86.3145 89.7484 86.341 89.6958 86.341H86.6032C86.5418 86.341 86.5068 86.3674 86.5243 86.4556C86.6208 87.2229 87.1377 87.7256 87.9174 87.7256C88.3993 87.7256 88.7847 87.5051 89.0651 87.2141C89.1266 87.1524 89.1704 87.1347 89.2142 87.1788L89.5031 87.4965C89.5381 87.5316 89.5381 87.5757 89.5031 87.611C89.0913 88.0431 88.5394 88.3077 87.9174 88.3077C86.7083 88.3081 85.8497 87.4614 85.8497 86.1648ZM89.1087 85.7238C88.995 85.0621 88.5042 84.6124 87.8296 84.6124C87.1637 84.6124 86.6468 85.0798 86.5416 85.7326C86.524 85.8032 86.5417 85.8296 86.6205 85.8296H89.0297C89.0999 85.8296 89.1264 85.8032 89.1087 85.7238Z" fill="black"></path>
    <path d="M90.5204 87.3387C90.5028 87.2858 90.5204 87.2505 90.5729 87.2327L90.9934 87.0828C91.046 87.0651 91.0898 87.0916 91.1073 87.1445C91.221 87.5416 91.5629 87.7442 91.887 87.7442C92.395 87.7442 92.6404 87.462 92.6404 87.1004C92.6404 86.6947 92.3426 86.5183 91.9308 86.439L91.5804 86.3686C90.9847 86.2539 90.6078 85.7951 90.6078 85.2131C90.6078 84.5516 91.1511 84.0312 91.9219 84.0312C92.5528 84.0312 93.0347 84.3752 93.2099 85.0014C93.2276 85.0631 93.2011 85.0984 93.1486 85.116L92.7366 85.2219C92.6841 85.2397 92.6403 85.2131 92.6315 85.1601C92.5439 84.8162 92.2986 84.5957 91.9217 84.5957C91.51 84.5957 91.2386 84.8425 91.2386 85.1866C91.2386 85.5484 91.4486 85.7159 91.8341 85.7951L92.1758 85.8657C92.798 85.9892 93.271 86.386 93.271 87.1004C93.271 87.7883 92.7542 88.3089 91.8869 88.3089C91.1687 88.3089 90.7043 87.9032 90.5204 87.3387Z" fill="black"></path>
  </g>
  <defs>
    <clipPath id="clip0_2007_241">
      <rect width="149" height="100" fill="white"></rect>
    </clipPath>
  </defs>
</svg>
