<?xml version="1.0" encoding="UTF-8"?>
<svg xmlns="http://www.w3.org/2000/svg" xmlns:xlink="http://www.w3.org/1999/xlink" id="Layer_1" data-name="Layer 1" viewBox="0 0 150 150">
  <defs>
    <style>.cls-1{fill:none;}.cls-2{clip-path:url(#clip-path);}.cls-3{fill:#fff;}</style>
    <clipPath id="clip-path">
      <rect class="cls-1" width="150" height="149.77"></rect>
    </clipPath>
  </defs>
  <g class="cls-2">
    <path class="cls-3" d="M150,51.78c-5.81-.11-10.57-2.83-14.6-7.24-2.21-2.4-4.58-4.55-7.83-5.18a11.77,11.77,0,0,0-10.86,3.11c-1.51,1.43-3,2.93-4.49,4.33a17.56,17.56,0,0,1-24.31.12c-1.62-1.46-3.12-3.09-4.75-4.55a11.68,11.68,0,0,0-16.2-.1c-1.8,1.58-3.44,3.44-5.28,5-7.48,6.3-17.13,6-24.3-.8-1.47-1.39-2.86-2.88-4.36-4.23a11.72,11.72,0,0,0-16.2.13c-.9.82-1.79,1.63-2.61,2.53C10.3,49.22,5.62,51.66,0,51.78V44.91c3.52,0,6.37-1.58,9-4s5.38-5.25,8.52-6.82C23.73,31,30,31.63,35.68,35.93a68,68,0,0,1,5.45,5c5.56,5.29,12.2,5.29,17.73,0,1.34-1.27,2.64-2.64,4-3.85a17.59,17.59,0,0,1,24.44.12c1.65,1.52,3.17,3.17,4.89,4.65a11.52,11.52,0,0,0,15.39.21c1.54-1.28,2.94-2.76,4.39-4.17,7.67-7.45,17.72-7.63,25.57-.44,1.36,1.24,2.64,2.57,4,3.86a11.74,11.74,0,0,0,8.46,3.6Z"></path>
    <path class="cls-3" d="M150,19.65c-5.81-.11-10.57-2.83-14.6-7.24-2.21-2.39-4.58-4.55-7.83-5.17a11.72,11.72,0,0,0-10.86,3.11c-1.51,1.42-3,2.92-4.49,4.32-7.18,6.55-17.06,6.61-24.31.12-1.62-1.46-3.12-3.09-4.75-4.55A11.68,11.68,0,0,0,67,10.13c-1.8,1.58-3.44,3.44-5.28,5-7.48,6.3-17.13,6-24.3-.8C36,13,34.56,11.45,33.06,10.11a11.72,11.72,0,0,0-16.2.13c-.9.81-1.79,1.63-2.61,2.53C10.3,17.08,5.62,19.51,0,19.65V12.78c3.52,0,6.37-1.58,9-4s5.38-5.26,8.52-6.84C23.73-1.18,30-.53,35.68,3.79a68,68,0,0,1,5.45,5c5.56,5.29,12.2,5.29,17.73,0,1.34-1.27,2.64-2.64,4-3.85a17.6,17.6,0,0,1,24.44.11C89,6.58,90.47,8.22,92.19,9.71a11.52,11.52,0,0,0,15.39.21c1.54-1.28,2.94-2.76,4.39-4.17,7.67-7.45,17.72-7.64,25.57-.44,1.36,1.24,2.64,2.57,4,3.85a11.74,11.74,0,0,0,8.46,3.6Z"></path>
    <path class="cls-3" d="M0,142.88A12.21,12.21,0,0,0,8.88,139c1.43-1.43,2.83-2.91,4.35-4.23a17.6,17.6,0,0,1,24.05.45c1.53,1.41,2.95,2.94,4.49,4.33,5,4.51,11.48,4.5,16.45,0,1.84-1.66,3.52-3.53,5.42-5.09A17.52,17.52,0,0,1,87,135c1.5,1.34,2.88,2.84,4.35,4.22,5.39,5,12,5,17.36-.11,1.25-1.2,2.46-2.45,3.73-3.63,7.39-6.86,17.14-7,24.68-.34,1.54,1.37,3,2.88,4.49,4.32a11.61,11.61,0,0,0,8.36,3.45v6.87c-6-.08-10.73-3-14.84-7.49-2.3-2.51-4.85-4.61-8.24-5.06a11.26,11.26,0,0,0-9.28,2.48c-1.66,1.42-3.17,3-4.76,4.51-7.78,7.35-17.73,7.4-25.58.12-1.69-1.59-3.28-3.28-5.06-4.71a11.34,11.34,0,0,0-14.44,0c-1.82,1.46-3.46,3.21-5.18,4.83-7.55,7.08-17.63,7.08-25.2,0-1.58-1.46-3-3-4.64-4.42a11.64,11.64,0,0,0-15.8.22A36.6,36.6,0,0,0,14.12,143c-3.91,4.23-8.55,6.62-14.1,6.76Z"></path>
    <path class="cls-3" d="M0,110.21a12,12,0,0,0,8.87-3.91c1.06-1.06,2.11-2.11,3.22-3.14,8.14-7.64,18.19-7.51,26.22.32a52.7,52.7,0,0,0,4.53,4.23,11.4,11.4,0,0,0,14,.22q2.58-2.18,4.93-4.59c8-7.74,18.15-7.79,26.22-.09,1.42,1.35,2.79,2.77,4.27,4a11.56,11.56,0,0,0,15.53-.11c1.94-1.69,3.7-3.65,5.68-5.31,7.14-6,16.53-5.77,23.51.43,1.67,1.5,3.25,3.12,4.88,4.67a11.39,11.39,0,0,0,8.09,3.22v6.9c-5.76-.12-10.45-2.77-14.48-7.11-2.29-2.47-4.72-4.73-8.12-5.33a11.56,11.56,0,0,0-10.3,2.8c-1.88,1.69-3.63,3.56-5.53,5.22a17.48,17.48,0,0,1-23.25-.1c-1.64-1.44-3.17-3.06-4.76-4.55-5.17-4.81-11.58-4.91-16.84-.23-1.85,1.64-3.53,3.51-5.43,5.08a17.4,17.4,0,0,1-23.11-.43c-1.77-1.56-3.39-3.31-5.15-4.87a11.66,11.66,0,0,0-15.93-.12,34.16,34.16,0,0,0-2.74,2.64c-4,4.33-8.66,6.87-14.35,7Z"></path>
    <path class="cls-3" d="M0,77.56a11.53,11.53,0,0,0,8.23-3.34c1.41-1.37,2.8-2.75,4.22-4.09,7.26-6.82,17.13-7,24.56-.46,1.72,1.52,3.27,3.27,5,4.75,4.92,4.23,11,4.23,15.92,0,1.74-1.49,3.31-3.22,5-4.75,7.25-6.47,17.12-6.37,24.3.22C88.89,71.38,90.4,73,92,74.43a11.61,11.61,0,0,0,16.06-.11c1.92-1.72,3.69-3.66,5.68-5.31a17.43,17.43,0,0,1,22.71.2c1.66,1.43,3.17,3,4.76,4.55A12,12,0,0,0,150,77.55v6.9c-5.69-.12-10.36-2.69-14.35-7-2.37-2.56-4.88-4.93-8.41-5.49a11.28,11.28,0,0,0-9.6,2.41c-1.67,1.41-3.17,3-4.76,4.51-7.63,7.3-17.7,7.4-25.45.24-1.7-1.56-3.27-3.29-5-4.75a11.5,11.5,0,0,0-15,.2c-1.74,1.49-3.32,3.21-5,4.75-7.51,6.84-17.39,6.8-24.84-.07C36,77.88,34.65,76.39,33.15,75a11.75,11.75,0,0,0-16.47.12c-.93.85-1.85,1.74-2.72,2.67A19.1,19.1,0,0,1,0,84.45Z"></path>
  </g>
</svg>
