<?xml version="1.0" encoding="UTF-8"?>
<svg xmlns="http://www.w3.org/2000/svg" xmlns:xlink="http://www.w3.org/1999/xlink" id="Layer_1" data-name="Layer 1" viewBox="0 0 150 150">
  <defs>
    <style>.cls-1{fill:none;}.cls-2{clip-path:url(#clip-path);}.cls-3{fill:#fff;}</style>
    <clipPath id="clip-path">
      <rect class="cls-1" width="150" height="150"></rect>
    </clipPath>
  </defs>
  <g class="cls-2">
    <path class="cls-3" d="M10.62,5.29A5.29,5.29,0,1,1,5.29,0a5.29,5.29,0,0,1,5.33,5.29v0"></path>
    <path class="cls-3" d="M38.49,5.29A5.29,5.29,0,1,1,33.2,0a5.29,5.29,0,0,1,5.29,5.29h0"></path>
    <path class="cls-3" d="M67.73,5.29A5.29,5.29,0,1,1,62.44,0a5.29,5.29,0,0,1,5.29,5.29"></path>
    <path class="cls-3" d="M95.58,5.29A5.29,5.29,0,1,1,90.29,0a5.29,5.29,0,0,1,5.29,5.29h0"></path>
    <path class="cls-3" d="M123.46,5.29A5.3,5.3,0,1,1,118.15,0h0a5.29,5.29,0,0,1,5.3,5.28h0"></path>
    <path class="cls-3" d="M10.62,33.18a5.29,5.29,0,1,1-5.29-5.29,5.29,5.29,0,0,1,5.29,5.29h0"></path>
    <path class="cls-3" d="M38.49,33.18a5.29,5.29,0,1,1-5.29-5.29,5.29,5.29,0,0,1,5.29,5.29h0"></path>
    <path class="cls-3" d="M67.73,33.18a5.29,5.29,0,1,1-5.29-5.29,5.29,5.29,0,0,1,5.29,5.29h0"></path>
    <path class="cls-3" d="M95.58,33.18a5.29,5.29,0,1,1-5.29-5.29,5.29,5.29,0,0,1,5.29,5.29h0"></path>
    <path class="cls-3" d="M123.46,33.18a5.3,5.3,0,1,1-5.31-5.29h0a5.31,5.31,0,0,1,5.3,5.29"></path>
    <path class="cls-3" d="M10.62,61.06a5.29,5.29,0,1,1-5.29-5.29,5.29,5.29,0,0,1,5.29,5.29h0"></path>
    <path class="cls-3" d="M38.49,61.06a5.29,5.29,0,1,1-5.29-5.29,5.29,5.29,0,0,1,5.29,5.29h0"></path>
    <path class="cls-3" d="M67.73,61.06a5.29,5.29,0,1,1-5.29-5.29,5.29,5.29,0,0,1,5.29,5.29h0"></path>
    <path class="cls-3" d="M95.58,61.06a5.29,5.29,0,1,1-5.29-5.29,5.29,5.29,0,0,1,5.29,5.29h0"></path>
    <path class="cls-3" d="M123.46,61.06a5.3,5.3,0,1,1-5.31-5.29h0a5.29,5.29,0,0,1,5.3,5.28h0"></path>
    <path class="cls-3" d="M10.62,88.94a5.29,5.29,0,1,1-5.29-5.29,5.29,5.29,0,0,1,5.29,5.29h0"></path>
    <path class="cls-3" d="M38.49,88.94a5.29,5.29,0,1,1-5.29-5.29,5.29,5.29,0,0,1,5.29,5.29h0"></path>
    <path class="cls-3" d="M67.73,88.94a5.29,5.29,0,1,1-5.29-5.29,5.29,5.29,0,0,1,5.29,5.29h0"></path>
    <path class="cls-3" d="M95.58,88.94a5.29,5.29,0,1,1-5.29-5.29,5.29,5.29,0,0,1,5.29,5.29h0"></path>
    <path class="cls-3" d="M123.46,88.94a5.3,5.3,0,1,1-5.31-5.29h0a5.29,5.29,0,0,1,5.3,5.28h0"></path>
    <path class="cls-3" d="M10.62,116.82a5.29,5.29,0,1,1-5.29-5.3,5.29,5.29,0,0,1,5.29,5.3h0"></path>
    <path class="cls-3" d="M38.49,116.82a5.29,5.29,0,1,1-5.29-5.3,5.29,5.29,0,0,1,5.29,5.3h0"></path>
    <path class="cls-3" d="M67.73,116.82a5.29,5.29,0,1,1-5.29-5.3,5.29,5.29,0,0,1,5.29,5.3h0"></path>
    <path class="cls-3" d="M95.58,116.82a5.29,5.29,0,1,1-5.29-5.3,5.29,5.29,0,0,1,5.29,5.3h0"></path>
    <path class="cls-3" d="M123.46,116.82a5.3,5.3,0,1,1-5.3-5.3,5.3,5.3,0,0,1,5.3,5.3v0"></path>
    <path class="cls-3" d="M150,5.29A5.3,5.3,0,1,1,144.69,0h0A5.29,5.29,0,0,1,150,5.29"></path>
    <path class="cls-3" d="M150,33.18a5.3,5.3,0,1,1-5.31-5.29h0a5.31,5.31,0,0,1,5.3,5.29"></path>
    <path class="cls-3" d="M150,61.06a5.3,5.3,0,1,1-5.31-5.29h0a5.29,5.29,0,0,1,5.3,5.28h0"></path>
    <path class="cls-3" d="M150,88.94a5.3,5.3,0,1,1-5.31-5.29h0a5.29,5.29,0,0,1,5.3,5.28h0"></path>
    <path class="cls-3" d="M150,116.82a5.3,5.3,0,1,1-5.3-5.3,5.3,5.3,0,0,1,5.3,5.3v0"></path>
    <path class="cls-3" d="M10.62,144.69a5.29,5.29,0,1,1-5.29-5.29h0a5.29,5.29,0,0,1,5.29,5.29"></path>
    <path class="cls-3" d="M38.49,144.69a5.29,5.29,0,1,1-5.29-5.29h0a5.29,5.29,0,0,1,5.29,5.29"></path>
    <path class="cls-3" d="M67.73,144.69a5.29,5.29,0,1,1-5.29-5.29h0a5.29,5.29,0,0,1,5.29,5.29"></path>
    <path class="cls-3" d="M95.58,144.69a5.29,5.29,0,1,1-5.29-5.29h0a5.29,5.29,0,0,1,5.29,5.29"></path>
    <path class="cls-3" d="M123.46,144.69a5.3,5.3,0,1,1-5.31-5.29h0a5.29,5.29,0,0,1,5.3,5.28h0"></path>
    <path class="cls-3" d="M150,144.69a5.3,5.3,0,1,1-5.31-5.29h0a5.29,5.29,0,0,1,5.3,5.28h0"></path>
  </g>
</svg>
