<?xml version="1.0" encoding="UTF-8"?>
<svg xmlns="http://www.w3.org/2000/svg" xmlns:xlink="http://www.w3.org/1999/xlink" id="Layer_1" data-name="Layer 1" viewBox="0 0 150 150">
  <defs>
    <style>.cls-1{fill:none;}.cls-2{clip-path:url(#clip-path);}.cls-3{fill:#1d1d1b;}</style>
    <clipPath id="clip-path">
      <rect class="cls-1" width="150" height="150"></rect>
    </clipPath>
  </defs>
  <g class="cls-2">
    <rect class="cls-3" x="-125.88" y="12.1" width="265.15" height="6.15" transform="translate(-8.77 9.18) rotate(-45)"></rect>
    <rect class="cls-3" x="-47.73" y="90.25" width="265.15" height="6.15" transform="translate(-41.14 87.33) rotate(-45)"></rect>
    <rect class="cls-3" x="-86.8" y="51.16" width="265.15" height="6.15" transform="translate(-24.95 48.25) rotate(-45)"></rect>
    <rect class="cls-3" x="-8.64" y="129.33" width="265.14" height="6.15" transform="translate(-57.33 126.41) rotate(-45)"></rect>
    <rect class="cls-3" x="-112.85" y="25.12" width="265.14" height="6.15" transform="translate(-14.16 22.2) rotate(-45)"></rect>
    <rect class="cls-3" x="-34.7" y="103.28" width="265.14" height="6.15" transform="translate(-46.54 100.36) rotate(-45)"></rect>
    <rect class="cls-3" x="-73.78" y="64.2" width="265.15" height="6.15" transform="translate(-30.35 61.28) rotate(-45)"></rect>
    <rect class="cls-3" x="4.38" y="142.34" width="265.15" height="6.15" transform="translate(-62.71 139.43) rotate(-45)"></rect>
    <rect class="cls-3" x="-138.9" y="-0.94" width="265.15" height="6.15" transform="translate(-3.37 -3.85) rotate(-45)"></rect>
    <rect class="cls-3" x="-60.75" y="77.23" width="265.15" height="6.15" transform="translate(-35.75 74.31) rotate(-45)"></rect>
    <rect class="cls-3" x="-99.83" y="38.15" width="265.15" height="6.15" transform="translate(-19.56 35.23) rotate(-45)"></rect>
    <rect class="cls-3" x="-21.67" y="116.29" width="265.15" height="6.15" transform="translate(-51.92 113.38) rotate(-45)"></rect>
  </g>
</svg>
