<svg width="18" height="18" viewBox="0 0 18 18" fill="none" xmlns="http://www.w3.org/2000/svg">
  <path
    d="M7.44141 1.61328L8.30859 0.746094C8.67578 0.378906 9.26953 0.378906 9.63281 0.746094L17.2266 8.33594C17.5937 8.70312 17.5937 9.29688 17.2266 9.66016L9.63281 17.2539C9.26562 17.6211 8.67187 17.6211 8.30859 17.2539L7.44141 16.3867C7.07031 16.0156 7.07812 15.4102 7.45703 15.0469L12.1641 10.5625H0.9375C0.417969 10.5625 0 10.1445 0 9.625V8.375C0 7.85547 0.417969 7.4375 0.9375 7.4375H12.1641L7.45703 2.95312C7.07422 2.58984 7.06641 1.98438 7.44141 1.61328Z"
    fill="#333333" />
</svg>
