<svg width="18" height="18" viewBox="0 0 18 18" fill="none" xmlns="http://www.w3.org/2000/svg">
  <path
    d="M10.5586 16.3867L9.69141 17.2539C9.32422 17.6211 8.73047 17.6211 8.36719 17.2539L0.773439 9.66406C0.406251 9.29688 0.406251 8.70313 0.773439 8.33985L8.36719 0.746095C8.73437 0.378907 9.32812 0.378907 9.69141 0.746094L10.5586 1.61328C10.9297 1.98438 10.9219 2.58984 10.543 2.95313L5.83594 7.4375L17.0625 7.4375C17.582 7.4375 18 7.85547 18 8.375L18 9.625C18 10.1445 17.582 10.5625 17.0625 10.5625L5.83594 10.5625L10.543 15.0469C10.9258 15.4102 10.9336 16.0156 10.5586 16.3867Z"
    fill="#333333" />
</svg>
